<svg width="90" height="82" viewBox="0 0 90 82" fill="none" xmlns="http://www.w3.org/2000/svg">
<path d="M10.325 35.792H60.4149V72.2453H10.325L10.325 35.792Z" fill="#F5F5F5"/>
<path d="M55.8755 37.9185H64.3783V69.7143H55.8755L55.8755 37.9185Z" fill="#F0F0F0"/>
<path d="M14.576 69.1481H6.07324V39.0315H14.576V69.1481Z" fill="#F0F0F0"/>
<path d="M53.446 35.1843H66.8073V38.2223C66.8073 39.5644 65.7199 40.6521 64.3783 40.6521H55.8756C54.5334 40.6521 53.446 39.5644 53.446 38.2223L53.446 35.1843Z" fill="#D4D7D9"/>
<path d="M55.8756 67.3845H64.3783C65.7199 67.3845 66.8073 68.4728 66.8073 69.8149V72.8528H53.446V69.8149C53.446 68.4728 54.5334 67.3845 55.8756 67.3845Z" fill="#D4D7D9"/>
<path d="M14.576 40.6521H6.07326C4.73166 40.6521 3.64429 39.5644 3.64429 38.2223V35.1843H17.0055V38.2223C17.0055 39.5644 15.9182 40.6521 14.576 40.6521Z" fill="#D4D7D9"/>
<path d="M17.0055 72.8528H3.64429V69.8149C3.64429 68.4728 4.73166 67.3845 6.07326 67.3845H14.576C15.9182 67.3845 17.0055 68.4728 17.0055 69.8149V72.8528Z" fill="#D4D7D9"/>
<path d="M2.42944 29.3521H69.2368V34.5768C69.2368 35.2478 68.6928 35.792 68.022 35.792H3.6442C2.9734 35.792 2.42944 35.2478 2.42944 34.5768V29.3521Z" fill="#005EEE"/>
<path d="M34.6455 66.7102C41.8908 66.7102 47.7642 60.9299 47.7642 53.7995C47.7642 46.6692 41.8908 40.8889 34.6455 40.8889C27.4003 40.8889 21.5269 46.6692 21.5269 53.7995C21.5269 60.9299 27.4003 66.7102 34.6455 66.7102Z" fill="#FFD300"/>
<path d="M34.6456 66.7108C41.8911 66.7108 47.7646 60.9304 47.7646 53.7999V53.7734C47.7645 53.7712 47.7645 53.7693 47.7645 53.7672V53.7562L47.7644 53.751V53.7401C47.7643 53.7382 47.7643 53.7361 47.7643 53.7342V53.7292C47.7642 53.727 47.7642 53.7252 47.7642 53.7231V53.7184C47.7643 53.7161 47.7643 53.7141 47.7643 53.7119L47.7642 53.7072C47.7642 53.7051 47.7642 53.7027 47.7641 53.7006V53.6964C47.764 53.6938 47.764 53.6913 47.764 53.6887L47.764 53.6854C47.764 53.6816 47.7639 53.6783 47.7639 53.6745V53.6729C47.7639 53.6698 47.7638 53.6668 47.7638 53.6637V53.6595L47.7637 53.6526V53.6484L47.7636 53.6416L47.7635 53.6373L47.7634 53.6306C47.7633 53.6293 47.7633 53.6273 47.7633 53.626L47.7633 53.62L47.7632 53.615L47.7631 53.6088L47.763 53.6041C47.763 53.6019 47.7629 53.5999 47.7629 53.5979C47.7629 53.5961 47.7629 53.5949 47.7628 53.5932C47.7628 53.591 47.7627 53.5888 47.7627 53.5866L47.7626 53.5822L47.7625 53.5753L47.7625 53.5713L47.7623 53.5615L47.7622 53.5605L47.762 53.5494L47.7619 53.5467L47.7618 53.5385L47.7617 53.5344C47.7617 53.5322 47.7616 53.5298 47.7616 53.5277L47.7615 53.5229L47.7614 53.5167L47.7613 53.512C47.7612 53.5098 47.7612 53.5079 47.7612 53.5057C47.7611 53.504 47.7611 53.5025 47.7611 53.5008L47.761 53.4949C47.761 53.4932 47.7609 53.4917 47.7609 53.49L47.7608 53.4838L47.7607 53.4791L47.7605 53.4724L47.7604 53.4683C47.7604 53.466 47.7604 53.4633 47.7602 53.461L47.7601 53.4574L47.7598 53.4496L47.7597 53.4464C47.7596 53.4433 47.7595 53.4398 47.7595 53.4367L47.7594 53.4337C47.7593 53.4306 47.7591 53.4276 47.7591 53.4245L47.759 53.4213C47.7589 53.4187 47.7589 53.4162 47.7588 53.4136L47.7587 53.4097L47.7585 53.4027L47.7583 53.3985L47.7582 53.3919L47.758 53.3874C47.7579 53.3853 47.7579 53.383 47.7577 53.3808L47.7576 53.3764C47.7575 53.3743 47.7575 53.3723 47.7574 53.3702L47.7572 53.3653L47.757 53.3594L47.7568 53.3544C47.7567 53.3525 47.7567 53.3504 47.7566 53.3485L47.7564 53.3436C47.7563 53.3413 47.7563 53.3391 47.7561 53.3368L47.756 53.333L47.7557 53.3246L47.7556 53.322C47.7554 53.3182 47.7553 53.3148 47.7552 53.311L47.7551 53.3096L47.7546 53.3001L47.7546 53.2966C47.7545 53.2942 47.7543 53.2917 47.7543 53.2894L47.7541 53.2851L47.7538 53.2786L47.7537 53.2738C47.7536 53.2717 47.7535 53.2698 47.7534 53.2677L47.7531 53.2629L47.7529 53.2568C47.7528 53.2551 47.7527 53.2536 47.7526 53.2519L47.7524 53.2458L47.7522 53.2412C47.7521 53.2391 47.752 53.2367 47.7519 53.2346L47.7517 53.2304L47.7514 53.2228L47.7512 53.2198L47.7509 53.2113L47.7508 53.2087L47.7497 53.1868L47.7496 53.1851C47.7495 53.1821 47.7494 53.1788 47.7492 53.1758L47.749 53.1731C47.7489 53.1705 47.7488 53.1676 47.7486 53.1651L47.7484 53.1613L47.7481 53.1541L47.7479 53.1504C47.7477 53.1478 47.7476 53.1458 47.7474 53.1432L47.7473 53.1395L47.7468 53.1321L47.7466 53.1283C47.7466 53.1262 47.7464 53.1236 47.7463 53.1215C47.7462 53.1202 47.7461 53.1186 47.746 53.1173L47.7456 53.1102L47.7454 53.1066C47.7452 53.104 47.7452 53.1014 47.745 53.0988L47.7448 53.0957C47.7447 53.0929 47.7445 53.0899 47.7444 53.0872L47.7443 53.0848L47.7437 53.0739L47.7436 53.0725L47.743 53.0629L47.7428 53.06C47.7427 53.0574 47.7425 53.0547 47.7423 53.0521L47.7422 53.0483L47.7417 53.0414L47.7415 53.037C47.7414 53.0349 47.7412 53.0329 47.741 53.0307C47.7409 53.0294 47.7408 53.0272 47.7408 53.0259L47.7404 53.0197L47.7401 53.0154L47.7397 53.0089L47.7394 53.0043C47.7394 53.0023 47.7392 53.0001 47.739 52.9979L47.7387 52.9936C47.7386 52.9915 47.7385 52.9892 47.7383 52.987L47.738 52.9826C47.7379 52.9803 47.7378 52.9777 47.7376 52.9754L47.7374 52.9721L47.7368 52.9631L47.7366 52.9611L47.7359 52.95L47.7358 52.9499L47.7351 52.9394L47.735 52.9363L47.7343 52.9284L47.7341 52.9251L47.7336 52.9177L47.7334 52.9138L47.7329 52.9069L47.7326 52.9028C47.7325 52.9005 47.7323 52.8985 47.7322 52.8962L47.7319 52.8918L47.7314 52.885L47.7312 52.881L47.7307 52.8742L47.7304 52.8702L47.7299 52.8629L47.7296 52.8594C47.7294 52.8567 47.7292 52.854 47.729 52.8511L47.7287 52.8486C47.7282 52.8414 47.7277 52.8338 47.7271 52.8267L47.7271 52.8259C47.7268 52.8226 47.7265 52.8191 47.7263 52.8158L47.7261 52.8138L47.7255 52.805L47.7252 52.802L47.7246 52.7942L47.7243 52.7911C47.7241 52.7885 47.7239 52.7859 47.7237 52.7833L47.7235 52.7799L47.7228 52.7725L47.7226 52.7689C47.7223 52.7663 47.7221 52.7642 47.722 52.7616L47.7216 52.7579C47.7214 52.7553 47.7212 52.7528 47.721 52.7502L47.7207 52.7473C47.7205 52.7445 47.7203 52.7419 47.72 52.7391L47.7198 52.7363L47.7191 52.7268L47.719 52.7256C47.7186 52.7219 47.7184 52.7183 47.7181 52.7146L47.718 52.7141C47.7177 52.7106 47.7174 52.7072 47.7171 52.7037L47.717 52.7014L47.7162 52.6933L47.7159 52.6894C47.7156 52.687 47.7155 52.6845 47.7153 52.6822L47.7149 52.6786L47.7143 52.6716L47.7139 52.6676L47.7133 52.6607L47.7129 52.6569C47.7126 52.6545 47.7125 52.652 47.7123 52.6498L47.7119 52.6461L47.7112 52.6387L47.711 52.6353L47.7103 52.6281L47.7099 52.6244C47.7097 52.6216 47.7095 52.6192 47.7092 52.6164L47.709 52.6137C47.7083 52.6065 47.7076 52.5991 47.7069 52.5919L47.7069 52.5911C47.7066 52.5878 47.7062 52.5845 47.706 52.5812L47.7057 52.5784C47.7054 52.5756 47.7052 52.5732 47.705 52.5703L47.7047 52.5673C47.7045 52.5647 47.7042 52.562 47.704 52.5594L47.7036 52.556L47.7029 52.549C47.7028 52.5477 47.7026 52.5461 47.7025 52.5448L47.7018 52.5383L47.7014 52.5339L47.7007 52.5272L47.7003 52.5235C47.7001 52.521 47.6998 52.5187 47.6996 52.5161L47.6993 52.5126L47.6984 52.5045L47.6982 52.502C47.6979 52.499 47.6975 52.4958 47.6972 52.4928L47.6971 52.4912C47.6963 52.4838 47.6955 52.4767 47.6948 52.4692L47.6947 52.4686L47.6937 52.4585L47.6934 52.4558C47.6931 52.4533 47.6929 52.4506 47.6926 52.4481L47.6922 52.4443L47.6915 52.4372L47.691 52.4334L47.6903 52.4266L47.6899 52.4225L47.6892 52.4157L47.6888 52.4117L47.688 52.405L47.6876 52.401C47.6873 52.3987 47.687 52.3963 47.6868 52.3939L47.6864 52.3903C47.6861 52.388 47.6858 52.3852 47.6856 52.3829L47.6852 52.3796L47.6843 52.3716L47.6839 52.3688L47.6827 52.3582L47.6826 52.3569L47.6815 52.3474L47.6812 52.3445L47.6803 52.3367L47.6799 52.3333C47.6796 52.3309 47.6793 52.3282 47.679 52.3259L47.6786 52.3226L47.6777 52.3152L47.6772 52.3116L47.6764 52.3045L47.6759 52.3007C47.6757 52.2984 47.6754 52.296 47.6751 52.2937L47.6747 52.2901C47.6744 52.2876 47.6742 52.2854 47.6738 52.2828L47.6734 52.2795L47.6725 52.2724L47.6721 52.2685L47.6712 52.2612L47.6707 52.258C47.6704 52.255 47.67 52.2517 47.6696 52.2487L47.6694 52.2474C47.6685 52.2402 47.6677 52.233 47.6668 52.226L47.6664 52.2229C47.6661 52.2204 47.6658 52.2178 47.6655 52.2153L47.665 52.2118L47.6642 52.2048L47.6637 52.201L47.6628 52.1939L47.6624 52.1903L47.6615 52.1835L47.661 52.1793L47.6601 52.1728L47.6596 52.1686L47.6587 52.1616L47.6583 52.1582C47.6578 52.1554 47.6576 52.1527 47.6572 52.15L47.657 52.1475L47.6557 52.1385L47.6555 52.1367L47.6526 52.1151L47.6524 52.1136L47.6512 52.1046L47.6507 52.1015L47.6497 52.094L47.6492 52.0904L47.6483 52.0833L47.6478 52.0798L47.6468 52.0726L47.6464 52.069C47.6461 52.0668 47.6457 52.0642 47.6454 52.0619L47.6449 52.0582L47.644 52.0513C47.6438 52.05 47.6436 52.0486 47.6434 52.0473L47.6425 52.0402L47.642 52.037L47.6409 52.0289L47.6405 52.0263L47.6391 52.0162L47.639 52.0158C47.638 52.0084 47.637 52.0013 47.636 51.994L47.6358 51.9929L47.6345 51.9835L47.634 51.9806L47.6329 51.9728L47.6324 51.9697L47.6314 51.9624L47.6308 51.9588L47.6297 51.9516L47.6293 51.9483C47.6288 51.9458 47.6286 51.9436 47.6282 51.9411L47.6277 51.9375C47.6273 51.935 47.627 51.9325 47.6266 51.93L47.6262 51.9271L47.6251 51.9192L47.6246 51.9164L47.6232 51.907L47.623 51.906L47.6181 51.8735L47.6179 51.8723C47.6175 51.8691 47.6171 51.866 47.6165 51.8628L47.6162 51.8607L47.615 51.8523L47.6145 51.8495C47.6141 51.847 47.6136 51.8441 47.6133 51.8416L47.6129 51.839C47.6124 51.8362 47.612 51.8337 47.6116 51.8309L47.6112 51.8281C47.6107 51.8253 47.6103 51.8226 47.61 51.82L47.6095 51.8177L47.6082 51.8091L47.6078 51.807L47.6063 51.7973L47.6062 51.7964C47.6056 51.7928 47.6051 51.7894 47.6044 51.7858V51.7857C47.6027 51.7747 47.6009 51.764 47.5991 51.753L47.5991 51.7522L47.5975 51.7428L47.597 51.7401L47.5956 51.7319L47.5952 51.7294L47.5939 51.7215L47.5934 51.7186L47.5921 51.7107L47.5917 51.708L47.5904 51.7002L47.5899 51.6973L47.5885 51.6888L47.5883 51.6868C47.5876 51.6836 47.5872 51.6806 47.5867 51.6775L47.5865 51.6763C47.5847 51.6654 47.5828 51.6548 47.581 51.6439L47.5807 51.6428C47.5802 51.6396 47.5796 51.6366 47.5791 51.6334L47.5787 51.631L47.5773 51.6227L47.5768 51.6202L47.5755 51.6123L47.5749 51.6091C47.5745 51.6066 47.574 51.604 47.5736 51.6015L47.5731 51.5987L47.5716 51.5908L47.5712 51.5881C47.5707 51.5854 47.5702 51.5827 47.5698 51.58L47.5694 51.5774C47.5689 51.5748 47.5684 51.572 47.568 51.5693L47.5675 51.5667L47.5658 51.557L47.5657 51.5564C47.5637 51.5455 47.5618 51.5349 47.5599 51.524L47.5598 51.5234C47.5592 51.52 47.5586 51.5168 47.558 51.5134L47.5578 51.5122L47.556 51.5029L47.5557 51.501C47.5551 51.4981 47.5546 51.4951 47.5541 51.4922L47.5536 51.4902C47.5532 51.4875 47.5527 51.4847 47.5521 51.4819L47.5516 51.4792L47.55 51.4709L47.5496 51.4688C47.5491 51.4658 47.5485 51.463 47.548 51.46L47.5477 51.4582C47.5471 51.455 47.5464 51.4518 47.5459 51.4487L47.5457 51.4477C47.543 51.4332 47.5404 51.4192 47.5377 51.4048L47.5374 51.4034L47.5356 51.3943L47.5352 51.392C47.5347 51.3891 47.5342 51.3868 47.5336 51.3839L47.5332 51.3814L47.5316 51.3731L47.5311 51.3707C47.5306 51.368 47.5301 51.3651 47.5295 51.3623L47.529 51.3603L47.5274 51.3516L47.5269 51.3495L47.5251 51.3403L47.5249 51.3393C47.5242 51.3359 47.5235 51.3324 47.5229 51.3291L47.5228 51.3286C47.52 51.3144 47.5172 51.3 47.5143 51.2858L47.514 51.2844L47.5122 51.2752L47.5118 51.2735C47.5112 51.2708 47.5106 51.2676 47.5101 51.2649L47.5095 51.2625C47.5089 51.2598 47.5084 51.2569 47.5079 51.2543L47.5073 51.2519C47.5068 51.2493 47.5062 51.2463 47.5057 51.2436L47.5052 51.2416L47.5034 51.2326L47.5031 51.2311L47.5012 51.2216L47.5009 51.2205C47.4972 51.2026 47.4936 51.1849 47.4898 51.167L47.4897 51.1667C47.489 51.1633 47.4883 51.1599 47.4876 51.1566L47.4873 51.1553C47.4866 51.1522 47.4861 51.1493 47.4854 51.1461L47.485 51.1444L47.4832 51.1357L47.4827 51.1336L47.4809 51.1247L47.4806 51.1234L47.4786 51.1139L47.4784 51.1127C47.4746 51.095 47.4706 51.0771 47.4668 51.0594V51.0593L47.4646 51.0493L47.4641 51.0474C47.4635 51.0444 47.4629 51.0417 47.4622 51.0387L47.4617 51.0367C47.4611 51.0341 47.4605 51.0311 47.4599 51.0284L47.4593 51.026C47.4587 51.0233 47.4581 51.0206 47.4574 51.0179L47.4569 51.0155C47.4563 51.0128 47.4557 51.0102 47.4552 51.0075L47.4545 51.005C47.4539 51.0021 47.4532 50.9993 47.4526 50.9964L47.4522 50.9947L47.45 50.985L47.4498 50.9843C47.4474 50.9736 47.445 50.9632 47.4426 50.9524L47.4424 50.9518C47.4417 50.9486 47.4409 50.9453 47.4402 50.9422L47.4398 50.9402C47.4392 50.9372 47.4386 50.9346 47.4379 50.9316L47.4374 50.9295L47.4355 50.9211L47.4349 50.9188C47.4343 50.9161 47.4336 50.9134 47.433 50.9107L47.4324 50.9084L47.4305 50.9001L47.43 50.8979L47.4278 50.8888L47.4276 50.8878C47.4269 50.8844 47.4262 50.8816 47.4254 50.8783L47.4251 50.8771C47.4218 50.8629 47.4184 50.849 47.415 50.8349C47.4149 50.8344 47.415 50.8349 47.4149 50.8344C47.414 50.8309 47.4133 50.8279 47.4126 50.8244L47.4123 50.8233L47.4101 50.814L47.4097 50.8125C47.4089 50.8094 47.4082 50.8064 47.4075 50.8033L47.4072 50.802L47.4051 50.7932L47.4046 50.7911L47.4024 50.7823L47.4021 50.7809L47.3997 50.7712L47.3995 50.7706C47.3944 50.7494 47.3892 50.7284 47.3839 50.7072L47.3837 50.7065C47.3829 50.7032 47.3822 50.6999 47.3813 50.6966L47.3811 50.6958L47.3786 50.6862L47.3784 50.6851L47.3759 50.6755L47.3757 50.6747L47.3734 50.6652L47.3731 50.6639C47.3669 50.6394 47.3605 50.6147 47.3542 50.5902H47.3541L47.3514 50.5798L47.3513 50.5794L47.3486 50.5691L47.346 50.559L47.3457 50.5582L47.3431 50.5482C47.343 50.5477 47.3431 50.5483 47.343 50.5478C47.3366 50.5234 47.33 50.4988 47.3234 50.4744L47.3231 50.4734C47.3222 50.4701 47.3214 50.4671 47.3206 50.4638L47.3203 50.4631C47.3195 50.46 47.3186 50.4566 47.3178 50.4536L47.3174 50.4524C47.3166 50.4493 47.3157 50.4458 47.3149 50.4428L47.3147 50.4423C47.308 50.4177 47.3013 50.3936 47.2945 50.369L47.2943 50.3683L47.2916 50.3586L47.2914 50.3579L47.2887 50.3482L47.2884 50.3474L47.2857 50.3376L47.2856 50.3371C47.2846 50.3338 47.2838 50.3306 47.2828 50.3273L47.2825 50.3266C47.2756 50.3021 47.2687 50.2779 47.2616 50.2535V50.2534C47.2607 50.2501 47.2597 50.2466 47.2587 50.2433L47.2585 50.2425L47.2556 50.2327L47.2555 50.2323C47.2545 50.229 47.2535 50.2257 47.2526 50.2224L47.2523 50.2217C47.2441 50.1938 47.236 50.1665 47.2277 50.1386L47.2275 50.1382L47.2246 50.1283L47.2244 50.1276L47.2215 50.1182L47.2211 50.1172C47.2202 50.1139 47.2193 50.1108 47.2182 50.1075L47.2181 50.1071C47.2108 50.0828 47.2034 50.0587 47.1959 50.0344C47.1949 50.0309 47.1938 50.0276 47.1927 50.0242L47.1927 50.0238L47.1895 50.0138L47.1894 50.0134C47.1884 50.01 47.1874 50.0068 47.1862 50.0033V50.0032L47.1831 49.9931L47.183 49.9929C47.1744 49.9654 47.1657 49.9379 47.1569 49.9105L47.1566 49.9095L47.1536 49.8999L47.1534 49.8994C47.1435 49.8684 47.1335 49.8377 47.1232 49.8067L47.1198 49.7966L47.1197 49.7961L47.1165 49.7867L47.1161 49.7855L47.1129 49.7759L47.1128 49.7757C47.1049 49.7519 47.0968 49.7279 47.0887 49.7041L47.0884 49.7031L47.0852 49.6937L47.085 49.6929L47.0818 49.6836L47.0814 49.6826L47.0783 49.6731L47.078 49.6725C47.0686 49.6452 47.0593 49.6182 47.0497 49.591L47.0496 49.5906C47.0485 49.5874 47.0474 49.5842 47.0463 49.581L47.046 49.5801L47.0428 49.5709L47.0424 49.57C47.0414 49.5671 47.0402 49.5638 47.0392 49.5608L47.0388 49.5599C47.0293 49.5328 47.0196 49.5058 47.0099 49.4788L47.0098 49.4784C47.0086 49.4751 47.0076 49.472 47.0063 49.4687L47.0062 49.4682C47.005 49.465 47.004 49.462 47.0028 49.4589L47.0024 49.4578C46.9631 49.3496 46.9223 49.2417 46.8803 49.1349L46.88 49.1343C46.8668 49.1009 46.8536 49.0678 46.8401 49.0344L46.84 49.0343C46.8386 49.0309 46.8373 49.0277 46.836 49.0244L46.8359 49.0243C46.8238 48.9943 46.8116 48.9645 46.7992 48.9345C46.799 48.9342 46.7993 48.9347 46.7991 48.9344C46.7826 48.8945 46.7661 48.8551 46.7491 48.8154L46.7489 48.8151C46.7208 48.7489 46.6923 48.6836 46.6631 48.618L46.6628 48.6174L46.6586 48.6081L46.6585 48.6078C46.657 48.6045 46.6557 48.6015 46.6542 48.5982L46.6541 48.5981C46.6425 48.5719 46.6306 48.5458 46.6187 48.5197L46.6186 48.5195C46.6172 48.5163 46.6157 48.5134 46.6143 48.5101L46.6141 48.5096C46.6127 48.5066 46.6114 48.5036 46.61 48.5006L46.6095 48.4997C46.5977 48.4739 46.5857 48.448 46.5737 48.4222L46.5735 48.4218C46.5719 48.4185 46.5706 48.4155 46.569 48.4123L46.5646 48.403L46.5644 48.4023L46.5601 48.3931L46.5598 48.3928C46.5583 48.3895 46.5569 48.3866 46.5554 48.3833L46.5553 48.3831C46.5447 48.3604 46.534 48.338 46.5232 48.3153L46.523 48.315L46.5187 48.306L46.5182 48.305L46.514 48.2963L46.5137 48.2955C46.5123 48.2925 46.5108 48.2895 46.5094 48.2865L46.5091 48.286C46.4967 48.2602 46.4843 48.2348 46.4718 48.209L46.4717 48.2087C46.4685 48.2023 46.4655 48.1963 46.4625 48.1898L46.4622 48.1894C46.4495 48.1637 46.437 48.1382 46.4242 48.1126L46.4241 48.1124L46.4195 48.1031C46.4193 48.1027 46.4196 48.1032 46.4194 48.1028L46.4147 48.0936L46.4145 48.0931L46.4098 48.0838L46.4097 48.0837C46.3969 48.0581 46.3841 48.0328 46.371 48.0073L46.3708 48.0069C46.3692 48.0037 46.3678 48.001 46.3662 47.9978L46.3659 47.9973C46.348 47.9623 46.3301 47.9278 46.3119 47.893L46.3117 47.8926C46.3101 47.8896 46.3085 47.8867 46.307 47.8837L46.3067 47.883C46.2935 47.8578 46.2801 47.8326 46.2668 47.8076L46.2666 47.8072C46.2649 47.8041 46.2634 47.8012 46.2617 47.798L46.2616 47.7979C46.26 47.7948 46.2583 47.7917 46.2566 47.7885C46.2414 47.7601 46.2261 47.7318 46.2108 47.7036V47.7035C46.2092 47.7005 46.2074 47.6973 46.2058 47.6944L46.2053 47.6937L46.2005 47.6847L46.2004 47.6846C46.1849 47.6564 46.1695 47.6285 46.1539 47.6004L46.1537 47.6C46.1519 47.5969 46.1504 47.5942 46.1486 47.5911L46.1484 47.5907L46.1436 47.5818L46.1432 47.5813C46.1292 47.5564 46.1154 47.5318 46.1013 47.507L46.1012 47.5069L46.096 47.4978C46.0959 47.4975 46.0961 47.4979 46.0958 47.4975L46.0909 47.4888L46.0904 47.4879L46.0854 47.4792L46.0852 47.479L46.0802 47.4701L46.08 47.4696C46.0693 47.451 46.0588 47.4328 46.0481 47.4143L46.0478 47.4138C46.0443 47.4079 46.0409 47.402 46.0374 47.396L46.0369 47.3952C46.0352 47.3923 46.0337 47.3895 46.0319 47.3866L46.0316 47.3862C46.0173 47.3615 46.003 47.3372 45.9884 47.3125C45.9881 47.3122 45.9886 47.3129 45.9883 47.3125L45.983 47.3035L45.9826 47.3029C45.981 47.3002 45.9793 47.2972 45.9777 47.2945L45.9771 47.2936L45.9722 47.2855L45.9715 47.2843C45.957 47.26 45.9426 47.2359 45.928 47.2117L45.9275 47.211C45.9239 47.2051 45.9204 47.1993 45.9168 47.1933L45.9166 47.193C45.9148 47.1899 45.9131 47.1872 45.9113 47.1842L45.911 47.1839C45.898 47.1625 45.8852 47.1414 45.8721 47.1202L45.872 47.1201L45.8665 47.1112L45.8664 47.111C45.8646 47.1081 45.8628 47.1051 45.861 47.1023L45.8606 47.1016C45.859 47.0989 45.8571 47.0959 45.8554 47.0932L45.8551 47.0926L45.8498 47.0841L45.8494 47.0836C45.8344 47.0594 45.8196 47.0355 45.8044 47.0114L45.8041 47.011L45.7987 47.0024L45.7985 47.0019C45.7966 46.999 45.795 46.9963 45.7931 46.9934L45.7928 46.9928C45.7776 46.9687 45.7625 46.9452 45.7471 46.9211L45.7466 46.9205C45.7449 46.9178 45.7431 46.915 45.7413 46.9121L45.741 46.9117C45.7391 46.9087 45.7375 46.9062 45.7355 46.9031L45.7352 46.9028L45.7296 46.8942L45.7294 46.8939C45.7276 46.8909 45.7257 46.8881 45.7238 46.8851L45.7237 46.885C45.7121 46.867 45.7004 46.8491 45.6888 46.8313L45.6888 46.8312L45.6831 46.8226L45.6827 46.8219L45.6774 46.8138L45.6767 46.8128L45.6714 46.8047L45.671 46.8042L45.6656 46.7959L45.6651 46.7952C45.6514 46.7744 45.6378 46.7539 45.624 46.7332C45.6237 46.7328 45.6241 46.7333 45.6239 46.733C45.6221 46.7302 45.6202 46.7274 45.6183 46.7246L45.6177 46.7237C45.6158 46.721 45.6141 46.7183 45.6121 46.7155L45.6119 46.7152C45.61 46.7124 45.6082 46.7097 45.6063 46.7069L45.6059 46.7062C45.5902 46.6827 45.5744 46.6593 45.5585 46.6358L45.558 46.6352L45.5524 46.6269L45.5521 46.6265L45.5465 46.6181L45.5463 46.6177C45.5282 46.5912 45.5103 46.5651 45.4921 46.5388L45.4918 46.5384L45.4862 46.5303L45.4856 46.5294C45.4654 46.5005 45.4451 46.4714 45.4249 46.4427L45.4244 46.442C45.4226 46.4395 45.4205 46.4365 45.4188 46.434L45.4183 46.4333C45.4165 46.4307 45.4147 46.4282 45.4129 46.4256L45.412 46.4244C45.4102 46.4219 45.4082 46.4191 45.4064 46.4166L45.406 46.416C45.3916 46.3957 45.3774 46.3758 45.3628 46.3556L45.3624 46.355L45.3566 46.347L45.3562 46.3464L45.3503 46.3382L45.35 46.3378C45.3334 46.3147 45.3167 46.2918 45.2999 46.2689L45.2998 46.2688L45.2936 46.2603L45.2934 46.2601C45.2915 46.2574 45.2895 46.2546 45.2875 46.252L45.2869 46.2512L45.2811 46.2433L45.2807 46.2427L45.2746 46.2345L45.2745 46.2344C45.2598 46.2143 45.245 46.1944 45.2302 46.1744H45.2301L45.2239 46.1661L45.2235 46.1655C45.2217 46.163 45.2195 46.1602 45.2177 46.1577L45.217 46.1568L45.2114 46.1493L45.2106 46.1482C45.1936 46.1256 45.1767 46.1031 45.1596 46.0806L45.1594 46.0803L45.1531 46.072L45.153 46.0718C45.1509 46.0691 45.1488 46.0664 45.1468 46.0637L45.1464 46.0632L45.1402 46.0553L45.14 46.0548L45.1336 46.0465C45.1228 46.0324 45.112 46.0183 45.1011 46.0043H45.101C45.099 46.0016 45.0968 45.9988 45.0948 45.9961L45.0941 45.9952C45.0922 45.9928 45.0902 45.9902 45.0883 45.9877L45.0877 45.9869L45.082 45.9794L45.0811 45.9783C45.0792 45.9759 45.0774 45.9735 45.0755 45.9711L45.0748 45.9702L45.0686 45.9623L45.0684 45.9621C45.0531 45.9424 45.0378 45.9229 45.0224 45.9034C45.0202 45.9006 45.0182 45.898 45.016 45.8952L45.0156 45.8947L45.0092 45.8868L45.009 45.8865L45.0028 45.8787L45.0023 45.878C44.9848 45.8559 44.9671 45.8337 44.9494 45.8116L44.9491 45.8112L44.9428 45.8033L44.9426 45.803L44.9362 45.7951L44.9359 45.7948L44.9294 45.7866H44.9293C44.9115 45.7645 44.8935 45.7424 44.8756 45.7204H44.8755C44.8733 45.7177 44.8712 45.7151 44.8688 45.7123L44.8687 45.7121C44.8462 45.6846 44.8236 45.6572 44.8009 45.6299C44.7964 45.6244 44.7918 45.619 44.7873 45.6136H44.7872C44.3135 45.0456 43.7915 44.5183 43.2272 44.0374C42.4443 43.371 41.2607 43.4555 40.5837 44.226C39.9073 44.9957 39.9922 46.1591 40.7734 46.8258C44.6875 50.1579 45.1159 55.9819 41.73 59.834C39.9501 61.859 37.3638 63.0228 34.6432 63.0229C32.8528 63.0256 31.0994 62.5213 29.5921 61.5703C28.721 61.0202 27.5616 61.2692 27.0026 62.1265C26.4444 62.9825 26.6958 64.1217 27.5645 64.6728C27.9023 64.8862 28.2505 65.0845 28.6088 65.2678L28.6092 65.2681C28.6177 65.2724 28.6264 65.2768 28.6348 65.2811L28.636 65.2817C28.6447 65.2862 28.6528 65.2903 28.6616 65.2948L28.662 65.2951L28.6705 65.2993L28.6715 65.2998C28.68 65.304 28.6885 65.3084 28.697 65.3126L28.6978 65.313C28.7062 65.3173 28.7146 65.3214 28.7231 65.3257L28.7246 65.3264C28.7327 65.3305 28.7417 65.335 28.7499 65.339L28.7508 65.3394C28.7593 65.3436 28.7678 65.3478 28.7763 65.352L28.7774 65.3525C28.7803 65.354 28.7826 65.3551 28.7856 65.3566L28.7871 65.3573C28.7951 65.3613 28.8033 65.3653 28.8114 65.3692L28.8143 65.3706C28.8225 65.3746 28.8299 65.3782 28.838 65.3822L28.8405 65.3834L28.8483 65.3872L28.8485 65.3874L28.8644 65.3951L28.8669 65.3963L28.8745 65.3999L28.8769 65.4011C28.8818 65.4035 28.8865 65.4058 28.8914 65.4081L28.8933 65.409L28.9007 65.4125L28.9038 65.414C28.9086 65.4164 28.9135 65.4186 28.9183 65.4209L28.9199 65.4217L28.9267 65.425L28.9306 65.4269L28.9374 65.4302L28.9403 65.4316C28.9447 65.4337 28.9483 65.4354 28.9527 65.4375L28.957 65.4396L28.9639 65.4429L28.967 65.4444C28.9711 65.4463 28.9752 65.4483 28.9794 65.4502L28.9834 65.4521L28.99 65.4553L28.9944 65.4573L29.0062 65.4629L29.0098 65.4645L29.0164 65.4676L29.021 65.4698L29.0271 65.4726C29.0302 65.4741 29.0332 65.4755 29.0363 65.477L29.0427 65.4799L29.0474 65.4821L29.0537 65.485L29.0585 65.4872L29.0692 65.4923L29.0737 65.4943L29.0799 65.4972L29.0856 65.4998C29.0886 65.5012 29.0913 65.5025 29.0944 65.5038L29.1007 65.5068L29.1065 65.5095L29.1116 65.5118L29.1199 65.5156L29.127 65.5188L29.1327 65.5214L29.1383 65.5239L29.1443 65.5266L29.1537 65.5308L29.1596 65.5335L29.1646 65.5357L29.1708 65.5385L29.1767 65.5412L29.1856 65.5453L29.1914 65.5479L29.1973 65.5505L29.2034 65.5533L29.2101 65.5563C29.2127 65.5574 29.2154 65.5587 29.218 65.5599L29.2236 65.5623L29.2301 65.5652L29.2347 65.5673C29.2383 65.5689 29.2415 65.5703 29.2451 65.5719L29.2496 65.5739L29.2564 65.5769L29.2614 65.5792C29.2644 65.5805 29.2678 65.582 29.2709 65.5834L29.2759 65.5856L29.2831 65.5887L29.2879 65.5908L29.296 65.5944L29.3013 65.5967L29.3099 65.6004L29.3142 65.6023L29.3221 65.6057L29.326 65.6074L29.3366 65.612L29.341 65.6139L29.3483 65.6171L29.3526 65.619L29.3633 65.6236L29.3673 65.6253L29.3749 65.6286L29.3795 65.6306C29.383 65.6321 29.3867 65.6337 29.3903 65.6353L29.3925 65.6362L29.4019 65.6403L29.4058 65.6419L29.4152 65.646L29.4174 65.6469L29.4285 65.6517L29.4324 65.6533L29.4408 65.657L29.4442 65.6583C29.4479 65.6599 29.4516 65.6615 29.4552 65.6631L29.4586 65.6645L29.4674 65.6682L29.4708 65.6697L29.482 65.6744L29.4849 65.6756C29.488 65.6769 29.4909 65.6781 29.4939 65.6794L29.4974 65.6809L29.5088 65.6858L29.5097 65.6861L29.521 65.6908L29.5239 65.692L29.5345 65.6964L29.5358 65.6969C29.5397 65.6985 29.5438 65.7003 29.5477 65.7018L29.5504 65.703L29.5602 65.707L29.5628 65.7081L29.5745 65.7129L29.5769 65.7139L29.5862 65.7177L29.5898 65.7192C29.5936 65.7208 29.5976 65.7224 29.6014 65.724L29.6027 65.7245C29.6062 65.726 29.6098 65.7274 29.6134 65.7289L29.6164 65.7301L29.628 65.7348C29.6284 65.7349 29.6279 65.7348 29.6283 65.7349L29.6401 65.7397L29.6433 65.741L29.6533 65.7451L29.6554 65.7458L29.6672 65.7507L29.6698 65.7517L29.6801 65.7559L29.682 65.7566L29.6942 65.7616L29.6959 65.7623L29.7066 65.7666L29.709 65.7675C29.7171 65.7707 29.7253 65.774 29.7333 65.7772L29.7361 65.7783L29.7469 65.7826L29.7483 65.7831C29.7524 65.7847 29.7565 65.7863 29.7605 65.7879L29.7628 65.7888L29.7733 65.793L29.7753 65.7937L29.7875 65.7985L29.7893 65.7992L29.7999 65.8033L29.8023 65.8043C29.8106 65.8075 29.8189 65.8108 29.8271 65.814L29.829 65.8147C29.8374 65.818 29.8456 65.8211 29.854 65.8244L29.8562 65.8253L29.8681 65.8299L29.8685 65.83C29.8728 65.8316 29.8768 65.8332 29.8812 65.8349L29.883 65.8356C29.8866 65.837 29.8906 65.8385 29.8942 65.8399L29.8958 65.8405L29.9084 65.8454L29.9095 65.8458L29.9209 65.8501L29.923 65.8509C29.9314 65.8541 29.9396 65.8572 29.948 65.8604L29.95 65.8612L29.9622 65.8658L29.9624 65.8658L29.9752 65.8707L29.9768 65.8713L29.9885 65.8757L29.9897 65.8761L30.0024 65.8809L30.0039 65.8815L30.0149 65.8856L30.0171 65.8863L30.0297 65.891L30.03 65.8911L30.0423 65.8956L30.0443 65.8963C30.0527 65.8994 30.061 65.9024 30.0694 65.9055L30.0714 65.9063L30.0836 65.9108L30.0839 65.9109C30.0882 65.9124 30.0925 65.914 30.0969 65.9156L30.0982 65.9162C30.1023 65.9176 30.1061 65.9191 30.1103 65.9206L30.1111 65.9209L30.1242 65.9257L30.1247 65.9258L30.1373 65.9304L30.1384 65.9308L30.1644 65.9401L30.1657 65.9405C30.1745 65.9437 30.1831 65.9468 30.1919 65.9499L30.1927 65.9502L30.2057 65.9548C30.2061 65.955 30.2054 65.9547 30.2058 65.9548L30.2192 65.9596L30.2199 65.9598L30.232 65.9641L30.2337 65.9647C30.2423 65.9677 30.2507 65.9706 30.2593 65.9737L30.261 65.9743C30.2695 65.9772 30.2783 65.9803 30.2868 65.9832L30.2882 65.9838C30.2968 65.9868 30.3055 65.9897 30.3142 65.9928L30.3155 65.9932L30.3279 65.9974L30.3287 65.9977L30.3418 66.0022L30.3425 66.0024L30.3551 66.0067L30.3561 66.007C30.3649 66.0101 30.3736 66.013 30.3825 66.0159L30.3836 66.0164C30.3925 66.0193 30.4011 66.0222 30.41 66.0253L30.411 66.0256C30.4244 66.0301 30.4376 66.0345 30.451 66.0389L30.4518 66.0392C30.4607 66.0421 30.4696 66.0451 30.4784 66.048L30.4793 66.0483C30.4882 66.0512 30.4971 66.0541 30.506 66.057L30.5068 66.0573C30.5159 66.0602 30.5247 66.0631 30.5338 66.066L30.5342 66.0662C30.5478 66.0706 30.5615 66.075 30.5752 66.0794H30.5752C30.5843 66.0823 30.5932 66.0852 30.6022 66.088L30.6032 66.0884C30.6121 66.0912 30.6211 66.0941 30.63 66.0969L30.6306 66.097C30.6397 66.0999 30.6487 66.1027 30.6578 66.1056L30.658 66.1057L30.6714 66.1099L30.6718 66.11C30.681 66.1129 30.6901 66.1157 30.6993 66.1186H30.6995C30.7085 66.1213 30.7177 66.1242 30.7268 66.127L30.7273 66.1272C30.7365 66.13 30.7456 66.1328 30.7547 66.1356H30.7548C30.7778 66.1426 30.8008 66.1495 30.8239 66.1564L30.8243 66.1565C30.8335 66.1593 30.8425 66.162 30.8518 66.1646C30.8522 66.1647 30.8517 66.1646 30.8522 66.1647C30.8614 66.1675 30.8704 66.1702 30.8797 66.1728C30.8802 66.1729 30.8795 66.1728 30.8799 66.1729L30.8936 66.177H30.8937C30.9028 66.1797 30.9121 66.1824 30.9212 66.185L30.9217 66.1852C30.9309 66.1879 30.9397 66.1904 30.9489 66.1931L30.9498 66.1933C30.959 66.196 30.9679 66.1985 30.9771 66.2011L30.9776 66.2013C30.9867 66.2039 30.9961 66.2066 31.0052 66.2092L31.0054 66.2092C31.0286 66.2158 31.0517 66.2223 31.075 66.2288L31.0755 66.2289C31.0848 66.2315 31.0939 66.234 31.1032 66.2366H31.1033L31.1172 66.2404H31.1174C31.1267 66.243 31.136 66.2455 31.1453 66.248H31.1454C31.1546 66.2505 31.1639 66.253 31.1732 66.2555L31.1738 66.2557C31.183 66.2582 31.1922 66.2606 31.2015 66.2631L31.2017 66.2632C31.2111 66.2657 31.2203 66.2681 31.2296 66.2706L31.2299 66.2707L31.2438 66.2744H31.2439C31.2531 66.2768 31.2624 66.2792 31.2716 66.2816L31.2723 66.2818C31.2815 66.2842 31.2907 66.2866 31.3 66.289L31.3005 66.289C31.3097 66.2915 31.3192 66.2939 31.3284 66.2962H31.3285C31.3518 66.3022 31.3755 66.3082 31.3988 66.314L31.3993 66.3141C31.4087 66.3165 31.4178 66.3187 31.4272 66.3211L31.4276 66.3212C31.437 66.3235 31.4462 66.3258 31.4557 66.3281H31.4558C31.4794 66.3339 31.5029 66.3396 31.5266 66.3453H31.5268C31.5362 66.3476 31.5454 66.3498 31.5549 66.3521L31.5553 66.3522L31.5691 66.3554H31.5694C31.5788 66.3577 31.5881 66.3599 31.5976 66.3621L31.5978 66.3622C31.6071 66.3644 31.6163 66.3665 31.6256 66.3687L31.6266 66.3689C31.6359 66.3711 31.6449 66.3732 31.6541 66.3752L31.6552 66.3755C31.6645 66.3777 31.6737 66.3797 31.6831 66.3819H31.6833C31.6974 66.3851 31.7116 66.3883 31.7256 66.3914L31.7263 66.3916L31.7542 66.3978L31.7549 66.398C31.7641 66.4001 31.7737 66.4021 31.7829 66.4041L31.7835 66.4043C31.7929 66.4064 31.8023 66.4084 31.8117 66.4104H31.8119L31.8259 66.4135L31.8263 66.4135C31.8357 66.4155 31.8449 66.4175 31.8543 66.4195L31.8552 66.4197C31.8645 66.4217 31.8739 66.4237 31.8832 66.4256L31.884 66.4257C31.8933 66.4277 31.9028 66.4297 31.9121 66.4316L31.9127 66.4317C31.9269 66.4346 31.9411 66.4376 31.9554 66.4405H31.9555C31.965 66.4425 31.9744 66.4444 31.984 66.4463L31.9845 66.4464C31.994 66.4483 32.0033 66.4502 32.013 66.4521H32.0131C32.0275 66.455 32.0418 66.4578 32.0562 66.4607H32.0563L32.0848 66.4662L32.0855 66.4664C32.0948 66.4682 32.1043 66.47 32.1136 66.4718L32.1144 66.472C32.1237 66.4738 32.1333 66.4756 32.1427 66.4774L32.1433 66.4774C32.1574 66.4801 32.1718 66.4828 32.1858 66.4855L32.1865 66.4857C32.1958 66.4874 32.2051 66.4891 32.2145 66.4908L32.2158 66.4911C32.2252 66.4928 32.2343 66.4945 32.2437 66.4962L32.2449 66.4965L32.2585 66.4989H32.2588L32.273 66.5015L32.2737 66.5016L32.2871 66.5041L32.288 66.5042C32.2972 66.5059 32.3068 66.5076 32.3159 66.5092L32.3171 66.5094C32.3264 66.5111 32.3358 66.5127 32.345 66.5143L32.3464 66.5145C32.3556 66.5162 32.3648 66.5177 32.3741 66.5193L32.3757 66.5195L32.389 66.5218L32.3894 66.5219L32.4037 66.5243L32.404 66.5244L32.4177 66.5267L32.4188 66.5269C32.428 66.5284 32.4374 66.53 32.4467 66.5316L32.4483 66.5318C32.4575 66.5334 32.4668 66.5348 32.4761 66.5364L32.4775 66.5367L32.4911 66.5389L32.4914 66.539L32.5055 66.5412L32.5065 66.5414L32.5199 66.5436L32.5208 66.5438L32.5351 66.546H32.5352L32.5487 66.5482L32.5504 66.5484C32.5595 66.5499 32.569 66.5514 32.5781 66.5527L32.5798 66.553C32.589 66.5545 32.5983 66.5559 32.6076 66.5573L32.6091 66.5576L32.6226 66.5597H32.6229L32.6372 66.5618L32.6378 66.5619L32.6513 66.5639L32.6526 66.5641L32.6667 66.5661H32.667L32.6803 66.5681L32.6823 66.5684C32.6915 66.5698 32.7005 66.5711 32.7097 66.5724L32.712 66.5727L32.725 66.5746L32.7256 66.5747L32.7394 66.5767L32.7414 66.577L32.7537 66.5787L32.7554 66.5789L32.7693 66.5809L32.7701 66.581L32.7831 66.5828L32.785 66.5831C32.7943 66.5844 32.8035 66.5857 32.8126 66.5869L32.8146 66.5872C32.8238 66.5884 32.8329 66.5897 32.8421 66.5909L32.8442 66.5911L32.8571 66.5929L32.8579 66.5929L32.872 66.5948L32.8732 66.595L32.8862 66.5967L32.8876 66.5969L32.9017 66.5988H32.902L32.9154 66.6006L32.9174 66.6008C32.9266 66.602 32.9358 66.6031 32.945 66.6044L32.9471 66.6046L32.9606 66.6063H32.9608L32.9749 66.6081L32.9766 66.6083L32.9892 66.6099L32.991 66.6101L33.0048 66.6118L33.0061 66.612L33.0185 66.6135L33.0211 66.6138C33.0302 66.6149 33.0394 66.616 33.0484 66.6171L33.0508 66.6173C33.0599 66.6185 33.0689 66.6195 33.078 66.6205L33.081 66.6209L33.0931 66.6223L33.0944 66.6224L33.1081 66.624L33.1102 66.6242L33.1223 66.6256L33.1243 66.6259L33.1382 66.6274L33.1392 66.6275L33.1519 66.6289L33.1544 66.6292C33.1635 66.6302 33.1725 66.6312 33.1815 66.6322L33.1846 66.6325L33.1965 66.6338L33.1981 66.634L33.2115 66.6355L33.2142 66.6357L33.2262 66.637L33.2281 66.6372L33.2418 66.6387L33.2435 66.6389L33.2556 66.6401L33.258 66.6403C33.2672 66.6413 33.2765 66.6422 33.2856 66.6432L33.288 66.6434C33.2972 66.6444 33.3062 66.6453 33.3155 66.6462L33.3178 66.6465L33.3306 66.6478L33.3316 66.6478L33.3455 66.6492L33.3475 66.6494L33.3598 66.6506L33.3618 66.6508L33.3756 66.6521L33.3771 66.6523L33.3895 66.6535L33.3919 66.6537C33.4011 66.6546 33.4101 66.6554 33.4192 66.6562L33.4221 66.6565L33.4349 66.6576L33.4357 66.6577L33.4494 66.6589L33.4521 66.6592L33.4645 66.6603L33.4659 66.6604L33.4799 66.6616L33.4815 66.6618L33.4938 66.6628L33.4964 66.6631L33.5102 66.6643H33.5104L33.5237 66.6654L33.5265 66.6657C33.5355 66.6664 33.5448 66.6671 33.5538 66.6679L33.5569 66.6682L33.569 66.6691L33.5704 66.6692L33.5841 66.6703L33.5867 66.6705L33.5984 66.6714L33.6008 66.6715L33.6143 66.6726L33.6164 66.6727L33.6283 66.6736L33.6309 66.6738L33.6446 66.6748L33.6454 66.6749L33.6581 66.6759L33.6615 66.6761L33.6736 66.677L33.6751 66.6771L33.6885 66.678L33.6916 66.6783L33.703 66.6791L33.7055 66.6792L33.719 66.6802L33.7215 66.6804L33.7328 66.6811L33.7361 66.6814L33.7495 66.6823L33.751 66.6823L33.7632 66.6831L33.7663 66.6833C33.7754 66.6839 33.7842 66.6844 33.7934 66.685L33.7966 66.6852L33.8088 66.686L33.8102 66.6861L33.8239 66.6869L33.8268 66.6871L33.8383 66.6878L33.8408 66.688L33.8543 66.6887L33.8569 66.6889L33.8682 66.6896L33.8714 66.6898L33.885 66.6906H33.8858L33.8986 66.6912L33.9017 66.6914L33.9143 66.6921L33.9155 66.6922L33.9291 66.6929L33.932 66.6931L33.9439 66.6937L33.9459 66.6938L33.9596 66.6944L33.9621 66.6945L33.9737 66.6951L33.9765 66.6953L33.9902 66.696L33.9919 66.6961L34.0039 66.6967L34.0072 66.6969L34.0207 66.6975H34.0212L34.0342 66.6981L34.0378 66.6982L34.0498 66.6988L34.0512 66.6989L34.0647 66.6995L34.0682 66.6996L34.0792 66.7001L34.0821 66.7002L34.0954 66.7007L34.0984 66.7008L34.1093 66.7012L34.1127 66.7014L34.1261 66.7019L34.1279 66.702L34.1398 66.7024L34.1433 66.7026L34.1552 66.703L34.157 66.7031L34.1701 66.7035L34.1739 66.7037L34.1845 66.704L34.1877 66.7041L34.2007 66.7046L34.2044 66.7046L34.2148 66.705L34.2183 66.7051L34.2315 66.7055L34.2342 66.7056L34.2453 66.7059L34.249 66.706L34.2623 66.7064H34.2634L34.2758 66.7067L34.2797 66.7068L34.2919 66.7072H34.293L34.3068 66.7075L34.3099 66.7076L34.3214 66.7078L34.3239 66.7079L34.3373 66.7083L34.3405 66.7084L34.3514 66.7086L34.3547 66.7087L34.3681 66.709H34.3702L34.3819 66.7092L34.3855 66.7093L34.3981 66.7096H34.3993L34.4125 66.7098L34.4163 66.7099L34.4275 66.7101H34.43L34.4435 66.7103L34.4466 66.7104L34.4577 66.7105H34.461L34.4745 66.7107H34.4765L34.4883 66.7109H34.4917L34.5052 66.711H34.5066L34.5188 66.7111H34.5228L34.5344 66.7112H34.5363L34.5497 66.7113H34.5532L34.5646 66.7114H34.5672L34.5805 66.7115H34.584H34.5946H34.5981H34.6114H34.6141H34.6253H34.629H34.6425L34.6456 66.7108Z" fill="#FFB800"/>
<path d="M34.6457 63.0219C39.8211 63.0219 44.0166 58.8929 44.0166 53.7995C44.0166 48.7061 39.8211 44.5771 34.6457 44.5771C29.4702 44.5771 25.2747 48.7061 25.2747 53.7995C25.2747 58.8929 29.4702 63.0219 34.6457 63.0219Z" fill="#FFE152"/>
<path d="M25.2747 55.6983C24.2388 55.6983 23.4006 54.9265 23.4006 53.9079V53.7998C23.4074 47.6908 28.438 42.74 34.6455 42.7333C37.1792 42.7243 39.6402 43.5658 41.6223 45.119C42.4339 45.7517 42.5708 46.9122 41.9279 47.7109C41.285 48.5097 40.1059 48.6444 39.2943 48.0117C37.9739 46.9763 36.3338 46.4156 34.6455 46.4222C30.5071 46.4265 27.1533 49.7271 27.1489 53.7998C27.1489 54.8184 26.3107 55.6983 25.2747 55.6983Z" fill="#FFEE9D"/>
<path d="M37.4567 51.9554H31.8342C31.3167 51.9554 30.8971 51.5424 30.8971 51.0331C30.8971 50.5238 31.3167 50.1109 31.8342 50.1109H38.3938C39.4288 50.1103 40.2674 49.284 40.2667 48.2654C40.2661 47.2476 39.4279 46.4227 38.3938 46.4221H31.8342C29.2466 46.4221 27.1489 48.4865 27.1489 51.0331C27.1489 53.5797 29.2466 55.6441 31.8342 55.6441H37.4567C37.9742 55.6441 38.3938 56.0571 38.3938 56.5664C38.3938 57.0757 37.9742 57.4886 37.4567 57.4886H30.8971C29.8621 57.4886 29.023 58.3144 29.023 59.333C29.023 60.3516 29.8621 61.1774 30.8971 61.1774H37.4567C40.0443 61.1774 42.142 59.113 42.142 56.5664C42.142 54.0198 40.0443 51.9554 37.4567 51.9554Z" fill="#FFF7D2"/>
<path d="M3.6442 72.2452H68.022C68.6928 72.2452 69.2368 72.7894 69.2368 73.4604V79.5358H2.42944V73.4604C2.42944 72.7894 2.9734 72.2452 3.6442 72.2452V72.2452Z" fill="#005EEE"/>
<path d="M69.2369 30.9318H1.21476C0.543954 30.9318 6.28011e-07 30.3877 6.28011e-07 29.7166V23.3213C-0.000536875 22.7901 0.344003 22.3202 0.850331 22.161L34.146 11.8255C34.8496 11.6067 35.6021 11.6067 36.3057 11.8255L69.6013 22.161C70.1076 22.3202 70.4521 22.7901 70.4516 23.3213V29.7166C70.4516 30.3877 69.9077 30.9318 69.2369 30.9318Z" fill="#079CFF"/>
<path d="M6.07324 25.2275L34.8614 16.6904C35.0957 16.6178 35.3462 16.6178 35.5806 16.6904L64.926 25.2275H6.07324Z" fill="#0784FF"/>
<path d="M1.21476 77.1053H69.2369C69.9077 77.1053 70.4516 77.6495 70.4516 78.3205V80.7509C70.4516 81.4219 69.9077 81.9661 69.2369 81.9661H1.21476C0.543953 81.9661 0 81.4219 0 80.7509V78.3205C0 77.6495 0.543953 77.1053 1.21476 77.1053Z" fill="#079CFF"/>
<path opacity="0.24" d="M51.1778 25.2275H64.5388C65.4186 25.2275 66.1319 25.9411 66.1319 26.8212C66.1319 27.7013 65.4186 28.4148 64.5388 28.4148H51.1778C50.298 28.4148 49.5847 27.7013 49.5847 26.8212C49.5847 25.9411 50.2978 25.2275 51.1778 25.2275Z" fill="white"/>
<g filter="url(#filter0_d)">
<path fill-rule="evenodd" clip-rule="evenodd" d="M65.9226 32.1633C72.5928 32.1633 78.0001 26.7541 78.0001 20.0816C78.0001 13.4091 72.5928 8 65.9226 8C59.2525 8 53.8452 13.4091 53.8452 20.0816C53.8452 26.7541 59.2525 32.1633 65.9226 32.1633Z" fill="white"/>
</g>
<path fill-rule="evenodd" clip-rule="evenodd" d="M70.326 20.7109H66.5518V24.4864H65.2937V20.7109H61.5195V19.4524H65.2937V15.6769H66.5518V19.4524H70.326V20.7109Z" fill="#1D1D1D"/>
<defs>
<filter id="filter0_d" x="41.8452" y="0" width="48.1548" height="48.1633" filterUnits="userSpaceOnUse" color-interpolation-filters="sRGB">
<feFlood flood-opacity="0" result="BackgroundImageFix"/>
<feColorMatrix in="SourceAlpha" type="matrix" values="0 0 0 0 0 0 0 0 0 0 0 0 0 0 0 0 0 0 127 0"/>
<feOffset dy="4"/>
<feGaussianBlur stdDeviation="6"/>
<feColorMatrix type="matrix" values="0 0 0 0 0 0 0 0 0 0 0 0 0 0 0 0 0 0 0.1 0"/>
<feBlend mode="normal" in2="BackgroundImageFix" result="effect1_dropShadow"/>
<feBlend mode="normal" in="SourceGraphic" in2="effect1_dropShadow" result="shape"/>
</filter>
</defs>
</svg>
