<svg width="232" height="212" viewBox="0 0 232 212" fill="none" xmlns="http://www.w3.org/2000/svg">
<path opacity="0.12" fill-rule="evenodd" clip-rule="evenodd" d="M154.526 139.461C192.924 139.461 224.051 108.241 224.051 69.7303C224.051 31.2193 192.924 0 154.526 0C116.128 0 85 31.2193 85 69.7303C85 108.241 116.128 139.461 154.526 139.461Z" fill="#FF3378"/>
<path opacity="0.5" fill-rule="evenodd" clip-rule="evenodd" d="M229.594 206.063C229.594 203.56 178.197 201.53 114.798 201.53C51.3969 201.53 0 203.56 0 206.063C0 208.565 51.3969 210.595 114.798 210.595C178.197 210.595 229.594 208.565 229.594 206.063Z" fill="#CEE5ED"/>
<path fill-rule="evenodd" clip-rule="evenodd" d="M227.757 145.854C231.535 141.839 232.471 136.567 229.844 134.08C227.219 131.594 222.025 132.834 218.245 136.85C214.465 140.867 211.774 148.005 214.401 150.491C217.027 152.977 223.977 149.871 227.757 145.854Z" fill="#198B20"/>
<path fill-rule="evenodd" clip-rule="evenodd" d="M226.775 132.816C226.901 132.911 227.027 133.003 227.143 133.113C229.769 135.599 228.834 140.871 225.055 144.886C222.211 147.907 217.575 150.413 214.335 150.411C214.357 150.436 214.375 150.467 214.401 150.491C217.027 152.977 223.976 149.871 227.757 145.854C231.535 141.839 232.47 136.567 229.844 134.08C229.029 133.309 227.967 132.897 226.775 132.816Z" fill="black" fill-opacity="0.24"/>
<path fill-rule="evenodd" clip-rule="evenodd" d="M209.383 123.377C206.083 123.937 204.15 128.74 205.064 134.104C205.978 139.467 209.819 145.855 213.119 145.294C216.419 144.734 217.928 137.437 217.014 132.074C216.1 126.71 212.684 122.816 209.383 123.377Z" fill="#0DCC18"/>
<path fill-rule="evenodd" clip-rule="evenodd" d="M207.704 124.051C210.628 124.404 213.416 128 214.227 132.765C214.984 137.207 214.074 142.962 211.867 145.132C212.294 145.265 212.718 145.305 213.132 145.235C216.433 144.674 217.943 137.379 217.028 132.014C216.114 126.651 212.697 122.757 209.398 123.318C208.782 123.423 208.214 123.675 207.704 124.051Z" fill="black" fill-opacity="0.24"/>
<path fill-rule="evenodd" clip-rule="evenodd" d="M211.259 135.011C211.148 134.525 210.402 134.725 210.514 135.21C212.064 141.984 213.377 148.94 213.088 155.914C213.067 156.412 213.839 156.416 213.86 155.92C214.152 148.881 212.824 141.845 211.259 135.011Z" fill="#1E394C"/>
<path fill-rule="evenodd" clip-rule="evenodd" d="M198.298 130.23C195.985 125.668 191.837 123.127 189.032 124.558C186.224 125.987 185.821 130.846 188.134 135.409C190.444 139.972 195.668 144.632 198.473 143.202C201.28 141.772 200.609 134.793 198.298 130.23Z" fill="#198B20"/>
<path fill-rule="evenodd" clip-rule="evenodd" d="M189.032 124.558C187.956 125.105 187.237 126.157 186.885 127.5C187.141 127.254 187.425 127.042 187.744 126.879C190.552 125.449 194.7 127.989 197.012 132.552C198.633 135.756 199.443 140.143 198.813 142.971C201.211 141.155 200.508 134.594 198.298 130.23C195.985 125.668 191.837 123.127 189.032 124.558Z" fill="black" fill-opacity="0.24"/>
<path fill-rule="evenodd" clip-rule="evenodd" d="M188.872 149.3C184.417 147.298 179.871 147.773 178.715 150.358C177.561 152.944 180.236 156.662 184.692 158.663C189.146 160.663 195.763 161.12 196.917 158.534C198.073 155.949 193.327 151.302 188.872 149.3Z" fill="#0DCC18"/>
<path fill-rule="evenodd" clip-rule="evenodd" d="M188.878 149.3C184.424 147.298 179.877 147.772 178.722 150.358C178.453 150.961 178.4 151.629 178.522 152.32C179.753 149.828 184.229 149.39 188.622 151.364C192.206 152.974 195.975 156.297 196.708 158.882C196.79 158.771 196.869 158.659 196.924 158.534C198.08 155.948 193.334 151.302 188.878 149.3Z" fill="black" fill-opacity="0.24"/>
<path fill-rule="evenodd" clip-rule="evenodd" d="M224.246 161.069C228.693 159.481 231.456 155.821 230.417 152.896C229.378 149.97 224.93 148.886 220.483 150.475C216.035 152.064 211.205 156.462 212.244 159.387C213.282 162.312 219.799 162.657 224.246 161.069Z" fill="#198B20"/>
<path fill-rule="evenodd" clip-rule="evenodd" d="M230.236 152.896C229.791 151.642 228.715 150.728 227.285 150.216C227.807 150.673 228.207 151.221 228.435 151.864C229.474 154.789 226.712 158.449 222.265 160.037C219.256 161.112 215.306 161.298 212.74 160.402C214.778 162.367 220.2 162.45 224.065 161.068C228.513 159.48 231.275 155.821 230.236 152.896Z" fill="black" fill-opacity="0.24"/>
<path fill-rule="evenodd" clip-rule="evenodd" d="M207.126 177.147C208.156 164.447 213.694 152.913 222.932 144.165C223.293 143.823 222.747 143.276 222.386 143.618C212.998 152.509 207.401 164.24 206.353 177.147C206.313 177.643 207.085 177.639 207.126 177.147Z" fill="#1E394C"/>
<path fill-rule="evenodd" clip-rule="evenodd" d="M207.849 179.34C208.166 163.684 203.264 148.666 193.756 136.24C193.459 135.851 192.789 136.236 193.089 136.631C202.519 148.953 207.391 163.809 207.077 179.34C207.068 179.837 207.838 179.837 207.849 179.34Z" fill="#1E394C"/>
<path fill-rule="evenodd" clip-rule="evenodd" d="M192.71 156.73C196.423 159.07 200.756 160.857 204.852 162.415C205.317 162.591 205.518 161.843 205.057 161.667C201.03 160.137 196.753 158.365 193.099 156.061C192.677 155.795 192.289 156.465 192.71 156.73Z" fill="#1E394C"/>
<path fill-rule="evenodd" clip-rule="evenodd" d="M222.302 157.341C218.585 158.897 214.785 160.171 210.88 161.168C210.4 161.291 210.604 162.037 211.087 161.915C214.988 160.917 218.79 159.643 222.508 158.087C222.959 157.898 222.761 157.149 222.302 157.341Z" fill="#1E394C"/>
<path fill-rule="evenodd" clip-rule="evenodd" d="M189.73 178.171L192.074 199.462C192.367 202.124 194.61 204.139 197.279 204.139H210.812C213.481 204.139 215.724 202.124 216.018 199.462L218.361 178.171C218.488 177.012 217.584 176 216.423 176H191.668C190.505 176 189.603 177.012 189.73 178.171Z" fill="#CEE5ED"/>
<path fill-rule="evenodd" clip-rule="evenodd" d="M224.367 176H215.785C216.947 176 217.851 177.013 217.724 178.172L215.379 199.462C215.086 202.124 212.844 204.138 210.173 204.138H218.756C221.427 204.138 223.669 202.124 223.962 199.462L226.306 178.172C226.434 177.013 225.53 176 224.367 176Z" fill="#AAC6CE"/>
<path fill-rule="evenodd" clip-rule="evenodd" d="M72.116 201.551H77.3389V151.532H72.116V201.551Z" fill="#AAC6CE"/>
<path fill-rule="evenodd" clip-rule="evenodd" d="M72.116 158.565H77.3389V151.534H72.116V158.565Z" fill="#85B0BA"/>
<path fill-rule="evenodd" clip-rule="evenodd" d="M97.44 201.569H53.6552C51.9851 201.569 50.6294 202.926 50.6294 204.6V206.16H100.467V204.6C100.467 202.926 99.1114 201.569 97.44 201.569Z" fill="#AAC6CE"/>
<path fill-rule="evenodd" clip-rule="evenodd" d="M62.3465 151.583H98.5372C85.3684 146.846 90.4624 102.226 92.8967 85.311C93.3877 81.9037 90.7434 78.8552 87.3052 78.8552L63.1995 78.8539C58.2653 78.8539 54.0849 82.4961 53.4109 87.3915C51.2962 102.759 47.9624 134.626 54.5655 146.964C56.0965 149.826 59.1042 151.583 62.3465 151.583Z" fill="#AAC6CE"/>
<mask id="mask0" mask-type="alpha" maskUnits="userSpaceOnUse" x="16" y="1" width="52" height="52">
<path fill-rule="evenodd" clip-rule="evenodd" d="M16.939 1.91626H67.6761V52.7321H16.939V1.91626Z" fill="white"/>
</mask>
<g mask="url(#mask0)">
<path fill-rule="evenodd" clip-rule="evenodd" d="M67.6761 27.3233C67.6761 13.2914 56.3191 1.91574 42.3075 1.91574C28.2959 1.91574 16.939 13.2914 16.939 27.3233C16.939 41.3564 28.2959 52.7321 42.3075 52.7321C56.3191 52.7321 67.6761 41.3564 67.6761 27.3233Z" fill="#FF3378"/>
</g>
<path fill-rule="evenodd" clip-rule="evenodd" d="M63.021 27.3233C63.021 15.8663 53.7478 6.57883 42.3084 6.57883C30.8677 6.57883 21.5945 15.8663 21.5945 27.3233C21.5945 38.7803 30.8677 48.069 42.3084 48.069C53.7478 48.069 63.021 38.7803 63.021 27.3233Z" fill="#CEE5ED"/>
<path fill-rule="evenodd" clip-rule="evenodd" d="M36.425 34.401C36.0951 34.401 35.7652 34.2745 35.5139 34.0229C35.01 33.5182 35.01 32.7025 35.5139 32.1979L40.9134 26.7888V12.5737C40.9134 11.8613 41.4907 11.2831 42.202 11.2831C42.9147 11.2831 43.4907 11.8613 43.4907 12.5737V27.3232C43.4907 27.6652 43.3554 27.9943 43.1131 28.2356L37.3361 34.0229C37.0848 34.2745 36.7549 34.401 36.425 34.401Z" fill="#3E8CCC"/>
<path fill-rule="evenodd" clip-rule="evenodd" d="M45.0062 26.9471C45.0062 25.3067 43.6789 23.976 42.0384 23.976C40.4006 23.976 39.0732 25.3067 39.0732 26.9471C39.0732 28.5875 40.4006 29.9194 42.0384 29.9194C43.6789 29.9194 45.0062 28.5875 45.0062 26.9471Z" fill="#1E394C"/>
<path fill-rule="evenodd" clip-rule="evenodd" d="M44.995 103.457C44.995 98.6748 41.6238 93.8839 37.464 93.8839C33.3055 93.8839 29.9331 98.6748 29.9331 103.457C29.9331 108.238 33.3055 112.114 37.464 112.114C41.6238 112.114 44.995 108.238 44.995 103.457Z" fill="#0DCC18"/>
<path opacity="0.24" fill-rule="evenodd" clip-rule="evenodd" d="M37.4645 93.8839C36.7944 93.8839 36.1488 94.0194 35.5315 94.2479C38.7519 95.4378 41.1294 99.4453 41.1294 103.457C41.1294 107.468 38.7519 110.833 35.5315 111.816C36.1488 112.005 36.7944 112.114 37.4645 112.114C41.6243 112.114 44.9954 108.238 44.9954 103.457C44.9954 98.6748 41.6243 93.8839 37.4645 93.8839Z" fill="black"/>
<path fill-rule="evenodd" clip-rule="evenodd" d="M28.8817 109.114L30.2322 121.352C30.401 122.881 31.691 124.039 33.2283 124.039H41.017C42.5531 124.039 43.8443 122.881 44.0131 121.352L45.3623 109.114C45.4371 108.448 44.9152 107.866 44.2464 107.866H29.9977C29.3288 107.866 28.8082 108.448 28.8817 109.114Z" fill="#CEE5ED"/>
<path fill-rule="evenodd" clip-rule="evenodd" d="M29.9979 109.694H44.2466C44.6873 109.694 45.0456 109.959 45.2286 110.322L45.3626 109.113C45.436 108.447 44.9154 107.865 44.2466 107.865H29.9979C29.3291 107.865 28.8085 108.447 28.8819 109.113L29.0147 110.322C29.2002 109.959 29.5572 109.694 29.9979 109.694Z" fill="#AAC6CE"/>
<path fill-rule="evenodd" clip-rule="evenodd" d="M44.246 107.866H39.3066C39.9754 107.866 40.496 108.448 40.4226 109.114L39.0721 121.352C38.9032 122.881 37.6133 124.039 36.0759 124.039H41.0166C42.554 124.039 43.844 122.881 44.0128 121.352L45.362 109.114C45.4368 108.448 44.9161 107.866 44.246 107.866Z" fill="#AAC6CE"/>
<path fill-rule="evenodd" clip-rule="evenodd" d="M106.649 194.168L106.139 197.706L108.824 201.149L115.641 197.808L116.379 194.572L107.895 193.288L106.649 194.168Z" fill="#F2BF75"/>
<path fill-rule="evenodd" clip-rule="evenodd" d="M112.15 205.551L112.854 204.678C112.982 204.518 113.225 204.514 113.357 204.672L114.065 205.502C114.351 205.837 114.771 206.027 115.212 206.019L131.046 205.75C131.347 205.44 131.427 204.908 131.073 204.551C128.752 202.204 116.261 198.15 115.641 197.808C115.02 197.465 111.199 200.439 106.138 197.706C106.138 197.706 105.318 201.675 105.199 204.247C105.151 205.298 105.979 206.177 107.028 206.16L111.047 206.09C111.476 206.083 111.881 205.886 112.15 205.551Z" fill="#1E394C"/>
<path fill-rule="evenodd" clip-rule="evenodd" d="M77.5914 134.402C77.5914 134.402 71.0167 141.682 83.0553 149.592C91.5025 155.14 98.1584 153.446 103.459 156.809C104.702 157.598 105.647 158.772 105.736 160.244L106.004 194.273L106.646 194.591C109.835 196.178 113.573 196.219 116.798 194.702L121.593 155.876C121.763 153.199 120.32 150.943 118.665 148.834C109.459 137.106 93.1597 133.132 89.0334 132.455C83.67 131.575 77.5914 134.402 77.5914 134.402Z" fill="#1E394C"/>
<path fill-rule="evenodd" clip-rule="evenodd" d="M80.4683 194.164L79.9077 197.694L82.5482 201.175L89.4077 197.927L90.1899 194.703L81.726 193.302L80.4683 194.164Z" fill="#F2BF75"/>
<path fill-rule="evenodd" clip-rule="evenodd" d="M85.8116 205.621L86.5281 204.758C86.6582 204.6 86.9018 204.6 87.032 204.759L87.7265 205.597C88.0088 205.938 88.4263 206.132 88.867 206.132L104.703 206.078C105.009 205.774 105.096 205.243 104.746 204.881C102.459 202.503 90.0255 198.278 89.4082 197.927C88.791 197.577 84.9302 200.496 79.9082 197.694C79.9082 197.694 79.0332 201.653 78.8799 204.224C78.8168 205.272 79.6325 206.163 80.6827 206.16L84.7021 206.145C85.1312 206.144 85.5371 205.953 85.8116 205.621Z" fill="#1E394C"/>
<path fill-rule="evenodd" clip-rule="evenodd" d="M57.6059 128.056C57.6059 128.056 49.6394 136.948 61.1587 146.992C69.2386 154.039 76.4899 151.025 81.5801 155.323C82.7734 156.331 83.5981 157.7 83.4796 159.26L79.8417 193.873L80.1162 194.051C83.294 196.116 87.3108 196.391 90.7373 194.777L99.7438 158.302C100.308 155.514 99.1136 152.934 97.678 150.481C89.6845 136.832 77.1329 128.697 72.8932 127.392C67.3842 125.695 57.6059 128.056 57.6059 128.056Z" fill="#1E394C"/>
<path fill-rule="evenodd" clip-rule="evenodd" d="M101.554 155.835C100.948 155.577 100.331 155.37 99.6993 155.189C99.3643 153.563 98.5653 151.989 97.6748 150.479C93.7186 143.716 88.6297 138.295 83.9893 134.41C86.8759 133.92 88.3449 133.3 89.1439 132.487C90.7302 132.745 93.9248 133.468 97.7908 134.836C101.708 141.392 101.695 152.04 101.554 155.835Z" fill="#0F2A3F"/>
<path fill-rule="evenodd" clip-rule="evenodd" d="M79.0539 80.997C79.0539 80.997 67.5655 79.4624 62.7898 88.4285C58.0153 97.3946 50.8851 132.543 57.1197 133.613C59.88 134.085 67.2421 135.941 75.398 135.343C86.6132 134.521 89.0514 133.487 89.8594 131.351L97.005 98.5962C97.1725 94.0906 95.1699 89.7553 91.581 87.032C85.8555 82.6865 79.0539 80.997 79.0539 80.997Z" fill="#CEE5ED"/>
<path fill-rule="evenodd" clip-rule="evenodd" d="M96.9592 95.7165C96.9592 95.7165 97.1087 115.443 103.301 116.638C109.494 117.834 125.981 117.46 125.981 117.46V123.736H90.6177L96.9592 95.7165Z" fill="#AAC6CE"/>
<path fill-rule="evenodd" clip-rule="evenodd" d="M88.3966 86.7677L89.7909 79.7905L80.7548 72.8985L79.0242 81.1225C79.0242 81.1225 81.8734 93.6817 88.3966 86.7677Z" fill="#EDB564"/>
<path fill-rule="evenodd" clip-rule="evenodd" d="M99.9228 66.4937C99.9228 66.4937 95.196 68.7975 88.2707 64.5706C88.2707 64.5706 86.665 67.463 82.0233 70.0455C82.0233 70.0455 79.6109 65.9968 78.223 69.0311C77.8029 69.95 77.6058 70.776 77.5851 71.5078C73.2385 65.8845 76.3042 58.4762 80.3558 54.483C84.1973 50.6924 92.5104 52.1999 97.7037 54.2907C103.217 56.5132 104.229 52.6464 104.229 52.6464C111.196 62.4746 99.9228 66.4937 99.9228 66.4937Z" fill="#1E394C"/>
<path fill-rule="evenodd" clip-rule="evenodd" d="M82.0212 70.0442C82.0212 70.0442 79.6102 65.9955 78.2223 69.0285C76.538 72.7094 78.4388 75.0184 80.7184 75.0184C80.7184 75.0184 82.529 84.591 91.3099 83.9135C100.092 83.2372 101.359 69.1137 99.9233 66.4924C99.9233 66.4924 95.1952 68.7975 88.2712 64.5681C88.2712 64.5681 86.6656 67.4643 82.0212 70.0442Z" fill="#F2BF75"/>
<path fill-rule="evenodd" clip-rule="evenodd" d="M158.138 92.4339H121.482C119.675 92.4339 118.118 93.7065 117.758 95.4798L112.877 119.435H157.294L161.863 97.0028C162.344 94.6422 160.542 92.4339 158.138 92.4339Z" fill="#CEE5ED"/>
<path fill-rule="evenodd" clip-rule="evenodd" d="M157.151 119.438H96.5725C95.5738 119.438 94.7632 120.249 94.7632 121.25V121.836C94.7632 122.838 95.5738 123.65 96.5725 123.65H157.151C158.151 123.65 158.96 122.838 158.96 121.836V121.25C158.96 120.249 158.151 119.438 157.151 119.438Z" fill="#80A9B2"/>
<path fill-rule="evenodd" clip-rule="evenodd" d="M157.151 119.438H112.392C113.391 119.438 114.2 120.25 114.2 121.25V121.837C114.2 122.837 113.391 123.649 112.392 123.649H157.151C158.151 123.649 158.96 122.837 158.96 121.837V121.25C158.96 120.25 158.151 119.438 157.151 119.438Z" fill="#AAC6CE"/>
<path fill-rule="evenodd" clip-rule="evenodd" d="M98.5258 118.153C91.3893 117.321 71.3686 115.275 67.9382 114.92C63.6096 114.471 73.0104 96.9869 74.0555 91.0087C75.0993 85.0317 70.549 84.8071 70.549 84.8071C67.9807 84.4858 65.1766 84.8071 62.79 88.4287C57.9047 95.8395 52.4614 117.507 55.3287 122.855C55.6663 123.482 56.3248 123.867 57.0362 123.867H98.5258V118.153Z" fill="#CEE5ED"/>
<path fill-rule="evenodd" clip-rule="evenodd" d="M98.5258 118.153C98.5258 118.153 72.75 116.377 67.192 115.629C62.8802 115.051 71.8673 97.1366 72.9111 91.1583C73.9562 85.1814 69.3312 85.4305 69.3312 85.4305C68.1714 85.2872 66.4987 85.4498 65.3054 85.8086C67.0309 84.6729 68.8389 84.5954 70.5516 84.8045C70.5516 84.8045 75.0992 85.0317 74.0554 91.0086C73.0103 96.9869 64.9536 114.098 67.6766 114.771C71.0258 115.598 91.3879 117.322 98.5258 118.153Z" fill="#AAC6CE"/>
<path fill-rule="evenodd" clip-rule="evenodd" d="M98.5259 123.961H108.141C108.862 123.961 109.296 123.161 108.903 122.556C108.003 121.17 106.581 119.212 105.539 118.88C104.918 118.683 100.242 118.857 98.5259 119.039V123.961Z" fill="#F2BF75"/>
<path fill-rule="evenodd" clip-rule="evenodd" d="M99.9229 66.4926C99.9229 66.4926 99.1342 66.8681 97.7463 67.0359C97.6291 67.6877 97.4203 68.9409 97.3069 70.1283C97.1458 71.8216 97.9912 77.0655 97.468 77.1055C96.9435 77.1455 95.8571 77.0655 95.8571 77.0655C95.8571 77.0655 95.0517 84.648 87.4809 83.4374C87.4087 83.427 87.352 83.4193 87.2837 83.4077C88.4306 83.8207 89.7553 84.0336 91.3095 83.9136C100.093 83.2373 101.358 69.1138 99.9229 66.4926Z" fill="#EDB564"/>
<path fill-rule="evenodd" clip-rule="evenodd" d="M183.4 123.886H25.4618C23.6886 123.886 22.2517 125.325 22.2517 127.101V128.143C22.2517 129.919 23.6886 131.359 25.4618 131.359H183.4C185.173 131.359 186.61 129.919 186.61 128.143V127.101C186.61 125.325 185.173 123.886 183.4 123.886Z" fill="#FF3378"/>
<path opacity="0.24" fill-rule="evenodd" clip-rule="evenodd" d="M183.4 123.886H25.4618C23.6886 123.886 22.2517 125.325 22.2517 127.101V128.143C22.2517 128.485 22.32 128.808 22.4179 129.117C22.8316 127.82 24.0301 126.875 25.4618 126.875H183.4C184.832 126.875 186.031 127.82 186.444 129.117C186.543 128.808 186.61 128.485 186.61 128.143V127.101C186.61 125.325 185.173 123.886 183.4 123.886Z" fill="white"/>
<path fill-rule="evenodd" clip-rule="evenodd" d="M75.3817 205.892H70.1034L33.3792 131.395H38.6588L75.3817 205.892Z" fill="#34648C"/>
<path fill-rule="evenodd" clip-rule="evenodd" d="M17.2649 205.892H22.5432L59.2675 131.395H53.9878L17.2649 205.892Z" fill="#34648C"/>
<path fill-rule="evenodd" clip-rule="evenodd" d="M189.081 205.892H183.802L147.078 131.395H152.358L189.081 205.892Z" fill="#34648C"/>
<path fill-rule="evenodd" clip-rule="evenodd" d="M130.964 205.892H136.242L172.966 131.395H167.687L130.964 205.892Z" fill="#34648C"/>
<path fill-rule="evenodd" clip-rule="evenodd" d="M40.1134 134.347L38.6585 131.395H33.3789L34.8338 134.347H40.1134Z" fill="#1A3651"/>
<path fill-rule="evenodd" clip-rule="evenodd" d="M57.8124 134.347L59.2673 131.395H53.9876L52.5327 134.347H57.8124Z" fill="#1A3651"/>
<path fill-rule="evenodd" clip-rule="evenodd" d="M153.812 134.347L152.358 131.395H147.078L148.533 134.347H153.812Z" fill="#1A3651"/>
<path fill-rule="evenodd" clip-rule="evenodd" d="M171.512 134.347L172.966 131.395H167.687L166.232 134.347H171.512Z" fill="#1A3651"/>
</svg>
