<svg width="118" height="120" viewBox="0 0 118 120" fill="none" xmlns="http://www.w3.org/2000/svg">
<path d="M59.7287 49.7663C44.2595 34.2985 27.2974 26.1814 21.841 31.636C21.2422 32.2632 20.8017 33.0239 20.5557 33.8554L20.4679 33.7676L15.2569 55.1231L10.0679 76.4148L3.91694 101.626L0.0231934 117.593L23.0764 108.869L52.3982 97.7743L75.7907 88.9227L75.7627 88.8948C76.5458 88.645 77.2623 88.2214 77.8583 87.6553C83.3147 82.1987 75.1979 65.236 59.7287 49.7663Z" fill="#FF3378"/>
<path d="M59.7286 49.7601C44.26 34.2909 27.2974 26.1735 21.8417 31.6294C16.386 37.0854 24.503 54.0485 39.9717 69.5177C55.4403 84.9869 72.4029 93.1043 77.8586 87.6483C83.3143 82.1924 75.1973 65.2293 59.7286 49.7601Z" fill="#D1E3EE"/>
<path opacity="0.12" d="M73.6672 89.6133C70.8741 89.6621 68.103 89.1123 65.5404 88.0006L46.4209 95.2355L17.089 106.32L1.36036 112.272L0.0231934 117.755L23.0764 109.031L52.3982 97.9359L73.8667 89.8128L73.6672 89.6133Z" fill="black"/>
<path d="M97.816 73.8462C97.577 73.8455 97.34 73.8028 97.1155 73.7205C86.9837 69.9246 76.0316 68.8604 65.3588 70.6349L58.2299 71.8224C57.1387 71.9781 56.1278 71.2197 55.9721 70.1285C55.8217 69.0742 56.5255 68.0875 57.5712 67.8866L64.7021 66.6891C76.0666 64.8008 87.7276 65.9332 98.5165 69.9723C99.5538 70.345 100.092 71.4881 99.7197 72.5255C99.4318 73.3268 98.6674 73.8572 97.816 73.8462Z" fill="#FFBF41"/>
<path d="M61.892 61.8711C60.7899 61.8646 59.9015 60.9657 59.908 59.8635C59.9125 59.1026 60.3491 58.4105 61.0339 58.079L102.945 38.1205C103.94 37.6465 105.131 38.0692 105.605 39.0646C106.079 40.06 105.657 41.251 104.661 41.725L62.7502 61.6835C62.4818 61.8089 62.1887 61.8731 61.892 61.8711Z" fill="#FFBF41"/>
<path d="M38.5535 57.8794C38.2903 57.8799 38.0296 57.8278 37.7871 57.7257C36.7698 57.3014 36.2891 56.1328 36.7134 55.1154V55.1152L39.6153 48.1517C44.0801 37.4827 45.1211 25.6902 42.595 14.404C42.336 13.3325 42.9949 12.2542 44.0661 11.9953C45.1376 11.7363 46.2158 12.3952 46.4747 13.4665C46.4805 13.4902 46.4857 13.5139 46.4907 13.5378C49.197 25.6279 48.0811 38.2601 43.2975 49.6885L40.3936 56.652C40.0838 57.3947 39.3583 57.8787 38.5535 57.8794Z" fill="#FFBF41"/>
<path d="M107.795 81.8296C109.999 81.8296 111.786 80.0424 111.786 77.8379C111.786 75.6333 109.999 73.8462 107.795 73.8462C105.59 73.8462 103.803 75.6333 103.803 77.8379C103.803 80.0424 105.59 81.8296 107.795 81.8296Z" fill="#D5557E"/>
<path d="M59.8963 25.9459C62.1008 25.9459 63.8879 24.1588 63.8879 21.9542C63.8879 19.7497 62.1008 17.9625 59.8963 17.9625C57.6919 17.9625 55.9048 19.7497 55.9048 21.9542C55.9048 24.1588 57.6919 25.9459 59.8963 25.9459Z" fill="#DD95C1"/>
<path d="M41.9344 7.98337C39.7298 7.98337 37.9429 6.19634 37.9429 3.99168C37.9429 1.78703 39.7298 0 41.9344 0C44.139 0 45.926 1.78703 45.926 3.99168C45.926 6.19634 44.139 7.98337 41.9344 7.98337Z" fill="#7FCCCB"/>
<path d="M97.8161 15.9668C96.7139 15.9668 95.8203 15.0731 95.8203 13.9709V11.9751C95.8203 10.8729 96.7139 9.97925 97.8161 9.97925C98.9182 9.97925 99.8119 10.8729 99.8119 11.9751V13.9709C99.8119 15.0731 98.9185 15.9668 97.8161 15.9668Z" fill="#2276BB"/>
<path d="M97.8161 5.98753C96.7139 5.98753 95.8203 5.09389 95.8203 3.99168V1.99584C95.8203 0.893638 96.7139 0 97.8161 0C98.9182 0 99.8119 0.893638 99.8119 1.99584V3.99168C99.8119 5.09389 98.9185 5.98753 97.8161 5.98753Z" fill="#2276BB"/>
<path d="M103.803 9.97923H101.808C100.705 9.97923 99.8118 9.08559 99.8118 7.98339C99.8118 6.88119 100.705 5.98755 101.808 5.98755H103.803C104.905 5.98755 105.799 6.88119 105.799 7.98339C105.799 9.08559 104.906 9.97923 103.803 9.97923Z" fill="#2276BB"/>
<path d="M93.8246 9.97923H91.8288C90.7266 9.97923 89.833 9.08559 89.833 7.98339C89.833 6.88119 90.7266 5.98755 91.8288 5.98755H93.8246C94.9267 5.98755 95.8203 6.88119 95.8203 7.98339C95.8203 9.08559 94.927 9.97923 93.8246 9.97923Z" fill="#2276BB"/>
<path d="M15.8656 57.8794C15.6421 57.0252 15.4425 56.163 15.2569 55.2848L10.0679 76.5764L10.467 81.4443C11.3369 91.8224 15.795 101.573 23.0743 109.021L52.3982 97.9359C52.2385 97.886 52.0729 97.8501 51.9132 97.7962C34.1321 91.1289 20.6924 76.2464 15.8656 57.8794Z" fill="white"/>
<path d="M52.3983 97.936C52.2386 97.8861 52.073 97.8501 51.9133 97.7963C49.9924 97.069 48.1109 96.241 46.2773 95.3154L19.8652 105.309C20.8666 106.607 21.9386 107.85 23.0764 109.031L52.3983 97.936Z" fill="#F6F6E7"/>
<path d="M83.8457 23.9082V33.9293H73.825V23.9082H83.8457Z" fill="#C9DA53"/>
<path d="M47.9218 59.8753C46.8196 59.8751 45.9263 58.9812 45.9265 57.879C45.9268 57.3136 46.1665 56.775 46.5866 56.3966L66.5443 38.434C67.3778 37.7127 68.6381 37.8038 69.3594 38.6373C70.0606 39.4476 69.9968 40.6671 69.2147 41.3998L49.257 59.3624C48.8907 59.6924 48.415 59.8751 47.9218 59.8753Z" fill="#FFBF41"/>
<path d="M105.799 51.8919C104.697 51.8919 103.803 50.9983 103.803 49.8961V47.9003C103.803 46.7981 104.697 45.9044 105.799 45.9044C106.901 45.9044 107.795 46.7981 107.795 47.9003V49.8961C107.795 50.9983 106.901 51.8919 105.799 51.8919Z" fill="#FFDB43"/>
<path d="M112.856 48.968C112.327 48.9695 111.818 48.7589 111.445 48.3832L110.034 46.9722C109.269 46.1793 109.29 44.9157 110.083 44.1501C110.856 43.4031 112.083 43.4031 112.856 44.1501L114.267 45.5611C115.047 46.3407 115.046 47.6044 114.267 48.3837C113.893 48.7577 113.385 48.968 112.856 48.968Z" fill="#FFDB43"/>
<path d="M115.778 41.9127H113.782C112.68 41.9127 111.786 41.0191 111.786 39.9169C111.786 38.8147 112.68 37.921 113.782 37.921H115.778C116.88 37.921 117.774 38.8147 117.774 39.9169C117.774 41.0191 116.88 41.9127 115.778 41.9127Z" fill="#FFDB43"/>
<path d="M111.445 36.2685C110.343 36.2682 109.45 35.3746 109.45 34.2721C109.45 33.743 109.66 33.2356 110.034 32.8616L111.445 31.4505C112.238 30.6846 113.501 30.7066 114.267 31.4994C115.014 32.2728 115.014 33.499 114.267 34.2726L112.856 35.6837C112.482 36.0579 111.975 36.2685 111.445 36.2685Z" fill="#FFDB43"/>
<path d="M105.799 33.9293C104.697 33.9293 103.803 33.0357 103.803 31.9335V29.9376C103.803 28.8354 104.697 27.9418 105.799 27.9418C106.901 27.9418 107.795 28.8354 107.795 29.9376V31.9335C107.795 33.0357 106.901 33.9293 105.799 33.9293Z" fill="#FFDB43"/>
<path d="M100.153 36.2684C99.6237 36.2684 99.1162 36.0579 98.742 35.6836L97.331 34.2726C96.5654 33.4797 96.5871 32.2161 97.3799 31.4505C98.1533 30.7035 99.3794 30.7035 100.153 31.4505L101.564 32.8615C102.343 33.6412 102.343 34.9048 101.564 35.6841C101.19 36.0581 100.682 36.2684 100.153 36.2684Z" fill="#FFDB43"/>
<path d="M10.0021 1.99585L13.0855 8.24483L19.9809 9.24674L14.9915 14.1106L16.169 20.9783L10.0021 17.7351L3.83512 20.9783L5.01262 14.1106L0.0231934 9.24674L6.91858 8.24483L10.0021 1.99585Z" fill="#FFDB43"/>
<path fill-rule="evenodd" clip-rule="evenodd" d="M111.024 100.042C114.008 101.862 116.194 104.743 117.143 108.107C118.166 111.67 117.721 115.494 115.908 118.727C115.891 118.758 115.874 118.789 115.856 118.819C115.294 119.767 114.069 120.08 113.121 119.517C112.173 118.955 111.861 117.731 112.423 116.783C114.279 113.53 114.109 109.503 111.986 106.418C111.955 108.203 111.512 109.957 110.691 111.542C108.541 115.391 103.678 116.77 99.8287 114.62C95.9792 112.471 94.6008 107.608 96.7503 103.758C98.5018 100.87 101.409 98.8732 104.733 98.2752C100.779 93.7836 95.4031 90.7863 89.5036 89.7849C88.4578 89.5841 87.7541 88.5974 87.9045 87.5431C88.0602 86.4519 89.071 85.6934 90.1622 85.8491C98.3414 87.225 105.591 91.9132 110.202 98.8081L111.024 100.042ZM101.787 111.16C103.717 112.225 106.145 111.524 107.21 109.594C108.416 107.434 108.326 103.359 106.641 102.419C106.334 102.257 105.99 102.178 105.643 102.187C103.403 102.482 101.417 103.775 100.239 105.704L100.221 105.736C99.1557 107.666 99.8567 110.094 101.787 111.16Z" fill="#2BB3CE"/>
</svg>
