<svg width="146" height="164" viewBox="0 0 146 164" fill="none" xmlns="http://www.w3.org/2000/svg">
<path opacity="0.12" fill-rule="evenodd" clip-rule="evenodd" d="M91.697 106.914C62.2586 106.914 38.394 82.9802 38.394 53.4568C38.394 23.9334 62.2586 0 91.697 0C121.135 0 145 23.9334 145 53.4568C145 82.9802 121.135 106.914 91.697 106.914Z" fill="#FF3378"/>
<path opacity="0.488049" fill-rule="evenodd" clip-rule="evenodd" d="M7.54733 159.899C7.54733 158.112 34.6643 156.662 68.114 156.662C101.565 156.662 128.681 158.112 128.681 159.899C128.681 161.686 101.565 163.136 68.114 163.136C34.6643 163.136 7.54733 161.686 7.54733 159.899Z" fill="#CEE5ED"/>
<path fill-rule="evenodd" clip-rule="evenodd" d="M77.4357 147.768L77 150.906L79.054 154L84.3912 151.112L85 148.246L78.4138 147L77.4357 147.768Z" fill="#F2BF75"/>
<path fill-rule="evenodd" clip-rule="evenodd" d="M80.7974 156.468L81.4157 155.724C81.5289 155.588 81.7387 155.588 81.8518 155.724L82.4527 156.448C82.6956 156.74 83.0572 156.909 83.4382 156.909L97.1262 156.863C97.3903 156.6 97.4657 156.143 97.1639 155.83C95.1856 153.78 84.4393 150.137 83.9056 149.836C83.3719 149.534 80.0355 152.051 75.6942 149.635C75.6942 149.635 74.9388 153.047 74.8063 155.263C74.752 156.168 75.4559 156.935 76.3641 156.932L79.8376 156.92C80.2085 156.919 80.56 156.754 80.7974 156.468Z" fill="#1E394C"/>
<path fill-rule="evenodd" clip-rule="evenodd" d="M54.2443 146.717L53.7612 149.759L56.0432 152.758L61.9726 149.959L62.6479 147.18L55.3319 145.972L54.2443 146.717Z" fill="#F2BF75"/>
<path fill-rule="evenodd" clip-rule="evenodd" d="M58.8635 156.591L59.4827 155.847C59.5959 155.711 59.8048 155.711 59.9179 155.848L60.5197 156.572C60.7617 156.864 61.1233 157.033 61.5043 157.032L75.1923 156.986C75.4573 156.723 75.5318 156.266 75.23 155.953C73.2517 153.903 62.5054 150.26 61.9717 149.959C61.438 149.657 58.1025 152.174 53.7603 149.759C53.7603 149.759 53.0049 153.17 52.8724 155.386C52.8181 156.291 53.522 157.058 54.4302 157.055L57.9037 157.044C58.2746 157.042 58.6261 156.877 58.8635 156.591Z" fill="#1E394C"/>
<path fill-rule="evenodd" clip-rule="evenodd" d="M85.8089 48.2294L89.9753 64.1142L101.316 56.5545L106.447 60.6229L91.6398 74.4658L80.991 64.5985L85.8089 48.2294Z" fill="#CEE5ED"/>
<path fill-rule="evenodd" clip-rule="evenodd" d="M101.333 56.5586L104.633 50.054C104.994 49.3601 105.864 49.1111 106.538 49.509C108.368 50.5925 109.313 52.72 108.867 54.7969C108.418 56.8747 107.663 59.3312 106.447 60.6233L101.333 56.5586Z" fill="#F2BF75"/>
<path fill-rule="evenodd" clip-rule="evenodd" d="M105.412 44.0031L109.031 43.709C109.555 43.6659 109.891 44.0031 109.776 44.458L107.21 54.6129C107.095 55.0678 106.571 55.4749 106.046 55.5172L102.427 55.8122C101.584 55.8802 101.098 57.3727 101.682 55.0623L104.248 44.9074C104.363 44.4534 104.887 44.0463 105.412 44.0031Z" fill="#1E394C"/>
<path fill-rule="evenodd" clip-rule="evenodd" d="M101.318 56.585L100.56 54.1727C100.24 53.5597 100.427 52.8043 100.995 52.41L102.252 51.5379C102.628 51.2778 103.139 51.3413 103.439 51.685C103.779 52.0728 103.721 52.6664 103.313 52.9826L102.734 53.4301L102.144 53.8758L103.545 55.9886L101.318 56.585Z" fill="#F2BF75"/>
<path fill-rule="evenodd" clip-rule="evenodd" d="M54.2801 147.425C54.2801 143.875 57.6403 84.7979 57.6403 84.7979C57.6403 84.7979 65.9768 76.6932 70.5131 77.5516C75.0494 76.6932 85.3633 82.7016 85.3633 82.7016C85.3633 82.7016 84.3804 143.875 84.3804 147.425H76.0912C76.0912 147.425 74.487 120.787 70.6574 100.445C70.4862 99.5363 70.6292 99.4462 70.4581 100.356C66.6275 120.697 62.5702 147.425 62.5702 147.425H54.2801Z" fill="#1E394C"/>
<path fill-rule="evenodd" clip-rule="evenodd" d="M70.3249 38.6323C70.3249 38.6323 58.7265 41.4665 57.1218 43.3155C55.518 45.1636 49.4873 56.6869 49.5959 60.5687C49.722 65.1132 57.522 74.8141 57.3693 74.2471V87.9355C57.3693 87.9355 75.1363 93.4816 85.8716 86.7031C85.8716 86.7031 87.1019 51.547 85.625 47.6284C85.1705 46.4245 79.3322 41.3434 77.6051 40.7276C75.877 40.111 70.3249 38.6323 70.3249 38.6323Z" fill="#CEE5ED"/>
<path fill-rule="evenodd" clip-rule="evenodd" d="M49.5968 60.5684C49.7081 64.6202 55.9264 72.7763 57.1594 74.0886C57.1631 74.0923 57.1631 74.0923 57.1677 74.096C57.3002 74.1952 57.3701 74.2476 57.3701 74.2476L61.2872 77.76L66.0066 73.5078C66.0066 73.5078 57.3076 67.3156 58.5111 59.3663C59.3576 53.7733 65.1739 43.7471 65.1739 43.7471C67.1724 42.6195 69.1305 40.571 70.645 38.7183C70.4407 38.6632 70.3267 38.6338 70.3267 38.6338C70.3267 38.6338 58.7255 41.4652 57.1226 43.3142C55.5197 45.1623 49.49 56.6865 49.5968 60.5684Z" fill="#CEE5ED"/>
<path fill-rule="evenodd" clip-rule="evenodd" d="M89.4873 57.5897C91.8015 57.5897 93.6768 59.4626 93.6768 61.773V83.7645C93.6768 86.0758 91.8015 87.9487 89.4873 87.9487H51.2241C48.91 87.9487 47.0347 86.0758 47.0347 83.7645V61.773C47.0347 59.4626 48.91 57.5897 51.2241 57.5897H89.4873Z" fill="#FF3378"/>
<path opacity="0.24" fill-rule="evenodd" clip-rule="evenodd" d="M56.1743 57.5897C53.8611 57.5897 51.9858 59.4626 51.9858 61.773V83.7645C51.9858 86.0758 53.8611 87.9487 56.1743 87.9487H51.2239C48.9098 87.9487 47.0345 86.0758 47.0345 83.7645V61.773C47.0345 59.4626 48.9098 57.5897 51.2239 57.5897H56.1743Z" fill="black"/>
<path fill-rule="evenodd" clip-rule="evenodd" d="M93.6768 68.6111H47.0356V62.6257H93.6768V68.6111Z" fill="#1E394C"/>
<path fill-rule="evenodd" clip-rule="evenodd" d="M89.2471 77.2047H80.0622V75.9365H89.2471V77.2047Z" fill="#1E394C"/>
<path fill-rule="evenodd" clip-rule="evenodd" d="M89.2461 80.0352H84.8055V78.767H89.2461V80.0352Z" fill="#1E394C"/>
<path fill-rule="evenodd" clip-rule="evenodd" d="M69.7081 32.1936V40.4195C69.7081 40.4195 72.3922 48.6455 78.5921 42.1757L79.147 35.6132L69.7081 32.1936Z" fill="#EA9249"/>
<path fill-rule="evenodd" clip-rule="evenodd" d="M85.8102 25.7543C85.8102 25.7543 96.298 23.5359 89.8202 14.6014C89.8202 14.6014 88.7096 19.3462 83.0342 15.2796C80.1412 13.2073 75.8506 12.6881 71.065 15.2796C65.9444 18.0522 64.1556 26.5557 68.5364 30.9917L77.1112 29.2667L85.8102 25.7543Z" fill="#1E394C"/>
<path fill-rule="evenodd" clip-rule="evenodd" d="M85.8103 25.7543C85.8103 25.7543 87.0442 39.9877 77.6054 39.0641C70.2323 38.3418 70.5101 32.7791 70.5101 32.7791C70.5101 32.7791 68.104 32.2856 67.9807 30.1297C67.8574 27.9728 68.5364 26.1853 70.6951 27.6033C70.6951 27.6033 74.5201 25.1386 74.7676 23.4127C74.7676 23.4127 79.2708 25.8775 85.8103 25.7543Z" fill="#F2BF75"/>
<path fill-rule="evenodd" clip-rule="evenodd" d="M73.3681 86.9186C73.8438 87.505 73.6781 88.4405 72.9807 89.0048L71.3806 90.2996C70.684 90.863 69.7335 90.8308 69.2578 90.2445L64.2329 83.9971L69.0388 80.3055L74.2643 83.9916C74.6296 84.2535 74.6277 84.8086 74.2486 85.0494C74.026 85.1909 73.738 85.2837 73.3828 85.2286C72.3964 85.0742 71.9961 84.521 71.9961 84.521L73.3681 86.9186Z" fill="#F6BA8E"/>
<path fill-rule="evenodd" clip-rule="evenodd" d="M69.9473 80.3654L64.3362 84.8758C64.3362 84.8758 49.0941 68.0343 49.0315 61.5967C48.9965 57.9759 53.3994 49.2574 56.158 44.554H66.0357C66.0357 44.554 58.9884 55.1481 56.8619 60.2302C56.458 61.196 56.5776 62.2979 57.1711 63.1609C59.7438 66.9076 67.3451 77.8666 69.9473 80.3654Z" fill="#CEE5ED"/>
<path fill-rule="evenodd" clip-rule="evenodd" d="M56.1583 44.5538C56.1583 44.5538 50.5288 58.495 50.5555 61.2915C50.6098 66.8349 62.7888 80.0179 65.9302 83.5946L64.3365 84.8757C64.3365 84.8757 49.0943 68.0342 49.0318 61.5966C48.9968 57.9758 53.3997 49.2573 56.1583 44.5538Z" fill="#B4CCD3"/>
<path fill-rule="evenodd" clip-rule="evenodd" d="M58.3209 57.4763L58.6319 57.5866H84.0941L84.4419 57.4763L60.5062 56.8633C60.5062 56.8633 63.6145 48.2459 63.1268 48.4894C62.6308 48.7412 58.3209 57.4763 58.3209 57.4763Z" fill="#B4CCD3"/>
<path fill-rule="evenodd" clip-rule="evenodd" d="M81.6614 36.9882C82.668 35.9258 82.8115 34.03 82.8115 34.03C82.8115 34.03 83.9332 34.03 84.0767 33.8866C84.2203 33.7432 83.7317 29.809 83.8182 29.1189C83.8789 28.6336 84.1347 26.7359 84.2782 25.702C84.9214 25.7406 85.1183 25.7673 85.8103 25.7544C85.8103 25.7544 87.0442 39.9878 77.6045 39.0642C79.903 39.1001 80.6547 38.0506 81.6614 36.9882Z" fill="#EA9249"/>
<path fill-rule="evenodd" clip-rule="evenodd" d="M7.08657 117.43C4.18628 114.36 3.46765 110.331 5.4846 108.43C7.49971 106.53 11.4867 107.477 14.3879 110.548C17.2891 113.618 19.3548 119.074 17.3388 120.974C15.3228 122.875 9.98778 120.5 7.08657 117.43Z" fill="#198B20"/>
<path fill-rule="evenodd" clip-rule="evenodd" d="M5.48435 108.43C6.11005 107.84 6.9253 107.526 7.83992 107.463C7.74331 107.536 7.64669 107.607 7.55744 107.69C5.5414 109.591 6.25911 113.621 9.16032 116.69C11.3429 119 14.902 120.915 17.3892 120.913C17.3717 120.932 17.3579 120.956 17.3386 120.974C15.3225 122.875 9.98845 120.5 7.08632 117.43C4.18603 114.36 3.46832 110.331 5.48435 108.43Z" fill="black" fill-opacity="0.24"/>
<path fill-rule="evenodd" clip-rule="evenodd" d="M21.8367 105.611C21.4484 101.47 23.2077 97.9188 25.7666 97.6799C28.3246 97.44 30.7124 100.604 31.0997 104.745C31.488 108.886 29.9091 114.362 27.3511 114.601C24.7931 114.84 22.224 109.752 21.8367 105.611Z" fill="#0DCC18"/>
<path fill-rule="evenodd" clip-rule="evenodd" d="M25.7663 97.6796C26.2438 97.6355 26.7149 97.709 27.1676 97.8864C25.0697 98.7254 23.7171 101.932 24.0622 105.611C24.3833 109.04 26.2015 113.11 28.269 114.275C27.9792 114.458 27.6728 114.571 27.3517 114.601C24.7927 114.84 22.2237 109.752 21.8363 105.611C21.4489 101.47 23.2083 97.9186 25.7663 97.6796Z" fill="black" fill-opacity="0.24"/>
<path fill-rule="evenodd" clip-rule="evenodd" d="M34.2894 102.429C36.0644 98.9418 39.249 96.9999 41.4021 98.0935C43.5571 99.1862 43.8662 102.9 42.0913 106.388C40.3182 109.876 36.3082 113.438 34.1551 112.345C32.0001 111.252 32.5154 105.917 34.2894 102.429Z" fill="#198B20"/>
<path fill-rule="evenodd" clip-rule="evenodd" d="M34.2896 102.429C36.0646 98.9418 39.2492 96.9999 41.4023 98.0935C42.2277 98.5117 42.7798 99.3158 43.0503 100.342C42.8534 100.155 42.6353 99.9922 42.3906 99.8681C40.2356 98.7745 37.051 100.716 35.2769 104.204C34.032 106.653 33.4109 110.006 33.894 112.169C32.0537 110.78 32.5929 105.765 34.2896 102.429Z" fill="black" fill-opacity="0.24"/>
<path fill-rule="evenodd" clip-rule="evenodd" d="M37.7163 117.006C41.1356 115.476 44.6257 115.839 45.5127 117.815C46.3988 119.792 44.345 122.634 40.9249 124.163C37.5056 125.693 32.4264 126.042 31.5403 124.065C30.6533 122.089 34.2962 118.536 37.7163 117.006Z" fill="#0DCC18"/>
<path fill-rule="evenodd" clip-rule="evenodd" d="M37.7166 117.006C41.1358 115.476 44.6259 115.838 45.5129 117.815C45.719 118.276 45.7595 118.786 45.6666 119.315C44.7216 117.41 41.2858 117.075 37.9135 118.584C35.1623 119.815 32.2693 122.355 31.7062 124.331C31.6436 124.246 31.5829 124.161 31.5406 124.065C30.6536 122.088 34.2964 118.536 37.7166 117.006Z" fill="black" fill-opacity="0.24"/>
<path fill-rule="evenodd" clip-rule="evenodd" d="M6.14967 129.06C2.73594 127.846 0.615009 125.049 1.41277 122.813C2.21054 120.576 5.62427 119.748 9.038 120.962C12.4526 122.177 16.1599 125.538 15.3621 127.774C14.5653 130.01 9.5634 130.274 6.14967 129.06Z" fill="#198B20"/>
<path fill-rule="evenodd" clip-rule="evenodd" d="M1.41237 122.812C1.75466 121.854 2.58003 121.155 3.67776 120.764C3.2775 121.113 2.97017 121.532 2.79535 122.024C1.99758 124.26 4.11759 127.057 7.53132 128.271C9.84088 129.093 12.8727 129.235 14.8428 128.551C13.2785 130.052 9.11673 130.116 6.14927 129.06C2.73554 127.846 0.615528 125.048 1.41237 122.812Z" fill="black" fill-opacity="0.24"/>
<path fill-rule="evenodd" clip-rule="evenodd" d="M23.9083 141.35C23.1179 131.642 18.8668 122.826 11.7753 116.139C11.4983 115.877 11.9179 115.459 12.1949 115.721C19.4015 122.517 23.6976 131.484 24.5018 141.35C24.5322 141.729 23.9396 141.727 23.9083 141.35Z" fill="#1E394C"/>
<path fill-rule="evenodd" clip-rule="evenodd" d="M26.0636 139.969C25.8207 128.002 29.5832 116.521 36.8818 107.024C37.1099 106.726 37.6243 107.02 37.3934 107.322C30.1555 116.741 26.4151 128.097 26.6562 139.969C26.6636 140.349 26.0719 140.349 26.0636 139.969Z" fill="#1E394C"/>
<path fill-rule="evenodd" clip-rule="evenodd" d="M28.5674 122.593C26.9526 117.454 26.5394 111.996 26.3416 106.641C26.3278 106.26 26.9204 106.26 26.9342 106.641C27.1302 111.949 27.5387 117.344 29.1388 122.436C29.2529 122.8 28.6815 122.955 28.5674 122.593Z" fill="#1E394C"/>
<path fill-rule="evenodd" clip-rule="evenodd" d="M37.7721 121.603C34.9215 123.392 31.5961 124.758 28.4519 125.949C28.0949 126.083 27.9403 125.512 28.2946 125.377C31.3853 124.208 34.6684 122.853 37.473 121.092C37.7969 120.889 38.095 121.401 37.7721 121.603Z" fill="#1E394C"/>
<path fill-rule="evenodd" clip-rule="evenodd" d="M12.5375 126.211C15.3909 127.4 18.3077 128.374 21.3046 129.136C21.6736 129.23 21.5172 129.8 21.1464 129.707C18.1513 128.944 15.2335 127.971 12.3793 126.78C12.0333 126.636 12.1851 126.064 12.5375 126.211Z" fill="#1E394C"/>
<path fill-rule="evenodd" clip-rule="evenodd" d="M35.9933 138.6L34.1935 154.875C33.969 156.909 32.2474 158.449 30.1982 158.449H19.8107C17.7616 158.449 16.04 156.909 15.8145 154.875L14.0157 138.6C13.9181 137.714 14.6119 136.94 15.5035 136.94H34.5054C35.3979 136.94 36.0908 137.714 35.9933 138.6Z" fill="#CEE5ED"/>
<path fill-rule="evenodd" clip-rule="evenodd" d="M15.5035 136.941H22.0917C21.1992 136.941 20.5054 137.714 20.6029 138.6L22.4027 154.875C22.6282 156.909 24.3488 158.449 26.3989 158.449H19.8107C17.7606 158.449 16.04 156.909 15.8145 154.875L14.0156 138.6C13.9172 137.714 14.611 136.941 15.5035 136.941Z" fill="#AAC6CE"/>
</svg>
