<svg width="181" height="251" viewBox="0 0 181 251" fill="none" xmlns="http://www.w3.org/2000/svg">
<path opacity="0.5" fill-rule="evenodd" clip-rule="evenodd" d="M155.538 245.363C155.833 237.216 121.74 222.962 79.3917 213.526C37.0437 204.088 2.47637 203.041 2.18205 211.188C1.88903 219.334 35.9806 233.588 78.3285 243.024C120.677 252.461 155.244 253.509 155.538 245.363Z" fill="#CEE5ED"/>
<path fill-rule="evenodd" clip-rule="evenodd" d="M115.905 154.727C109.34 152.082 104 144.049 104 136.82V14.1627C104 6.93438 109.34 3.20555 115.905 5.85124L164.095 25.2728C170.659 27.9185 176 35.9527 176 43.181L175.999 165.837C175.999 173.066 170.659 176.794 164.095 174.149L115.905 154.727Z" fill="#17161C"/>
<path fill-rule="evenodd" clip-rule="evenodd" d="M116.566 158.653C109.637 155.868 104 147.41 104 139.798V10.6477C104 3.03555 109.637 -0.889579 116.566 1.89671L167.434 22.3467C174.362 25.1317 180 33.5902 180 41.2024V170.352C180 177.963 174.362 181.89 167.434 179.103L116.566 158.653Z" fill="#1E394C"/>
<path fill-rule="evenodd" clip-rule="evenodd" d="M115.388 150.1C111.314 148.463 108 143.494 108 139.021V16.6683C108 12.1965 111.314 9.88949 115.388 11.527L163.612 30.9004C167.686 32.5367 171 37.506 171 41.9791V164.332C171 168.804 167.685 171.111 163.612 169.473L115.388 150.1Z" fill="#FF3378"/>
<path fill-rule="evenodd" clip-rule="evenodd" d="M163.637 29.9711L115.575 10.5268C112.7 9.36455 110.213 10.1908 109 12.3623C110.294 11.6423 111.977 11.5645 113.822 12.3104L161.884 31.7547C165.944 33.3982 169.247 38.3858 169.247 42.8739V165.674C169.247 166.986 168.959 168.104 168.458 169C170.012 168.135 171 166.34 171 163.891V41.0903C171 36.6022 167.697 31.6146 163.637 29.9711Z" fill="#34648C"/>
<path fill-rule="evenodd" clip-rule="evenodd" d="M158 26.7565L122 12L123.602 16.8302C124.328 19.0243 125.993 20.9365 127.835 21.6908L152.166 31.6648C154.007 32.4204 155.672 31.8738 156.4 30.2753L158 26.7565Z" fill="#1E394C"/>
<path fill-rule="evenodd" clip-rule="evenodd" d="M160.69 46.1525L116.311 28.3088C113.93 27.3513 112 28.6949 112 31.3108V53.3784C112 55.9943 113.93 58.8901 116.311 59.8463L160.69 77.6914C163.07 78.6488 165 77.304 165 74.6893V52.6217C165 50.0058 163.07 47.11 160.69 46.1525Z" fill="white"/>
<path fill-rule="evenodd" clip-rule="evenodd" d="M160.69 85.1525L116.311 67.3088C113.93 66.3513 112 67.6949 112 70.3108V92.3784C112 94.9943 113.93 97.8901 116.311 98.8463L160.69 116.691C163.07 117.649 165 116.304 165 113.689V91.6217C165 89.0058 163.07 86.11 160.69 85.1525Z" fill="white"/>
<path fill-rule="evenodd" clip-rule="evenodd" d="M160.69 124.153L116.311 106.309C113.93 105.351 112 106.695 112 109.311V131.378C112 133.994 113.93 136.89 116.311 137.848L160.69 155.691C163.07 156.649 165 155.304 165 152.689V130.622C165 128.006 163.07 125.11 160.69 124.153Z" fill="white"/>
<path fill-rule="evenodd" clip-rule="evenodd" d="M147.072 50.9608L131.929 45.0636C131.419 44.8652 131 45.1466 131 45.6907C131 46.2336 131.419 46.8409 131.929 47.0392L147.072 52.9364C147.582 53.1347 148 52.8534 148 52.3105C148 51.7664 147.582 51.1591 147.072 50.9608Z" fill="#1E394C"/>
<path fill-rule="evenodd" clip-rule="evenodd" d="M147.072 61.9598L131.929 56.0641C131.419 55.8645 131 56.1471 131 56.6899C131 57.234 131.419 57.8401 131.929 58.0396L147.072 63.9366C147.582 64.1349 148 63.8523 148 63.3095C148 62.7666 147.582 62.1593 147.072 61.9598Z" fill="#1E394C"/>
<path fill-rule="evenodd" clip-rule="evenodd" d="M152.069 58.9374L126.932 49.0648C126.419 48.863 126 49.1488 126 49.6977C126 50.2479 126.419 50.8621 126.932 51.0626L152.069 60.9352C152.581 61.137 153 60.8512 153 60.3023C153 59.7521 152.581 59.1392 152.069 58.9374Z" fill="#1E394C"/>
<path fill-rule="evenodd" clip-rule="evenodd" d="M147.072 91.9608L131.929 86.0636C131.419 85.8652 131 86.1466 131 86.6907C131 87.2336 131.419 87.8409 131.929 88.0392L147.072 93.9364C147.582 94.1347 148 93.8534 148 93.3105C148 92.7664 147.582 92.1591 147.072 91.9608Z" fill="#1E394C"/>
<path fill-rule="evenodd" clip-rule="evenodd" d="M152.069 99.9374L126.932 90.0648C126.419 89.863 126 90.1488 126 90.6977C126 91.2479 126.419 91.8621 126.932 92.0626L152.069 101.935C152.581 102.137 153 101.851 153 101.302C153 100.752 152.581 100.139 152.069 99.9374Z" fill="#1E394C"/>
<path fill-rule="evenodd" clip-rule="evenodd" d="M147.071 128.961L131.928 123.064C131.418 122.865 131 123.147 131 123.691C131 124.234 131.418 124.841 131.928 125.039L147.071 130.936C147.581 131.135 148 130.853 148 130.311C148 129.766 147.581 129.159 147.071 128.961Z" fill="#1E394C"/>
<path fill-rule="evenodd" clip-rule="evenodd" d="M147.071 139.96L131.928 134.064C131.418 133.865 131 134.147 131 134.691C131 135.234 131.418 135.841 131.928 136.04L147.071 141.936C147.581 142.135 148 141.853 148 141.31C148 140.766 147.581 140.16 147.071 139.96Z" fill="#1E394C"/>
<path fill-rule="evenodd" clip-rule="evenodd" d="M152.069 136.937L126.932 127.065C126.419 126.863 126 127.149 126 127.698C126 128.247 126.419 128.862 126.932 129.063L152.069 138.935C152.581 139.137 153 138.851 153 138.302C153 137.752 152.581 137.139 152.069 136.937Z" fill="#1E394C"/>
<path fill-rule="evenodd" clip-rule="evenodd" d="M103.976 224.848C103.976 224.848 101.424 223.933 101.096 218.311H93.6371L92.9175 226.025L98.4797 230.666L103.321 228.247L103.976 224.848Z" fill="#F2BF75"/>
<path fill-rule="evenodd" clip-rule="evenodd" d="M103.976 224.849C103.976 224.849 120.057 230.834 119.94 232.618C119.756 235.445 106.233 234.178 102.64 234.275L100.967 232.332L99.8543 234.275H92.5249C92.5249 233.203 92.591 226.483 92.9178 226.025C92.9178 226.025 101.62 228.902 103.976 224.849Z" fill="#1E394C"/>
<path fill-rule="evenodd" clip-rule="evenodd" d="M76.1384 224.909C76.1384 224.909 73.6308 223.878 73.5634 218.246L66.1121 217.905L65.0386 225.578L70.3804 230.469L75.328 228.274L76.1384 224.909Z" fill="#F2BF75"/>
<path fill-rule="evenodd" clip-rule="evenodd" d="M76.1385 224.909C76.1385 224.909 90.2113 229.973 91.0203 232.3C91.8307 234.628 78.1978 234.134 74.5657 234.134L72.7675 232.248L71.5215 234.134L64.2012 233.799C64.2012 233.799 64.69 226.019 65.0387 225.577C65.0387 225.577 73.5999 228.849 76.1385 224.909Z" fill="#1E394C"/>
<path fill-rule="evenodd" clip-rule="evenodd" d="M60.0063 136.601C60.0063 136.601 64.8477 156.211 66.0262 159.48C67.2035 162.748 69.6903 178.698 69.8212 179.221C69.9522 179.744 65.3252 220.796 65.3252 220.796C65.3252 220.796 70.9152 222.494 73.9245 220.533L83.1692 179.09V138.3L60.0063 136.601Z" fill="#1E394C"/>
<path fill-rule="evenodd" clip-rule="evenodd" d="M59.0059 136.486C61.6447 142.353 66.4649 149.234 73.1383 154.92C79.8129 160.608 90.1038 174.972 90.1038 174.972L93.0853 220.468C96.2878 222.412 97.2798 222.514 100.578 220.737L101.079 220.468C101.079 220.468 103.256 173.207 103.059 170.07C102.863 166.931 86.1778 130.848 86.1778 130.848L59.0059 136.486Z" fill="#1E394C"/>
<path fill-rule="evenodd" clip-rule="evenodd" d="M89.9078 52.0134C89.9078 52.0134 84.0681 72.6131 74.6953 72.0159C66.4843 71.4939 64.9569 62.9874 66.9419 52.503C69.0022 41.6196 77.9989 43.0574 83.2344 42.9926C83.2344 42.9926 89.712 42.9926 90.7907 37.9913C90.7907 37.9913 98.3483 48.288 89.9078 52.0134Z" fill="#1E394C"/>
<path fill-rule="evenodd" clip-rule="evenodd" d="M75.0192 77.1256C75.0192 77.1256 63.5926 75.1023 58.3053 99.4702C56.0856 109.701 67.7274 125.75 67.7274 125.75L79.8968 102.347L75.0192 77.1256Z" fill="#AAC6CE"/>
<path fill-rule="evenodd" clip-rule="evenodd" d="M122.983 63.2894C122.983 63.2894 127.302 51.4254 127.302 48.1896C127.302 44.9539 129.755 47.7972 129.656 50.2492C129.559 52.7 128.97 55.4448 128.97 55.4448C128.97 55.4448 132.306 55.7389 132.306 57.3075C132.306 58.8775 131.226 64.3684 129.656 65.2505L122.983 63.2894Z" fill="#F2BF75"/>
<path fill-rule="evenodd" clip-rule="evenodd" d="M81.3694 78.7821C88.9581 82.6824 105.218 92.9013 108.948 89.5671C112.677 86.2342 122.982 63.2899 122.982 63.2899L129.657 65.251C129.657 65.251 115.392 103.491 111.172 103.394C106.952 103.295 92.5911 100.517 92.5911 100.517C92.5911 100.517 91.2816 127.514 87.3556 134.966C87.3556 134.966 68.0214 141.928 58.0107 136.241C58.0107 136.241 66.2529 125.66 64.0955 110.061C61.8382 93.7342 66.2062 70.9868 81.3694 78.7821Z" fill="#CEE5ED"/>
<path fill-rule="evenodd" clip-rule="evenodd" d="M89.9078 52.0133C89.9078 52.0133 90.5949 55.6416 91.675 57.3074C92.7537 58.9758 95.1095 60.6416 95.1095 60.6416L93.2451 62.9952C93.2451 62.9952 94.6181 71.231 85.8833 72.8009L85.0003 80.9395L75.0882 77.6053L74.6953 72.0159C74.6953 72.0159 76.3147 70.3009 76.4132 68.4861C76.4132 68.4861 74.4503 66.5742 75.0882 64.319C75.7261 62.0639 77.7383 60.3475 78.6705 61.1817C79.6028 62.0146 79.7 63.6817 79.7 63.6817H80.9771C80.9771 63.6817 80.7528 59.9486 81.5165 58.3864C82.5472 56.2789 85.1974 53.0924 89.9078 52.0133Z" fill="#F2BF75"/>
<path fill-rule="evenodd" clip-rule="evenodd" d="M85.001 80.939L85.884 72.8004C94.6189 71.2317 93.2445 62.9947 93.2445 62.9947L95.1103 60.6424C95.1103 60.6424 92.7544 58.9753 91.6744 57.3082C90.5944 55.6411 89.9085 52.0128 89.9085 52.0128C89.5104 52.1048 89.1487 52.2291 88.7805 52.3483C89.4041 54.0646 90.2923 56.8911 90.4971 59.5582C90.8213 63.768 90.1548 68.5258 84.2568 72.1061C82.2575 73.3211 81.5341 76.6177 81.3149 79.6993L85.001 80.939Z" fill="#FFD291"/>
<path fill-rule="evenodd" clip-rule="evenodd" d="M79.85 161.342C74.3186 160.271 68.9182 156.792 64.6955 153.326C62.9942 147.639 60.776 139.85 60.1499 137.658C60.7895 137.886 61.0087 138.764 61.687 138.893C64.026 142.641 68.9947 150.184 73.3566 153.995C75.2251 155.636 77.2852 158.203 79.2413 160.942L79.85 161.342Z" fill="#0F2A3F"/>
<path opacity="0.04" fill-rule="evenodd" clip-rule="evenodd" d="M173.844 216.592C174.148 213.488 162.299 206.619 147.378 201.253C132.457 195.884 120.115 194.048 119.811 197.152C119.506 200.255 131.355 207.123 146.276 212.491C161.198 217.859 173.539 219.695 173.844 216.592Z" fill="black"/>
<path fill-rule="evenodd" clip-rule="evenodd" d="M28.117 156.021C28.117 156.021 32.7042 116.052 16.1408 122.289C-0.923127 128.714 20.4726 155.131 28.117 156.021Z" fill="#198B20"/>
<path fill-rule="evenodd" clip-rule="evenodd" d="M23.5937 180.143C23.5937 180.143 18.5722 140.142 4.00544 151.215C-9.18179 161.24 13.8476 177.183 23.5937 180.143Z" fill="#0DCC18"/>
<path fill-rule="evenodd" clip-rule="evenodd" d="M12.8182 165.134C19.4773 174.365 25.9535 183.745 28.0202 195.162C28.1292 195.767 29.0549 195.511 28.9447 194.906C26.865 183.419 20.3589 173.955 13.6467 164.649C13.2888 164.155 12.4564 164.633 12.8182 165.134Z" fill="#1E394C"/>
<path fill-rule="evenodd" clip-rule="evenodd" d="M36.2713 147.493C36.2713 147.493 30.2826 118.088 45.4457 120.762C60.6076 123.434 40.0936 146.092 36.2713 147.493Z" fill="#0DCC18"/>
<path fill-rule="evenodd" clip-rule="evenodd" d="M37.6731 175.879C36.9017 176.393 36.1445 151.056 46.8462 151.947C57.5492 152.838 52.5809 165.95 37.6731 175.879Z" fill="#198B20"/>
<path fill-rule="evenodd" clip-rule="evenodd" d="M32.9914 173.834C31.8258 158.932 38.022 142.143 43.802 128.567C44.0406 128.006 43.2147 127.518 42.9735 128.084C37.0976 141.883 30.843 158.628 32.0319 173.834C32.0786 174.445 33.0394 174.45 32.9914 173.834Z" fill="#1E394C"/>
<path fill-rule="evenodd" clip-rule="evenodd" d="M34.3543 192.752C33.5842 175.274 32.0426 157.528 22.242 142.498C21.9061 141.984 21.0751 142.463 21.4135 142.983C31.1311 157.886 32.6299 175.427 33.3949 192.752C33.4221 193.367 34.3816 193.37 34.3543 192.752Z" fill="#1E394C"/>
<path fill-rule="evenodd" clip-rule="evenodd" d="M36.605 191.987C37.0005 182.791 37.6125 173.609 42.6781 165.629C43.01 165.107 42.1789 164.625 41.8496 165.146C36.7101 173.241 36.0462 182.646 35.6456 191.987C35.6184 192.605 36.5778 192.603 36.605 191.987Z" fill="#1E394C"/>
<path fill-rule="evenodd" clip-rule="evenodd" d="M19.729 190.077L22.2196 212.609C22.5308 215.424 24.9139 217.556 27.7507 217.556H42.1256C44.9625 217.556 47.3442 215.424 47.6567 212.609L50.1461 190.077C50.2822 188.851 49.3215 187.78 48.0871 187.78H21.7879C20.5536 187.78 19.5941 188.851 19.729 190.077Z" fill="#CEE5ED"/>
<path fill-rule="evenodd" clip-rule="evenodd" d="M48.087 187.78H38.9684C40.2027 187.78 41.1634 188.851 41.0286 190.076L38.5379 212.609C38.2268 215.425 35.8437 217.555 33.0068 217.555H42.1255C44.9623 217.555 47.3441 215.425 47.6553 212.609L50.146 190.076C50.2821 188.851 49.3213 187.78 48.087 187.78Z" fill="#AAC6CE"/>
<path fill-rule="evenodd" clip-rule="evenodd" d="M22.486 152.938C24.6266 154.703 26.6323 155.848 28.1169 156.021C28.1169 156.021 32.6691 116.321 16.2949 122.242C20.6695 127.712 30.0085 141.633 22.486 152.938Z" fill="black" fill-opacity="0.24"/>
<path fill-rule="evenodd" clip-rule="evenodd" d="M47.7692 152.062C48.1348 157.097 48.0843 170.402 37.3372 169.602C37.1569 173.297 37.4137 176.052 37.673 175.878C52.1308 166.249 57.2392 153.627 47.7692 152.062Z" fill="black" fill-opacity="0.24"/>
<path fill-rule="evenodd" clip-rule="evenodd" d="M46.172 120.931C46.5052 126.144 46.4274 140.602 35.2861 140.021C35.6142 144.249 36.2715 147.492 36.2715 147.492C40.0276 146.116 59.8791 124.224 46.172 120.931Z" fill="black" fill-opacity="0.24"/>
<path fill-rule="evenodd" clip-rule="evenodd" d="M23.5947 180.143C23.5947 180.143 18.5732 140.142 4.0051 151.215C3.54223 151.568 3.13381 151.929 2.75781 152.294C7.30871 153.863 22.3137 160.428 17.4153 177.436C19.7076 178.675 21.8625 179.617 23.5947 180.143Z" fill="black" fill-opacity="0.24"/>
</svg>
