<svg width="375" height="172" viewBox="0 0 375 172" fill="none" xmlns="http://www.w3.org/2000/svg">
<g filter="url(#filter0_d)">
<path fill-rule="evenodd" clip-rule="evenodd" d="M45 24C33.9543 24 25 32.9543 25 44V92C25 103.046 33.9543 112 45 112H330C341.046 112 350 103.046 350 92V44C350 32.9543 341.046 24 330 24H45Z" fill="#FF3378"/>
</g>
<path d="M323.816 42.0693L317.873 54.2228C316.415 57.2058 315.657 60.4823 315.657 63.8032C315.657 68.9825 313.813 73.9932 310.456 77.9376L306.643 82.4189L262.585 38.3612L267.066 34.5479C271.011 31.1908 276.021 29.3472 281.201 29.3472H283.368C287.388 29.3472 291.33 28.2362 294.758 26.1366L302.173 21.5956C308.267 18.1134 315.937 19.1402 320.901 24.1033C325.638 28.8405 326.812 36.0776 323.816 42.0693Z" fill="#FFD700"/>
<path d="M310.812 57.0776C308.237 57.0807 306.103 59.0756 305.927 61.6448C305.878 62.3621 305.854 63.0811 305.854 63.8028C305.853 64.7298 305.746 65.6534 305.534 66.5555C304.912 69.1901 306.543 71.8304 309.178 72.4522C311.813 73.074 314.453 71.4423 315.075 68.8073C315.077 68.7964 315.08 68.785 315.083 68.7741L315.083 68.7707L315.087 68.755C315.091 68.7366 315.096 68.7179 315.1 68.6991L315.1 68.6983C315.38 67.4826 315.555 66.2446 315.624 64.9989V64.9984C315.624 64.9932 315.624 64.9888 315.624 64.984L315.625 64.9827C315.625 64.9631 315.627 64.9435 315.628 64.9239V64.9221C315.628 64.9073 315.629 64.8925 315.63 64.8776H315.63L315.631 64.8654V64.8602L315.632 64.8484V64.8441C315.632 64.831 315.633 64.8183 315.633 64.8053L315.634 64.8005L315.634 64.7887L315.635 64.783C315.635 64.7704 315.635 64.7582 315.636 64.7455L315.636 64.7398L315.637 64.7289L315.637 64.7228L315.638 64.7119V64.7071L315.638 64.6862L315.639 64.6797C315.639 64.6766 315.639 64.6727 315.639 64.6696L315.64 64.6618L315.641 64.6435L315.641 64.6282L315.642 64.6195V64.6099L315.642 64.6025L315.642 64.5925L315.643 64.5846L315.643 64.568C315.644 64.5654 315.644 64.5624 315.644 64.5598C315.644 64.5567 315.644 64.5532 315.644 64.5502L315.645 64.5419V64.5327C315.645 64.5297 315.645 64.5271 315.645 64.5244L315.645 64.5079L315.646 64.4996L315.646 64.4896C315.646 64.4869 315.646 64.4848 315.646 64.4821L315.647 64.4725L315.647 64.4643C315.647 64.4612 315.647 64.4582 315.647 64.4551L315.648 64.4468C315.648 64.4412 315.648 64.4355 315.648 64.4298C315.648 64.4272 315.648 64.4246 315.649 64.422V64.4128C315.649 64.4098 315.649 64.4071 315.649 64.4041C315.649 64.401 315.649 64.398 315.649 64.3949L315.649 64.3853C315.649 64.3805 315.65 64.3762 315.65 64.3718L315.65 64.3618V64.3531C315.65 64.35 315.651 64.347 315.651 64.3439C315.651 64.3413 315.651 64.3382 315.651 64.3352C315.651 64.3317 315.651 64.3287 315.651 64.3252L315.652 64.3147V64.3012L315.652 64.2942C315.652 64.2907 315.652 64.2868 315.652 64.2833L315.652 64.2759L315.653 64.2641V64.258C315.653 64.2523 315.653 64.2467 315.653 64.2414V64.2345C315.653 64.2305 315.654 64.2271 315.654 64.2231V64.2162L315.654 64.2044V64.1978L315.655 64.1808V64.1756C315.655 64.1712 315.655 64.1669 315.655 64.1625L315.655 64.1564C315.655 64.1521 315.655 64.1481 315.655 64.1442V64.1381L315.655 64.122V64.1159L315.656 64.1032V64.0845L315.656 64.0784C315.656 64.0731 315.656 64.0679 315.656 64.0631V64.06C315.656 64.0544 315.656 64.0487 315.657 64.043V64.0191C315.657 64.0138 315.657 64.009 315.657 64.0038V64.0007C315.657 63.9946 315.657 63.989 315.657 63.9829V63.9776L315.658 63.9654V63.9585C315.658 63.9541 315.658 63.9497 315.658 63.9458V63.9406C315.658 63.9345 315.658 63.9288 315.658 63.9227V63.9188C315.658 63.914 315.658 63.9096 315.658 63.9048V63.8603C315.658 63.8551 315.658 63.8503 315.658 63.8451V63.7744C315.658 63.7696 315.658 63.7644 315.658 63.7596V63.7295C315.658 63.7247 315.659 63.7195 315.659 63.7147V63.7082C315.659 63.7012 315.659 63.6938 315.659 63.6868V63.6864C315.659 63.6789 315.659 63.672 315.659 63.6646V63.658C315.659 63.6532 315.659 63.648 315.659 63.6432C315.659 63.6406 315.659 63.638 315.659 63.6353C315.659 63.6305 315.659 63.6253 315.659 63.6205V63.6135C315.659 63.6083 315.659 63.6031 315.659 63.5978V63.5913C315.659 63.5769 315.659 63.5625 315.66 63.5477V63.542C315.66 63.5368 315.66 63.5316 315.66 63.5259C315.66 63.5237 315.66 63.5211 315.66 63.5189C315.66 63.5141 315.66 63.5093 315.66 63.5045C315.66 63.5015 315.66 63.4989 315.66 63.4962C315.66 63.4914 315.661 63.4862 315.661 63.4819V63.4749C315.661 63.46 315.661 63.4457 315.662 63.4308V63.426L315.662 63.4095V63.4025L315.662 63.3872V63.3803L315.663 63.3646V63.3585C315.663 63.3515 315.663 63.3445 315.663 63.3371V63.3366C315.664 63.3297 315.664 63.3223 315.664 63.3148V63.3087C315.664 63.3035 315.664 63.2983 315.664 63.293C315.664 63.2909 315.665 63.2882 315.665 63.2856L315.665 63.2712V63.2634C315.665 63.2586 315.666 63.2529 315.666 63.2481V63.242L315.666 63.222V63.2202L315.667 63.1984L315.667 63.1919C315.667 63.1871 315.667 63.1819 315.668 63.1771V63.1688C315.668 63.1644 315.668 63.1592 315.668 63.1544C315.668 63.1522 315.669 63.1496 315.669 63.147L315.669 63.1321V63.1252L315.67 63.1055V63.1038C315.67 63.0964 315.67 63.0894 315.67 63.082L315.671 63.0763C315.671 63.0711 315.671 63.0654 315.671 63.0602V63.0532L315.672 63.0384C315.672 63.0358 315.672 63.0332 315.672 63.0305L315.673 63.0157V63.0092C315.673 63.0026 315.673 62.9965 315.674 62.99V62.9874C315.674 62.98 315.674 62.973 315.675 62.9656V62.9595L315.676 62.9442V62.9359C315.676 62.9316 315.676 62.9268 315.676 62.9228C315.676 62.9198 315.676 62.9167 315.677 62.9137C315.677 62.9093 315.677 62.905 315.677 62.9006C315.677 62.8975 315.677 62.8949 315.678 62.8923C315.678 62.8866 315.678 62.8814 315.678 62.8757L315.679 62.8705L315.679 62.8496V62.8426L315.68 62.8278L315.681 62.8199C315.681 62.8151 315.681 62.8108 315.681 62.806C315.682 62.8034 315.682 62.8003 315.682 62.7973L315.683 62.7842C315.683 62.7816 315.683 62.7785 315.683 62.7759C315.683 62.7707 315.683 62.7654 315.683 62.7602L315.684 62.7541C315.684 62.7475 315.684 62.7401 315.685 62.7332L315.685 62.7257L315.686 62.7122L315.686 62.7026C315.687 62.6987 315.687 62.6944 315.687 62.6904C315.687 62.6874 315.687 62.6839 315.687 62.6808L315.688 62.6686L315.689 62.659C315.689 62.6551 315.689 62.6507 315.689 62.6468L315.689 62.635L315.691 62.6176L315.691 62.6076L315.692 62.5962L315.692 62.5853L315.693 62.5753C315.693 62.5714 315.693 62.5675 315.693 62.5635C315.693 62.5605 315.694 62.5574 315.694 62.5544C315.694 62.5505 315.694 62.5465 315.695 62.5422C315.695 62.5391 315.695 62.5361 315.695 62.533L315.696 62.5134C315.696 62.5095 315.697 62.5055 315.697 62.5016L315.697 62.4907L315.698 62.4803C315.698 62.4768 315.699 62.4728 315.699 62.4689L315.7 62.4589C315.7 62.455 315.7 62.4515 315.7 62.4475L315.701 62.438L315.701 62.4262L315.702 62.4166L315.703 62.3896L315.704 62.3856C315.704 62.3813 315.704 62.3773 315.705 62.373L315.705 62.3647C315.706 62.3603 315.706 62.3564 315.706 62.3521L315.707 62.3433C315.707 62.339 315.707 62.335 315.707 62.3311L315.708 62.322C315.708 62.3194 315.708 62.3167 315.708 62.3137C315.893 59.6132 313.854 57.2739 311.153 57.089C311.153 57.089 311.153 57.089 311.153 57.089C311.039 57.0811 310.926 57.0776 310.814 57.0776H310.812Z" fill="#FFBE00"/>
<path d="M320.293 27.8262C317.584 27.8266 315.387 30.0238 315.388 32.733C315.388 33.0997 315.429 33.4647 315.511 33.8218C315.809 35.1539 315.632 36.5488 315.01 37.7637L309.671 48.6818C308.481 51.1132 309.487 54.0491 311.918 55.2395C314.349 56.4295 317.285 55.4236 318.475 52.9922C318.476 52.9909 318.477 52.9895 318.477 52.9882C318.477 52.9882 323.658 42.3927 323.812 42.077V42.0766L323.815 42.0718L323.816 42.0696C323.819 42.0635 323.822 42.0574 323.825 42.0513L323.829 42.0448L323.834 42.033C323.836 42.0304 323.837 42.0278 323.838 42.0252L323.843 42.0147L323.848 42.0064L323.853 41.9959L323.866 41.9689L323.871 41.9589C323.872 41.9558 323.874 41.9528 323.875 41.9502L323.88 41.9406L323.884 41.9314L323.889 41.9218C323.89 41.9192 323.892 41.9157 323.894 41.9127C323.895 41.9096 323.896 41.907 323.897 41.9039L323.902 41.8943L323.905 41.8895L323.916 41.866L323.925 41.8477C323.926 41.8451 323.928 41.8425 323.929 41.8398C323.93 41.8359 323.932 41.8329 323.934 41.8289L323.943 41.8106L323.946 41.8028C323.948 41.7993 323.95 41.7954 323.952 41.7919L323.955 41.7849C323.957 41.7805 323.959 41.777 323.96 41.7731L323.963 41.7666L323.969 41.7548L323.972 41.7487C323.974 41.7448 323.976 41.74 323.978 41.7361L323.98 41.7317C323.99 41.7099 324 41.6885 324.01 41.6667L324.012 41.6641C324.014 41.6593 324.016 41.6554 324.018 41.6506L324.02 41.6458C324.023 41.641 324.024 41.6371 324.027 41.6323L324.029 41.6275L324.035 41.6144L324.037 41.6087C324.039 41.6044 324.041 41.6 324.044 41.5956L324.046 41.5909L324.052 41.5773L324.054 41.5725C324.056 41.5682 324.058 41.5634 324.06 41.559L324.062 41.5555C324.075 41.5272 324.088 41.4988 324.1 41.4705L324.101 41.4692L324.108 41.4539L324.109 41.4509C324.111 41.4461 324.113 41.4409 324.115 41.4361L324.117 41.4326L324.124 41.4177L324.126 41.4138L324.132 41.3994L324.133 41.3964L324.14 41.3811L324.141 41.3789C324.159 41.3379 324.177 41.2974 324.194 41.2564L324.194 41.2551C324.197 41.2494 324.199 41.2442 324.202 41.239L324.202 41.2368C324.205 41.2315 324.207 41.2259 324.209 41.2206L324.21 41.2189L324.217 41.2023L324.218 41.2019C325.005 39.3526 325.426 37.3677 325.458 35.358V35.3393C325.459 35.2895 325.459 35.2394 325.459 35.1901V35.1888C325.459 35.1827 325.459 35.1775 325.459 35.1714V35.1504C325.459 35.1443 325.459 35.1391 325.459 35.1334V35.1317C325.459 35.089 325.459 35.0458 325.459 35.0031V35.0009C325.459 34.9952 325.459 34.9904 325.459 34.9843V34.9817C325.459 34.9765 325.459 34.9712 325.459 34.9656V34.9625C325.459 34.9568 325.459 34.9516 325.459 34.9464V34.9442C325.459 34.9381 325.458 34.9329 325.458 34.9272V34.9254C325.458 34.8888 325.457 34.8518 325.456 34.8151V34.7977L325.456 34.7946V34.7794L325.455 34.775C325.455 34.7698 325.455 34.7654 325.455 34.7597V34.7563L325.455 34.7406V34.7366C325.455 34.7318 325.454 34.7266 325.454 34.7214V34.7179C325.454 34.7122 325.454 34.7074 325.454 34.7022V34.7C325.453 34.676 325.452 34.6529 325.452 34.6285V34.6268C325.451 34.6215 325.451 34.6163 325.451 34.6111L325.451 34.6071C325.451 34.6023 325.451 34.5971 325.45 34.5927V34.5879C325.45 34.5827 325.45 34.5784 325.45 34.5736L325.449 34.5683L325.449 34.5544V34.5487C325.448 34.5443 325.448 34.5395 325.448 34.5352L325.448 34.5295L325.448 34.5156V34.5112L325.447 34.4959V34.4951C325.446 34.4768 325.445 34.4584 325.445 34.4401V34.4397L325.444 34.4249V34.4201L325.443 34.407L325.443 34.4L325.442 34.3878L325.442 34.3808C325.442 34.3765 325.442 34.3725 325.442 34.3682L325.441 34.3612L325.44 34.349L325.44 34.342L325.439 34.3294L325.439 34.3224C325.439 34.318 325.438 34.3141 325.438 34.3097L325.438 34.3045C325.438 34.2997 325.438 34.2949 325.437 34.2901V34.2897C325.436 34.2718 325.435 34.2557 325.435 34.2378L325.434 34.2334C325.434 34.2291 325.434 34.2247 325.433 34.2204V34.2138L325.432 34.2012L325.432 34.1942L325.431 34.182L325.431 34.1746L325.43 34.1628L325.429 34.1545L325.429 34.1436C325.428 34.1406 325.428 34.1375 325.428 34.1349C325.428 34.1314 325.428 34.1275 325.428 34.1236L325.427 34.1153L325.426 34.1044L325.426 34.0956L325.425 34.0847V34.0821L325.423 34.0564C325.423 34.0534 325.423 34.0494 325.423 34.0464L325.422 34.0368C325.422 34.0337 325.421 34.0298 325.421 34.0268C325.421 34.0237 325.421 34.0202 325.421 34.0172C325.42 34.0137 325.42 34.0106 325.42 34.0071C325.42 34.0036 325.42 34.001 325.419 33.9975L325.418 33.9871L325.418 33.9779C325.418 33.9744 325.418 33.9705 325.417 33.9675C325.417 33.964 325.417 33.9613 325.417 33.9583L325.416 33.947L325.415 33.9387L325.414 33.9278L325.414 33.9186L325.413 33.9068L325.412 33.8994C325.412 33.8938 325.411 33.8881 325.411 33.8824L325.411 33.8798C325.41 33.8733 325.41 33.8663 325.409 33.8597V33.8563C325.408 33.851 325.408 33.8454 325.407 33.8401L325.407 33.834L325.406 33.8201L325.405 33.814L325.404 33.8L325.404 33.7939C325.403 33.7891 325.403 33.7847 325.402 33.7804L325.402 33.7738L325.401 33.7603L325.4 33.7534C325.4 33.749 325.399 33.7442 325.399 33.7398L325.398 33.7342L325.397 33.7189L325.397 33.7141C325.396 33.708 325.395 33.7015 325.395 33.6954V33.6945C325.394 33.681 325.392 33.667 325.391 33.6535C325.39 33.647 325.39 33.6404 325.389 33.6339L325.389 33.63L325.387 33.6138L325.387 33.609L325.385 33.5942L325.385 33.5885L325.384 33.5737L325.383 33.5689L325.382 33.5536L325.381 33.5488L325.38 33.5327L325.379 33.5292C325.379 33.5227 325.378 33.5161 325.377 33.51V33.5096C325.374 33.4821 325.371 33.4551 325.368 33.4281V33.4254C325.367 33.4198 325.367 33.4137 325.366 33.408V33.405C325.365 33.3988 325.364 33.3936 325.364 33.3879L325.363 33.3845C325.363 33.3788 325.362 33.3731 325.362 33.367L325.361 33.3644L325.359 33.3465V33.3443C325.358 33.3378 325.357 33.3313 325.356 33.3247C325.352 33.2837 325.347 33.2427 325.342 33.2018V33.2013C325.341 33.1948 325.34 33.1882 325.339 33.1817V33.1808C325.339 33.1738 325.338 33.1673 325.337 33.1608C325.272 32.6484 325.182 32.14 325.067 31.6359C324.557 29.4086 322.577 27.8288 320.293 27.8262Z" fill="#FFBE00"/>
<path d="M331.995 19.5447C331.995 23.1543 329.069 26.0802 325.459 26.0802C321.85 26.0802 318.924 23.1543 318.924 19.5447C318.924 15.9356 321.85 13.0093 325.459 13.0093C329.069 13.0093 331.995 15.9356 331.995 19.5447Z" fill="#FFD700"/>
<path d="M325.459 24.4464C325.459 25.3485 324.728 26.0802 323.825 26.0802C322.923 26.0802 322.192 25.3485 322.192 24.4464C322.192 23.5442 322.923 22.8125 323.825 22.8125C324.728 22.8125 325.459 23.5442 325.459 24.4464Z" fill="#FFBE00"/>
<path d="M328.727 19.5446C328.727 21.3494 327.264 22.8123 325.459 22.8123C323.654 22.8123 322.191 21.3494 322.191 19.5446C322.191 17.7398 323.654 16.2769 325.459 16.2769C327.264 16.2769 328.727 17.7398 328.727 19.5446Z" fill="white"/>
<path d="M319.601 22.1358L321.515 20.2216C322.417 19.3194 323.88 19.3194 324.782 20.2216C325.685 21.1242 325.685 22.5871 324.782 23.4893L322.869 25.4035C321.966 26.3057 320.503 26.3057 319.601 25.4035C318.698 24.5009 318.698 23.038 319.601 22.1358Z" fill="#FFEA21"/>
<path d="M281.958 32.6191C280.154 32.6183 278.689 34.0808 278.688 35.8856C278.688 37.1409 279.407 38.286 280.537 38.8311C285.305 41.129 290.195 44.6492 294.68 49.0114C295.974 50.2694 298.043 50.2407 299.301 48.9469C300.557 47.6549 300.53 45.5902 299.242 44.3314C294.899 40.1069 290.275 36.6534 285.678 34.1309L285.676 34.1296C285.665 34.1239 285.656 34.1191 285.646 34.1135L285.645 34.113C285.636 34.1082 285.627 34.103 285.618 34.0982L285.613 34.0956L285.587 34.0812L285.583 34.079C285.575 34.0742 285.566 34.0699 285.558 34.0651L285.551 34.0611L285.527 34.0485L285.52 34.0446L285.497 34.0324L285.487 34.0267C285.481 34.0232 285.472 34.0189 285.466 34.0154L285.457 34.0106L285.435 33.9984L285.426 33.9936L285.402 33.9809L285.396 33.9779C285.388 33.9731 285.38 33.9691 285.372 33.9643L285.364 33.9604L285.341 33.9482L285.332 33.9425C285.325 33.9395 285.318 33.9351 285.312 33.9321C285.307 33.9295 285.303 33.9273 285.299 33.9251L285.281 33.9151L285.266 33.9077L285.25 33.8989C285.244 33.8954 285.238 33.8924 285.232 33.8893L285.219 33.8819C285.213 33.8789 285.206 33.8754 285.2 33.8723L285.188 33.8654C285.181 33.8619 285.175 33.8588 285.169 33.8553L285.156 33.8488L285.138 33.8392L285.125 33.8322C285.119 33.8287 285.113 33.8257 285.106 33.8222L285.094 33.8157C285.088 33.8122 285.081 33.8087 285.075 33.8052L285.064 33.7995L285.043 33.7886L285.033 33.7834C285.026 33.7795 285.019 33.7755 285.012 33.7716L285.002 33.7668C284.995 33.7633 284.987 33.759 284.98 33.755L284.971 33.7507C284.964 33.7468 284.957 33.7428 284.949 33.7389L284.94 33.7341C284.932 33.7298 284.925 33.7263 284.917 33.7219L284.909 33.718L284.886 33.7058L284.876 33.7005C284.869 33.6966 284.862 33.6927 284.854 33.6888L284.845 33.684L284.821 33.6718L284.814 33.6678C284.806 33.6635 284.798 33.6595 284.79 33.6548L284.783 33.6517C284.774 33.6469 284.765 33.6425 284.757 33.6377L284.752 33.6351C284.743 33.6303 284.733 33.626 284.725 33.6212L284.72 33.619C284.712 33.6142 284.702 33.6094 284.693 33.605L284.688 33.6024L284.662 33.5885L284.657 33.5863C284.648 33.5815 284.64 33.5771 284.631 33.5723L284.626 33.5697L284.599 33.5558L284.595 33.554L284.568 33.5396L284.564 33.5379L284.536 33.5235L284.534 33.5222C284.524 33.517 284.514 33.5122 284.505 33.5074L284.502 33.5061C284.492 33.5008 284.484 33.4965 284.474 33.4912L284.471 33.4899C284.462 33.4851 284.452 33.4799 284.443 33.4751L284.439 33.4738C284.429 33.4686 284.42 33.4638 284.411 33.459L284.409 33.4581C284.399 33.4529 284.389 33.4481 284.379 33.4428L284.377 33.442C284.367 33.4367 284.357 33.4315 284.347 33.4267L284.346 33.4263L284.316 33.4106H284.315C284.002 33.2505 283.688 33.0953 283.375 32.9444C282.933 32.7303 282.449 32.6196 281.958 32.6191Z" fill="#FFEA21"/>
<path d="M295.34 49.6627C283.174 37.497 268.509 32.4371 262.585 38.3612C256.66 44.2858 261.72 58.9513 273.886 71.117C286.052 83.2832 300.717 88.3431 306.641 82.4185C312.566 76.4944 307.506 61.8288 295.34 49.6627Z" fill="#FFBE00"/>
<path d="M299.742 81.63C293.23 81.63 283.988 76.5959 276.195 68.8068C264.577 57.1861 260.917 44.652 264.896 40.6709C265.904 39.661 267.449 39.1504 269.485 39.1504C275.997 39.1504 285.239 44.1841 293.032 51.9736C304.65 63.5938 308.31 76.1284 304.331 80.1095C303.323 81.1194 301.778 81.63 299.742 81.63Z" fill="#FFA300"/>
<path d="M305.853 70.1933C305.853 74.7051 302.196 78.3626 297.684 78.3626C293.173 78.3626 289.515 74.7051 289.515 70.1933C289.515 65.682 293.173 62.0244 297.684 62.0244C302.196 62.0244 305.853 65.682 305.853 70.1933Z" fill="#F98B00"/>
<path d="M286.025 59.0037C292.22 65.196 299.31 69.5974 305.237 71.1619C303.768 65.6691 299.731 58.674 293.032 51.9737C286.837 45.7814 279.747 41.3804 273.82 39.8154C275.288 45.3083 279.326 52.3034 286.025 59.0037Z" fill="#F98B00"/>
<path d="M309.121 66.9252C309.121 71.437 305.463 75.0946 300.952 75.0946C296.44 75.0946 292.783 71.437 292.783 66.9252C292.783 62.4139 296.44 58.7563 300.952 58.7563C305.463 58.7563 309.121 62.4139 309.121 66.9252Z" fill="#FFEA21"/>
<path d="M302.586 63.6579C302.586 66.3649 300.391 68.5595 297.684 68.5595C294.977 68.5595 292.783 66.3649 292.783 63.6579C292.783 60.951 294.977 58.7563 297.684 58.7563C300.391 58.7563 302.586 60.951 302.586 63.6579Z" fill="#FFFF9D"/>
<path d="M301.819 28.1091L308.418 23.4935C310.298 22.3655 312.706 22.6616 314.256 24.2126C316.123 26.0789 316.123 29.105 314.256 30.9713C314.097 31.1313 313.925 31.2796 313.745 31.4156L307.558 36.6451C305.811 37.955 303.428 38.0213 301.612 36.81C299.245 35.2324 298.606 32.0348 300.183 29.6684C300.606 29.034 301.164 28.5015 301.819 28.1091Z" fill="#FFFF9D"/>
<path d="M325.459 21.1783C325.459 22.0805 324.728 22.8122 323.825 22.8122C322.923 22.8122 322.192 22.0805 322.192 21.1783C322.192 20.2761 322.923 19.5444 323.825 19.5444C324.728 19.5444 325.459 20.2761 325.459 21.1783Z" fill="#FFFC74"/>
<defs>
<filter id="filter0_d" x="-17" y="0" width="409" height="172" filterUnits="userSpaceOnUse" color-interpolation-filters="sRGB">
<feFlood flood-opacity="0" result="BackgroundImageFix"/>
<feColorMatrix in="SourceAlpha" type="matrix" values="0 0 0 0 0 0 0 0 0 0 0 0 0 0 0 0 0 0 127 0"/>
<feOffset dy="18"/>
<feGaussianBlur stdDeviation="21"/>
<feColorMatrix type="matrix" values="0 0 0 0 1 0 0 0 0 0.2 0 0 0 0 0.47076 0 0 0 0.2 0"/>
<feBlend mode="normal" in2="BackgroundImageFix" result="effect1_dropShadow"/>
<feBlend mode="normal" in="SourceGraphic" in2="effect1_dropShadow" result="shape"/>
</filter>
</defs>
</svg>
