<svg width="375" height="172" viewBox="0 0 375 172" fill="none" xmlns="http://www.w3.org/2000/svg">
<g filter="url(#filter0_dd)">
<g filter="url(#filter1_d)">
<path fill-rule="evenodd" clip-rule="evenodd" d="M45 24C33.9543 24 25 32.9543 25 44V92C25 103.046 33.9543 112 45 112H330C341.046 112 350 103.046 350 92V44C350 32.9543 341.046 24 330 24H45Z" fill="#FF3378"/>
</g>
<path d="M283.192 23.0908H278.146C269.787 23.0908 263.011 29.8676 263.011 38.2271C263.011 46.587 269.787 53.3638 278.146 53.3638H283.192C285.049 53.3638 286.555 51.8579 286.555 50.0001C286.555 48.1423 285.049 46.6364 283.192 46.6364H278.146C273.502 46.6364 269.738 42.8714 269.738 38.2276C269.738 33.5833 273.502 29.8183 278.146 29.8183H283.192C285.049 29.8183 286.555 28.3123 286.555 26.455C286.555 24.5972 285.049 23.0913 283.192 23.0908Z" fill="#FFBE00"/>
<path d="M276.464 29.8183C276.464 31.6761 274.959 33.182 273.101 33.182C271.244 33.182 269.738 31.6761 269.738 29.8183C269.738 27.9605 271.244 26.4546 273.101 26.4546C274.959 26.4546 276.464 27.9605 276.464 29.8183Z" fill="#FFA300"/>
<path d="M283.192 49.9999C283.192 51.8578 281.686 53.3637 279.828 53.3637C277.97 53.3637 276.465 51.8578 276.465 49.9999C276.465 48.1421 277.97 46.6362 279.828 46.6362C281.686 46.6362 283.192 48.1421 283.192 49.9999Z" fill="#FFA300"/>
<path d="M323.553 13H269.738C266.374 13 266.374 16.3637 266.374 16.3637C266.374 16.3637 266.374 19.7274 269.737 19.7274C269.737 19.7274 273.101 19.7274 273.101 23.0907V33.1819C273.101 56.7274 293.282 56.7274 293.282 63.4544V73.5451C293.282 80.2726 286.555 80.2726 283.192 80.2726C279.828 80.2726 279.828 83.6363 279.828 83.6363C279.828 83.6363 279.828 87 283.192 87H310.099C313.463 87 313.463 83.6363 313.463 83.6363C313.463 83.6363 313.463 80.2726 310.099 80.2726C306.736 80.2726 300.009 80.2726 300.009 73.5451V63.4544C300.009 56.727 320.19 56.727 320.19 33.1819V23.0907C320.19 19.7274 323.553 19.7274 323.553 19.7274C326.917 19.7274 326.917 16.3637 326.917 16.3637C326.917 16.3637 326.916 13 323.553 13Z" fill="#FFD700"/>
<path d="M313.463 83.6363C313.463 83.6363 313.463 80.2726 310.099 80.2726C306.736 80.2726 300.009 80.2726 300.009 73.5451V63.4544C300.009 56.727 320.19 56.727 320.19 33.1819V23.0907C320.19 19.7274 323.553 19.7274 323.553 19.7274C326.917 19.7274 326.917 16.3637 326.917 16.3637C326.917 16.3637 326.916 13 323.553 13H303.372C306.736 13 306.736 16.3637 306.736 16.3637C306.736 16.3637 306.736 19.7274 303.372 19.7274C303.372 19.7274 300.009 19.7274 300.009 23.0907V33.1819C300.009 47.622 292.425 53.1963 286.555 56.9079C290.257 59.2478 293.282 60.8529 293.282 63.4544V73.5456C293.282 78.4062 289.773 79.7384 286.555 80.1128C287.672 80.2308 288.795 80.2842 289.918 80.2726C293.282 80.2726 293.282 83.6363 293.282 83.6363C293.282 83.6363 293.282 87 289.918 87H310.099C313.463 87 313.463 83.6363 313.463 83.6363Z" fill="#FFBE00"/>
<path d="M311.68 49.4116C311.246 49.4112 310.828 49.5795 310.515 49.8807C308.395 51.9176 305.991 53.4172 303.869 54.74C300.154 57.0565 296.646 59.2447 296.646 63.4545V73.5456C296.646 78.7178 299.718 82.2651 305.075 83.2777C305.988 83.4501 306.868 82.85 307.04 81.9374C307.213 81.0249 306.613 80.1452 305.7 79.9724C303.397 79.537 301.151 78.4705 300.333 75.8595V75.859C300.317 75.8079 300.302 75.7563 300.286 75.7037L300.284 75.6948L300.284 75.6934C300.281 75.684 300.278 75.6746 300.276 75.6647L300.275 75.6638C300.272 75.6512 300.268 75.6382 300.265 75.6252L300.264 75.6243L300.257 75.5951L300.256 75.5942L300.254 75.5852V75.5848C300.252 75.5781 300.251 75.5718 300.249 75.565V75.5641L300.246 75.5556V75.5543C300.243 75.5444 300.241 75.5345 300.238 75.5251V75.5242C300.236 75.5148 300.233 75.5044 300.231 75.4946L300.23 75.4941L300.228 75.4847V75.4838L300.223 75.4641V75.4636L300.221 75.4542L300.22 75.4533L300.218 75.4443V75.4434C300.216 75.4371 300.215 75.4304 300.213 75.4237V75.4223L300.211 75.4138L300.211 75.4124L300.206 75.3927V75.3922L300.204 75.3833L300.203 75.381L300.201 75.3725V75.372L300.197 75.3518V75.3505L300.194 75.342V75.3406L300.19 75.3204V75.3195L300.188 75.3105L300.187 75.3092C300.185 75.2993 300.183 75.2894 300.181 75.2791L300.181 75.2782C300.178 75.2679 300.176 75.258 300.174 75.2477V75.2468L300.172 75.2378V75.2365C300.171 75.2293 300.169 75.223 300.168 75.2158V75.2149L300.166 75.206L300.165 75.2046L300.163 75.1952V75.1943L300.159 75.1741L300.159 75.1727L300.157 75.1642V75.1624C300.156 75.1557 300.154 75.1485 300.153 75.1422L300.153 75.1413L300.151 75.1323L300.151 75.1301L300.149 75.1216L300.149 75.1202L300.145 75.1L300.145 75.0978L300.143 75.0897L300.143 75.0875C300.141 75.0807 300.14 75.0744 300.139 75.0673V75.0659L300.137 75.0574L300.137 75.0551L300.135 75.0471V75.0448L300.133 75.0349V75.034L300.132 75.0251L300.131 75.0228L300.129 75.0143L300.129 75.0125C300.128 75.0058 300.127 74.999 300.126 74.9923L300.125 74.9905L300.124 74.982L300.124 74.9797L300.122 74.9703V74.9699L300.12 74.9595L300.119 74.9582L300.118 74.9492L300.118 74.9474L300.116 74.938V74.9371C300.115 74.9299 300.114 74.9232 300.113 74.9165L300.112 74.9142L300.111 74.9057L300.11 74.9039L300.109 74.894V74.8936L300.107 74.8832V74.8819L300.106 74.8729L300.106 74.8707L300.104 74.8621L300.104 74.8603C300.103 74.8536 300.102 74.8464 300.101 74.8397L300.1 74.8379L300.099 74.8294L300.099 74.8271L300.096 74.806V74.8051L300.094 74.7957L300.094 74.7939L300.093 74.7849V74.7831L300.089 74.7625L300.089 74.7602L300.088 74.7517L300.088 74.7495L300.085 74.7284L300.084 74.7275L300.084 74.7181L300.083 74.7158L300.082 74.7064V74.7055L300.08 74.6947V74.6938L300.079 74.6844L300.079 74.6821L300.078 74.6732L300.077 74.6714L300.075 74.6503V74.6476L300.073 74.6395V74.6368L300.072 74.6274V74.6265L300.071 74.6157L300.07 74.6144L300.069 74.6054L300.069 74.6023L300.068 74.5937V74.5924C300.067 74.5847 300.066 74.5785 300.065 74.5708L300.065 74.5681L300.064 74.5605V74.5574L300.062 74.5484V74.547L300.061 74.5363V74.5345L300.06 74.5255L300.06 74.5228L300.059 74.5152L300.058 74.512L300.058 74.5017V74.5008L300.056 74.4909L300.056 74.4882L300.055 74.4802L300.055 74.477L300.054 74.468L300.053 74.4667L300.053 74.4559V74.4541L300.051 74.4452V74.4425L300.05 74.4335L300.05 74.4317L300.049 74.4209V74.4191L300.048 74.4101L300.048 74.4074L300.047 74.3994V74.3962L300.046 74.3864V74.3859L300.045 74.3751L300.045 74.3724L300.044 74.3644L300.044 74.3612L300.043 74.3531V74.3504L300.042 74.3397L300.041 74.3374L300.041 74.3293L300.04 74.3253L300.04 74.3181L300.04 74.3145C300.039 74.3078 300.038 74.3002 300.038 74.2934L300.037 74.2903L300.037 74.2827L300.036 74.2786L300.036 74.2701V74.2683L300.035 74.2575L300.035 74.2548L300.034 74.2468V74.2432L300.033 74.2351V74.2324C300.032 74.2252 300.032 74.218 300.032 74.2108V74.2082L300.031 74.1992V74.1969L300.03 74.1875L300.03 74.1857L300.029 74.1745L300.029 74.1727L300.028 74.1637V74.1606L300.027 74.1521V74.1494L300.027 74.1386V74.1368L300.026 74.1274L300.026 74.1242L300.025 74.1166V74.113L300.025 74.1027V74.1022L300.024 74.091V74.0883L300.023 74.0798V74.0771L300.023 74.0681V74.0659L300.022 74.0546V74.0524L300.022 74.0439L300.021 74.0398L300.021 74.0322V74.0291L300.02 74.0187V74.0178L300.02 74.0066L300.019 74.0039V73.9958L300.019 73.9918L300.018 73.9837V73.981L300.018 73.9698V73.9671L300.018 73.959L300.017 73.9546V73.9478L300.017 73.9433C300.017 73.9366 300.016 73.929 300.016 73.9218V73.9182L300.015 73.9101V73.9065L300.015 73.898V73.8953L300.014 73.8841V73.8818L300.014 73.8729V73.8697L300.014 73.8607V73.8585L300.013 73.8468V73.8459L300.013 73.8356V73.8239L300.012 73.8208V73.8091L300.012 73.7979V73.7862L300.011 73.7835V73.7714L300.011 73.7602V73.7373L300.01 73.7333V73.6956L300.01 73.687V73.6345L300.01 73.6229V63.4204L300.01 63.4145V63.3867L300.01 63.3804V63.3584L300.011 63.3535V63.3387L300.011 63.3324V63.3248L300.012 63.3189V63.3185L300.012 63.3122V63.3046L300.013 63.2925V63.2907L300.013 63.2857V63.2848L300.014 63.2785V63.2772L300.014 63.2723V63.2705L300.014 63.2583L300.015 63.257V63.2507L300.015 63.2449V63.2435L300.016 63.2386V63.2368L300.017 63.2247V63.2233L300.017 63.2179V63.217L300.018 63.2112V63.2103L300.018 63.2049V63.2036L300.019 63.1915V63.1901L300.02 63.1847V63.1838L300.02 63.1776V63.1771L300.021 63.1713L300.021 63.1699C300.021 63.1659 300.022 63.1618 300.022 63.1578V63.1565L300.023 63.1511V63.1502L300.024 63.1381V63.1367L300.024 63.1313V63.1304L300.025 63.1241L300.025 63.1232L300.026 63.1183V63.117L300.027 63.1044V63.103L300.027 63.0977V63.0972L300.028 63.0909V63.09L300.029 63.0846L300.029 63.0837L300.031 63.0716V63.0703L300.031 63.0649L300.032 63.064L300.032 63.0577V63.0568L300.033 63.0519V63.0505L300.035 63.0384V63.0371L300.035 63.0317L300.036 63.0308L300.036 63.0249L300.036 63.0236L300.037 63.0187L300.037 63.0173L300.038 63.0115L300.039 63.0052L300.039 63.0043L300.04 62.9989L300.04 62.998L300.041 62.9917L300.041 62.9859L300.042 62.9845L300.043 62.9787L300.044 62.9724L300.044 62.9711L300.045 62.9661V62.9652L300.046 62.959V62.9585L300.047 62.9531V62.9518L300.048 62.9464V62.9459L300.049 62.9397V62.9388L300.05 62.9334V62.9325L300.052 62.9204L300.052 62.9195L300.054 62.9069V62.9064L300.055 62.9006V62.9002L300.058 62.8876V62.8867L300.06 62.8746V62.8741L300.061 62.8683V62.8674L300.063 62.8548V62.8544C300.065 62.8481 300.066 62.8418 300.067 62.8355V62.8351L300.07 62.8225V62.8221L300.071 62.8162V62.8158L300.074 62.8032V62.8028L300.076 62.7906V62.7897L300.078 62.7839V62.7835L300.08 62.7713V62.7704C300.081 62.7664 300.082 62.7624 300.083 62.7583V62.7579L300.084 62.752V62.7516L300.088 62.739V62.7386C300.089 62.7341 300.089 62.7305 300.09 62.726V62.7256L300.092 62.7202V62.7193L300.095 62.7072V62.7067L300.099 62.6878L300.1 62.6874C300.101 62.6834 300.102 62.6789 300.102 62.6753L300.103 62.6748L300.106 62.6623L300.107 62.656L300.11 62.6434V62.643L300.112 62.6371L300.115 62.6246V62.6241L300.119 62.612V62.6111L300.121 62.6053L300.124 62.5931L300.124 62.5927C300.426 61.5065 301.294 60.5863 302.51 59.668C302.522 59.659 302.533 59.65 302.545 59.641C302.55 59.6379 302.555 59.6338 302.559 59.6307L302.56 59.6303L302.581 59.6145H302.581C302.6 59.6006 302.619 59.5863 302.638 59.5719L302.639 59.5715C302.651 59.5629 302.663 59.5539 302.675 59.545C302.711 59.518 302.747 59.492 302.784 59.4651C304.845 57.969 307.787 56.4456 310.666 54.1901L310.668 54.1892C310.672 54.1856 310.676 54.1821 310.681 54.1789L310.682 54.1776C310.686 54.174 310.689 54.1717 310.694 54.1681L310.697 54.1659L310.708 54.1569L310.711 54.1542L310.718 54.1488L310.727 54.1426L310.733 54.1376L310.741 54.1309C310.743 54.1295 310.745 54.1277 310.747 54.1264C310.75 54.1241 310.753 54.1215 310.756 54.1192L310.761 54.1152C310.765 54.1125 310.768 54.1098 310.771 54.1075L310.776 54.104C310.779 54.1013 310.782 54.0986 310.786 54.0959L310.79 54.0923L310.8 54.0842L310.804 54.0811L310.815 54.0721L310.818 54.0703L310.83 54.0609L310.832 54.0591C310.837 54.0555 310.841 54.0523 310.845 54.0492L310.846 54.0478C310.851 54.0443 310.855 54.0407 310.859 54.0375L310.86 54.0366C311.53 53.5038 312.195 52.9302 312.844 52.3067C313.514 51.6635 313.535 50.5988 312.892 49.9292C312.575 49.5988 312.137 49.4121 311.679 49.4121L311.68 49.4116Z" fill="#FFA300"/>
<path d="M310.099 19.7275H316.826C318.684 19.7275 320.19 21.2334 320.19 23.0908C320.19 24.9486 318.684 26.4545 316.826 26.4545H310.099C308.242 26.4545 306.736 24.9486 306.736 23.0908C306.736 21.2334 308.241 19.7275 310.099 19.7275Z" fill="#FFA300"/>
<path d="M303.373 29.8183C303.373 31.6761 304.878 33.182 306.736 33.182H310.099C313.815 33.182 316.826 36.1938 316.826 39.9095C316.826 43.6246 313.815 46.6364 310.099 46.6364C308.242 46.6364 306.736 48.1424 306.736 50.0002C306.736 51.858 308.242 53.3639 310.099 53.3639C317.53 53.3639 323.553 47.3398 323.553 39.9095C323.553 32.4787 317.53 26.4546 310.099 26.4546H306.736C304.878 26.4546 303.373 27.9605 303.373 29.8183Z" fill="#FFA300"/>
<path d="M306.736 23.0908H311.781C320.14 23.0908 326.917 29.8676 326.917 38.2271C326.917 46.587 320.14 53.3638 311.781 53.3638H306.736C304.878 53.3638 303.373 51.8579 303.372 50.0001C303.372 48.1423 304.878 46.6364 306.736 46.6364H311.781C316.425 46.6364 320.189 42.8714 320.189 38.2276C320.189 33.5833 316.425 29.8183 311.781 29.8183H306.736C304.878 29.8183 303.372 28.3123 303.372 26.455C303.373 24.5972 304.878 23.0913 306.736 23.0908Z" fill="#FFEA21"/>
<path d="M284.873 80.2725H288.237C289.166 80.2725 289.918 81.0256 289.918 81.9543C289.918 82.8834 289.166 83.6362 288.237 83.6362H284.873C283.944 83.6362 283.192 82.8834 283.192 81.9543C283.192 81.0256 283.944 80.2725 284.873 80.2725Z" fill="#FFFF9D"/>
<path d="M308.417 23.0908H311.781C312.71 23.0908 313.463 23.844 313.463 24.7727C313.463 25.7014 312.71 26.4545 311.781 26.4545H308.417C307.489 26.4545 306.736 25.7014 306.736 24.7727C306.736 23.844 307.489 23.0908 308.417 23.0908Z" fill="#FFFF9D"/>
<path d="M283.192 29.8184C285.049 29.8184 286.555 31.3243 286.555 33.1821V39.9091C286.555 41.7669 285.049 43.2728 283.192 43.2728C281.334 43.2728 279.828 41.7669 279.828 39.9091V33.1821C279.828 31.3243 281.334 29.8184 283.192 29.8184Z" fill="#FFFF9D"/>
<path d="M286.555 48.3181C286.555 49.2468 285.802 49.9999 284.873 49.9999C283.944 49.9999 283.192 49.2468 283.192 48.3181C283.192 47.3894 283.944 46.6362 284.873 46.6362C285.802 46.6362 286.555 47.3894 286.555 48.3181Z" fill="#FFFF9D"/>
<path d="M279.828 19.7275H293.282C295.14 19.7275 296.645 21.2334 296.645 23.0908C296.645 24.9486 295.14 26.4545 293.282 26.4545H279.828C277.97 26.4545 276.465 24.9486 276.465 23.0908C276.465 21.2334 277.97 19.7275 279.828 19.7275Z" fill="#FFBE00"/>
<path d="M271.419 13H301.691C302.619 13 303.372 13.7532 303.372 14.6819C303.372 15.6105 302.619 16.3637 301.691 16.3637H271.419C270.49 16.3637 269.738 15.6105 269.738 14.6819C269.738 13.7532 270.49 13 271.419 13Z" fill="#FFFF9D"/>
</g>
<defs>
<filter id="filter0_dd" x="21" y="13" width="333" height="107" filterUnits="userSpaceOnUse" color-interpolation-filters="sRGB">
<feFlood flood-opacity="0" result="BackgroundImageFix"/>
<feColorMatrix in="SourceAlpha" type="matrix" values="0 0 0 0 0 0 0 0 0 0 0 0 0 0 0 0 0 0 127 0"/>
<feOffset dy="4"/>
<feGaussianBlur stdDeviation="2"/>
<feColorMatrix type="matrix" values="0 0 0 0 0 0 0 0 0 0 0 0 0 0 0 0 0 0 0.25 0"/>
<feBlend mode="normal" in2="BackgroundImageFix" result="effect1_dropShadow"/>
<feColorMatrix in="SourceAlpha" type="matrix" values="0 0 0 0 0 0 0 0 0 0 0 0 0 0 0 0 0 0 127 0"/>
<feOffset dy="4"/>
<feGaussianBlur stdDeviation="2"/>
<feColorMatrix type="matrix" values="0 0 0 0 0 0 0 0 0 0 0 0 0 0 0 0 0 0 0.25 0"/>
<feBlend mode="normal" in2="effect1_dropShadow" result="effect2_dropShadow"/>
<feBlend mode="normal" in="SourceGraphic" in2="effect2_dropShadow" result="shape"/>
</filter>
<filter id="filter1_d" x="-17" y="0" width="409" height="172" filterUnits="userSpaceOnUse" color-interpolation-filters="sRGB">
<feFlood flood-opacity="0" result="BackgroundImageFix"/>
<feColorMatrix in="SourceAlpha" type="matrix" values="0 0 0 0 0 0 0 0 0 0 0 0 0 0 0 0 0 0 127 0"/>
<feOffset dy="18"/>
<feGaussianBlur stdDeviation="21"/>
<feColorMatrix type="matrix" values="0 0 0 0 1 0 0 0 0 0.2 0 0 0 0 0.47076 0 0 0 0.2 0"/>
<feBlend mode="normal" in2="BackgroundImageFix" result="effect1_dropShadow"/>
<feBlend mode="normal" in="SourceGraphic" in2="effect1_dropShadow" result="shape"/>
</filter>
</defs>
</svg>
