<svg width="375" height="214" viewBox="0 0 375 214" fill="none" xmlns="http://www.w3.org/2000/svg">
<g filter="url(#filter0_d)">
<path fill-rule="evenodd" clip-rule="evenodd" d="M45 24C33.9543 24 25 32.9543 25 44V134C25 145.046 33.9543 154 45 154H330C341.046 154 350 145.046 350 134V44C350 32.9543 341.046 24 330 24H45Z" fill="#FF2525"/>
</g>
<path d="M263.272 38.4861C263.272 55.3231 276.877 68.9722 293.659 68.9722C310.442 68.9722 324.047 55.3231 324.047 38.4861C324.047 21.6491 310.442 8 293.659 8C276.877 8 263.272 21.6491 263.272 38.4861Z" fill="#FFCA5D"/>
<path d="M271.954 77.6826C271.954 94.5196 285.559 108.169 302.341 108.169C319.124 108.169 332.729 94.5196 332.729 77.6826C332.729 60.8456 319.124 47.1965 302.341 47.1965C285.559 47.1965 271.954 60.8456 271.954 77.6826Z" fill="#F6B545"/>
<path fill-rule="evenodd" clip-rule="evenodd" d="M302.341 47.1965C319.271 47.1965 332.729 60.6975 332.729 77.6826C332.729 94.6677 319.271 108.169 302.341 108.169C285.411 108.169 271.954 94.6677 271.954 77.6826C271.954 60.6975 285.411 47.1965 302.341 47.1965ZM302.341 55.9069C290.186 55.9069 280.636 65.4882 280.636 77.6826C280.636 89.877 290.186 99.4583 302.341 99.4583C314.496 99.4583 324.047 89.877 324.047 77.6826C324.047 65.4882 314.496 55.9069 302.341 55.9069Z" fill="#FFCB5B"/>
<path d="M272.388 77.6826C271.954 94.6677 285.845 108.169 302.341 108.169V107.733C302.341 105.556 300.605 103.813 298.434 103.378C292.357 102.507 286.714 99.4583 282.807 95.1033C279.334 91.6193 277.163 86.8286 276.295 81.6023C276.295 79.4245 274.559 77.6826 272.388 77.6826Z" fill="#F6B545"/>
<path d="M332.295 77.6826C332.729 60.6975 318.837 47.1965 302.341 47.1965V47.6322C302.341 49.8097 304.078 51.5519 306.248 51.9872C312.326 52.8581 317.969 55.9069 321.876 60.2619C325.349 63.746 327.519 68.5366 328.388 73.7629C328.388 75.9404 330.124 77.6826 332.295 77.6826Z" fill="#FFE27A"/>
<path d="M299.303 58.9552C311.458 58.9552 321.008 68.5364 321.008 80.7309C321.008 85.9572 319.272 90.7478 315.799 94.6672C321.008 90.3122 324.047 84.6506 324.047 77.6825C324.047 65.488 314.496 55.9067 302.341 55.9067C295.396 55.9067 289.753 58.9552 285.846 63.7458C289.318 60.6974 294.094 58.9552 299.303 58.9552Z" fill="#F19920"/>
<path d="M288.884 90.7479C288.884 90.3122 288.884 89.8769 289.318 89.4413C290.187 88.5704 291.489 88.5704 292.357 89.4413C294.962 92.0544 298.869 93.361 302.342 93.361C303.644 93.361 304.512 94.2319 304.512 95.5385C304.512 96.8451 303.644 97.716 302.342 97.716C297.566 97.716 292.791 95.9738 289.318 92.9253C288.884 92.0544 288.884 91.1831 288.884 90.7479Z" fill="#FFCB5B"/>
<path d="M289.318 77.6826C289.318 75.0695 291.055 73.3276 293.659 73.3276H311.023C313.628 73.3276 315.364 75.0699 315.364 77.6826C315.364 80.2954 313.627 82.0376 311.023 82.0376H293.659C291.055 82.0376 289.318 80.2958 289.318 77.6826Z" fill="#F19920"/>
<path d="M276.73 93.7964C287.582 90.748 296.264 82.9086 300.171 72.8916C310.155 71.1494 318.837 64.6169 324.047 56.3422C318.403 51.1159 311.024 47.6318 302.776 47.6318C285.846 47.6318 272.388 61.1328 272.388 78.1179C271.954 83.7799 273.691 89.0058 276.73 93.7964Z" fill="#F19920"/>
<path d="M285.846 63.7459C289.753 60.6975 294.528 58.5196 299.737 58.5196C305.814 58.5196 311.458 61.1328 315.365 65.4878C316.667 64.6169 317.535 63.7456 318.403 62.8746C314.496 58.5196 308.853 55.9065 302.341 55.9065C295.396 55.9069 289.753 58.9553 285.846 63.7459Z" fill="#E78825"/>
<path d="M299.737 73.3271H293.659C291.055 73.3271 289.318 75.0694 289.318 77.6821C289.318 80.2949 291.055 82.0371 293.659 82.0371H294.527C296.698 79.4244 298.434 76.3759 299.737 73.3271Z" fill="#E78825"/>
<path d="M276.729 93.7964C279.768 92.9255 282.373 92.0542 284.977 90.3123C282.373 86.8283 280.636 82.4733 280.636 77.6826C280.636 65.4882 290.187 55.9069 302.342 55.9069C308.853 55.9069 314.497 58.52 318.404 62.875C320.574 60.6975 322.311 58.52 323.613 55.9069C317.97 50.6806 310.59 47.1965 302.342 47.1965C285.412 47.1965 271.955 60.6975 271.955 77.6826C271.954 83.7798 273.691 89.0058 276.729 93.7964Z" fill="#F6B545"/>
<path d="M280.636 92.4897C278.466 89.4413 277.163 85.5216 276.295 81.6018C275.861 79.4244 274.125 77.6821 271.954 77.6821C271.954 83.7793 273.691 89.0056 276.73 93.7963C278.032 93.361 279.334 92.9254 280.636 92.4897Z" fill="#F19920"/>
<path d="M323.612 55.9069C317.969 50.6806 310.589 47.1965 302.341 47.1965V47.6322C302.341 49.8097 304.078 51.5519 306.248 51.9872C312.326 52.8581 317.535 55.9069 321.442 59.8262C321.876 58.52 322.744 57.2135 323.612 55.9069Z" fill="#FFCB5B"/>
<path d="M263.272 38.4861C263.272 55.3231 276.877 68.9722 293.659 68.9722C310.442 68.9722 324.047 55.3231 324.047 38.4861C324.047 21.6491 310.442 8 293.659 8C276.877 8 263.272 21.6491 263.272 38.4861Z" fill="#F6B545"/>
<path d="M271.954 34.1311C268.916 34.1311 266.311 34.5668 263.272 35.4377C263.272 36.3086 263.272 37.6152 263.272 38.4861C263.272 55.4712 276.73 68.9722 293.66 68.9722C296.698 68.9722 299.303 68.5365 302.342 67.6656C302.342 66.7947 302.342 65.4881 302.342 64.6172C302.341 47.6321 288.884 34.1311 271.954 34.1311Z" fill="#F19920"/>
<path fill-rule="evenodd" clip-rule="evenodd" d="M293.659 8C310.589 8 324.047 21.501 324.047 38.4861C324.047 55.4712 310.589 68.9722 293.659 68.9722C276.73 68.9722 263.272 55.4712 263.272 38.4861C263.272 21.501 276.729 8 293.659 8ZM293.66 16.7104C281.505 16.7104 271.954 26.2916 271.954 38.4861C271.954 50.6805 281.505 60.2618 293.66 60.2618C305.815 60.2618 315.365 50.6805 315.365 38.4861C315.365 26.2916 305.815 16.7104 293.66 16.7104Z" fill="#FFCB5B"/>
<path d="M263.706 38.4861C263.272 55.4712 277.163 68.9722 293.659 68.9722V68.5365C293.659 66.359 291.923 64.6168 289.752 64.1815C283.675 63.3106 278.031 60.2618 274.124 55.9068C270.652 52.4227 268.481 47.6321 267.613 42.4058C267.613 40.2283 265.877 38.4861 263.706 38.4861Z" fill="#F6B545"/>
<path d="M323.612 38.4861C324.047 21.501 310.155 8 293.659 8V8.43565C293.659 10.6131 295.396 12.3554 297.566 12.7906C303.644 13.6616 309.287 16.7104 313.194 21.0654C316.667 24.5494 318.837 29.3401 319.706 34.5664C319.706 36.7442 321.442 38.4861 323.612 38.4861Z" fill="#FFE27A"/>
<path d="M290.621 19.7592C302.776 19.7592 312.326 29.3405 312.326 41.535C312.326 46.7613 310.589 51.5519 307.117 55.4712C312.326 51.1162 315.365 45.4543 315.365 38.4862C315.365 26.2917 305.814 16.7104 293.659 16.7104C286.714 16.7104 281.07 19.7589 277.163 24.5495C280.636 21.5015 285.411 19.7592 290.621 19.7592Z" fill="#F19920"/>
<path d="M280.202 51.5518C280.202 51.1162 280.202 50.6809 280.637 50.2452C281.505 49.3743 282.807 49.3743 283.675 50.2452C286.28 52.8584 290.187 54.165 293.66 54.165C294.962 54.165 295.83 55.0359 295.83 56.3425C295.83 57.649 294.962 58.5199 293.66 58.5199C288.885 58.5199 284.109 56.7777 280.637 53.7293C280.202 52.858 280.202 51.9871 280.202 51.5518Z" fill="#FFCB5B"/>
<path d="M280.636 38.4861C280.636 35.873 282.373 34.1311 284.977 34.1311L302.341 34.1311C304.946 34.1311 306.682 35.8733 306.682 38.4861C306.682 41.0992 304.945 42.8411 302.341 42.8411H284.977C282.373 42.8415 280.636 41.0992 280.636 38.4861Z" fill="#F19920"/>
<path d="M301.908 58.5198C299.303 59.3908 296.698 60.2621 293.66 60.2621C281.505 60.2621 271.954 50.6808 271.954 38.4863C271.954 37.1798 271.954 35.4379 272.389 34.1313H271.954C268.916 34.1313 266.311 34.567 263.272 35.4379C263.272 36.3088 263.272 37.6154 263.272 38.4863C263.272 55.4714 276.73 68.9724 293.66 68.9724C296.698 68.9724 299.303 68.5368 302.342 67.6659C302.342 66.7949 302.342 65.4884 302.342 64.6174C302.341 62.4392 302.341 60.6973 301.908 58.5198Z" fill="#F6B545"/>
<path d="M237.226 60.2617C237.226 77.0987 250.831 90.7478 267.613 90.7478C284.396 90.7478 298 77.0987 298 60.2617C298 43.4247 284.396 29.7756 267.613 29.7756C250.831 29.7756 237.226 43.4247 237.226 60.2617Z" fill="#F6B545"/>
<path fill-rule="evenodd" clip-rule="evenodd" d="M267.613 29.7756C284.543 29.7756 298 43.2766 298 60.2617C298 77.2468 284.543 90.7478 267.613 90.7478C250.683 90.7478 237.226 77.2468 237.226 60.2617C237.226 43.2766 250.683 29.7756 267.613 29.7756ZM267.613 38.486C255.458 38.486 245.908 48.0673 245.908 60.2617C245.908 72.4562 255.458 82.0374 267.613 82.0374C279.768 82.0374 289.318 72.4562 289.318 60.2617C289.318 48.0673 279.768 38.486 267.613 38.486Z" fill="#FFCB5B"/>
<path d="M237.66 60.2617C237.226 77.2468 251.117 90.7478 267.613 90.7478V90.3122C267.613 88.1347 265.876 86.3924 263.706 85.9572C257.629 85.0862 251.985 82.0374 248.078 77.6824C244.605 74.1984 242.435 69.4077 241.567 64.1814C241.567 62.0039 239.831 60.2617 237.66 60.2617Z" fill="#F6B545"/>
<path d="M297.566 60.2617C298 43.2766 284.109 29.7756 267.613 29.7756V30.2113C267.613 32.3888 269.35 34.131 271.52 34.5663C277.598 35.4372 283.241 38.486 287.148 42.841C290.621 46.3251 292.791 51.1157 293.66 56.342C293.659 58.5199 295.396 60.2617 297.566 60.2617Z" fill="#FFE27A"/>
<path d="M264.575 41.5349C276.73 41.5349 286.28 51.1162 286.28 63.3106C286.28 68.5369 284.543 73.3275 281.07 77.2469C286.28 72.8919 289.318 67.2299 289.318 60.2618C289.318 48.0674 279.768 38.4861 267.613 38.4861C260.668 38.4861 255.024 41.5345 251.117 46.3251C254.59 43.2767 259.365 41.5349 264.575 41.5349Z" fill="#F19920"/>
<path d="M254.156 73.3272C254.156 72.8915 254.156 72.4563 254.59 72.0206C255.459 71.1497 256.761 71.1497 257.629 72.0206C260.234 74.6338 264.141 75.9403 267.613 75.9403C268.916 75.9403 269.784 76.8113 269.784 78.1178C269.784 79.4244 268.916 80.2953 267.613 80.2953C262.838 80.2953 258.063 78.5531 254.59 75.5047C254.156 74.6338 254.156 73.7628 254.156 73.3272Z" fill="#FFCB5B"/>
<path d="M254.59 60.2617C254.59 57.6486 256.327 55.9067 258.931 55.9067L276.295 55.9067C278.9 55.9067 280.636 57.649 280.636 60.2617C280.636 62.8749 278.9 64.6167 276.295 64.6167H258.931C256.327 64.6171 254.59 62.8749 254.59 60.2617Z" fill="#F19920"/>
<defs>
<filter id="filter0_d" x="-17" y="0" width="409" height="214" filterUnits="userSpaceOnUse" color-interpolation-filters="sRGB">
<feFlood flood-opacity="0" result="BackgroundImageFix"/>
<feColorMatrix in="SourceAlpha" type="matrix" values="0 0 0 0 0 0 0 0 0 0 0 0 0 0 0 0 0 0 127 0"/>
<feOffset dy="18"/>
<feGaussianBlur stdDeviation="21"/>
<feColorMatrix type="matrix" values="0 0 0 0 1 0 0 0 0 0.2 0 0 0 0 0.47076 0 0 0 0.2 0"/>
<feBlend mode="normal" in2="BackgroundImageFix" result="effect1_dropShadow"/>
<feBlend mode="normal" in="SourceGraphic" in2="effect1_dropShadow" result="shape"/>
</filter>
</defs>
</svg>
