<svg width="375" height="214" viewBox="0 0 375 214" fill="none" xmlns="http://www.w3.org/2000/svg">
<g filter="url(#filter0_d)">
<path fill-rule="evenodd" clip-rule="evenodd" d="M45 24C33.9543 24 25 32.9543 25 44V134C25 145.046 33.9543 154 45 154H330C341.046 154 350 145.046 350 134V44C350 32.9543 341.046 24 330 24H45Z" fill="#33C9FF"/>
</g>
<path d="M263.272 38.3618C263.272 55.1988 276.877 68.8479 293.66 68.8479C310.442 68.8479 324.047 55.1988 324.047 38.3618C324.047 21.5248 310.442 7.87573 293.66 7.87573C276.877 7.87573 263.272 21.5248 263.272 38.3618Z" fill="#FFCA5D"/>
<path d="M271.954 77.5583C271.954 94.3953 285.559 108.044 302.342 108.044C319.124 108.044 332.729 94.3953 332.729 77.5583C332.729 60.7213 319.124 47.0723 302.342 47.0723C285.559 47.0723 271.954 60.7213 271.954 77.5583Z" fill="#F6B545"/>
<path fill-rule="evenodd" clip-rule="evenodd" d="M302.342 47.0723C319.272 47.0723 332.729 60.5733 332.729 77.5583C332.729 94.5434 319.272 108.044 302.342 108.044C285.412 108.044 271.954 94.5434 271.954 77.5583C271.954 60.5733 285.412 47.0723 302.342 47.0723ZM302.342 55.7826C290.187 55.7826 280.636 65.3639 280.636 77.5583C280.636 89.7528 290.187 99.3341 302.342 99.3341C314.497 99.3341 324.047 89.7528 324.047 77.5583C324.047 65.3639 314.497 55.7826 302.342 55.7826Z" fill="#FFCB5B"/>
<path d="M272.389 77.5583C271.954 94.5434 285.846 108.044 302.342 108.044V107.609C302.342 105.431 300.605 103.689 298.435 103.254C292.357 102.383 286.714 99.3341 282.807 94.9791C279.334 91.495 277.164 86.7044 276.296 81.4781C276.296 79.3002 274.559 77.5583 272.389 77.5583Z" fill="#F6B545"/>
<path d="M332.295 77.5583C332.729 60.5733 318.837 47.0723 302.342 47.0723V47.5079C302.342 49.6854 304.078 51.4276 306.249 51.8629C312.326 52.7338 317.969 55.7826 321.876 60.1376C325.349 63.6217 327.52 68.4123 328.388 73.6386C328.388 75.8161 330.124 77.5583 332.295 77.5583Z" fill="#FFE27A"/>
<path d="M299.303 58.8309C311.458 58.8309 321.008 68.4122 321.008 80.6066C321.008 85.8329 319.272 90.6235 315.799 94.5429C321.008 90.1879 324.047 84.5263 324.047 77.5582C324.047 65.3638 314.497 55.7825 302.342 55.7825C295.396 55.7825 289.753 58.8309 285.846 63.6215C289.319 60.5731 294.094 58.8309 299.303 58.8309Z" fill="#F19920"/>
<path d="M288.884 90.6236C288.884 90.1879 288.884 89.7527 289.319 89.317C290.187 88.4461 291.489 88.4461 292.357 89.317C294.962 91.9302 298.869 93.2367 302.342 93.2367C303.644 93.2367 304.512 94.1077 304.512 95.4142C304.512 96.7208 303.644 97.5917 302.342 97.5917C297.567 97.5917 292.792 95.8495 289.319 92.8011C288.884 91.9302 288.884 91.0589 288.884 90.6236Z" fill="#FFCB5B"/>
<path d="M289.319 77.5584C289.319 74.9452 291.055 73.2034 293.659 73.2034H311.023C313.628 73.2034 315.364 74.9456 315.364 77.5584C315.364 80.1711 313.628 81.9134 311.023 81.9134H293.659C291.055 81.9134 289.319 80.1715 289.319 77.5584Z" fill="#F19920"/>
<path d="M276.73 93.6722C287.582 90.6237 296.265 82.7843 300.171 72.7674C310.156 71.0251 318.838 64.4926 324.047 56.2179C318.404 50.9916 311.024 47.5076 302.776 47.5076C285.846 47.5076 272.389 61.0086 272.389 77.9937C271.955 83.6556 273.691 88.8815 276.73 93.6722Z" fill="#F19920"/>
<path d="M285.846 63.6217C289.753 60.5732 294.528 58.3954 299.737 58.3954C305.815 58.3954 311.458 61.0085 315.365 65.3635C316.667 64.4926 317.535 63.6213 318.403 62.7504C314.496 58.3954 308.853 55.7822 302.341 55.7822C295.396 55.7826 289.753 58.831 285.846 63.6217Z" fill="#E78825"/>
<path d="M299.737 73.2029H293.659C291.055 73.2029 289.318 74.9451 289.318 77.5579C289.318 80.1706 291.055 81.9129 293.659 81.9129H294.527C296.698 79.3001 298.434 76.2517 299.737 73.2029Z" fill="#E78825"/>
<path d="M276.73 93.6721C279.768 92.8012 282.373 91.9299 284.978 90.1881C282.373 86.704 280.637 82.349 280.637 77.5583C280.637 65.3639 290.187 55.7826 302.342 55.7826C308.854 55.7826 314.497 58.3958 318.404 62.7508C320.574 60.5733 322.311 58.3958 323.613 55.7826C317.97 50.5563 310.59 47.0723 302.342 47.0723C285.412 47.0723 271.955 60.5733 271.955 77.5583C271.955 83.6556 273.691 88.8815 276.73 93.6721Z" fill="#F6B545"/>
<path d="M280.636 92.3654C278.466 89.317 277.163 85.3973 276.295 81.4776C275.861 79.3001 274.125 77.5579 271.954 77.5579C271.954 83.6551 273.691 88.8814 276.73 93.672C278.032 93.2367 279.334 92.8011 280.636 92.3654Z" fill="#F19920"/>
<path d="M323.613 55.7826C317.97 50.5563 310.59 47.0723 302.342 47.0723V47.5079C302.342 49.6854 304.078 51.4276 306.249 51.8629C312.326 52.7338 317.536 55.7826 321.442 59.702C321.877 58.3958 322.745 57.0892 323.613 55.7826Z" fill="#FFCB5B"/>
<path d="M263.272 38.3618C263.272 55.1988 276.877 68.8479 293.66 68.8479C310.442 68.8479 324.047 55.1988 324.047 38.3618C324.047 21.5248 310.442 7.87573 293.66 7.87573C276.877 7.87573 263.272 21.5248 263.272 38.3618Z" fill="#F6B545"/>
<path d="M271.954 34.0068C268.916 34.0068 266.311 34.4425 263.272 35.3134C263.272 36.1843 263.272 37.4909 263.272 38.3618C263.272 55.3469 276.73 68.8479 293.66 68.8479C296.698 68.8479 299.303 68.4123 302.342 67.5413C302.342 66.6704 302.342 65.3638 302.342 64.4929C302.341 47.5078 288.884 34.0068 271.954 34.0068Z" fill="#F19920"/>
<path fill-rule="evenodd" clip-rule="evenodd" d="M293.66 7.87573C310.59 7.87573 324.047 21.3767 324.047 38.3618C324.047 55.3469 310.589 68.8479 293.66 68.8479C276.73 68.8479 263.272 55.3469 263.272 38.3618C263.272 21.3767 276.729 7.87573 293.66 7.87573ZM293.66 16.5861C281.505 16.5861 271.955 26.1674 271.955 38.3618C271.955 50.5562 281.505 60.1375 293.66 60.1375C305.815 60.1375 315.365 50.5562 315.365 38.3618C315.365 26.1674 305.815 16.5861 293.66 16.5861Z" fill="#FFCB5B"/>
<path d="M263.707 38.3618C263.273 55.3469 277.164 68.8479 293.66 68.8479V68.4122C293.66 66.2348 291.923 64.4925 289.753 64.0573C283.675 63.1863 278.032 60.1375 274.125 55.7825C270.652 52.2985 268.482 47.5078 267.613 42.2815C267.614 40.104 265.877 38.3618 263.707 38.3618Z" fill="#F6B545"/>
<path d="M323.613 38.3618C324.047 21.3767 310.155 7.87573 293.66 7.87573V8.31138C293.66 10.4889 295.396 12.2311 297.567 12.6664C303.644 13.5373 309.287 16.5861 313.194 20.9411C316.667 24.4252 318.838 29.2158 319.706 34.4421C319.706 36.62 321.442 38.3618 323.613 38.3618Z" fill="#FFE27A"/>
<path d="M290.621 19.635C302.776 19.635 312.326 29.2163 312.326 41.4107C312.326 46.637 310.59 51.4276 307.117 55.347C312.326 50.992 315.365 45.33 315.365 38.3619C315.365 26.1675 305.814 16.5862 293.66 16.5862C286.714 16.5862 281.071 19.6346 277.164 24.4252C280.636 21.3772 285.412 19.635 290.621 19.635Z" fill="#F19920"/>
<path d="M280.202 51.4275C280.202 50.9919 280.202 50.5566 280.637 50.121C281.505 49.25 282.807 49.25 283.675 50.121C286.28 52.7341 290.187 54.0407 293.66 54.0407C294.962 54.0407 295.83 54.9116 295.83 56.2182C295.83 57.5248 294.962 58.3957 293.66 58.3957C288.885 58.3957 284.109 56.6535 280.637 53.605C280.202 52.7337 280.202 51.8628 280.202 51.4275Z" fill="#FFCB5B"/>
<path d="M280.636 38.3618C280.636 35.7487 282.373 34.0068 284.977 34.0068L302.341 34.0068C304.946 34.0068 306.682 35.7491 306.682 38.3618C306.682 40.975 304.946 42.7168 302.341 42.7168H284.977C282.373 42.7172 280.636 40.975 280.636 38.3618Z" fill="#F19920"/>
<path d="M301.908 58.3956C299.303 59.2665 296.698 60.1378 293.66 60.1378C281.505 60.1378 271.954 50.5565 271.954 38.3621C271.954 37.0555 271.954 35.3137 272.389 34.0071H271.954C268.916 34.0071 266.311 34.4427 263.272 35.3137C263.272 36.1846 263.272 37.4912 263.272 38.3621C263.272 55.3472 276.73 68.8482 293.66 68.8482C296.698 68.8482 299.303 68.4125 302.342 67.5416C302.342 66.6707 302.342 65.3641 302.342 64.4932C302.341 62.3149 302.341 60.5731 301.908 58.3956Z" fill="#F6B545"/>
<path d="M237.226 60.1374C237.226 76.9744 250.831 90.6235 267.613 90.6235C284.396 90.6235 298 76.9744 298 60.1374C298 43.3005 284.396 29.6514 267.613 29.6514C250.831 29.6514 237.226 43.3005 237.226 60.1374Z" fill="#F6B545"/>
<path fill-rule="evenodd" clip-rule="evenodd" d="M267.614 29.6514C284.544 29.6514 298.001 43.1524 298.001 60.1374C298.001 77.1225 284.544 90.6235 267.614 90.6235C250.684 90.6235 237.226 77.1225 237.226 60.1374C237.226 43.1524 250.684 29.6514 267.614 29.6514ZM267.614 38.3617C255.459 38.3617 245.908 47.943 245.908 60.1374C245.908 72.3319 255.459 81.9132 267.614 81.9132C279.769 81.9132 289.319 72.3319 289.319 60.1374C289.319 47.943 279.769 38.3617 267.614 38.3617Z" fill="#FFCB5B"/>
<path d="M237.66 60.1375C237.226 77.1225 251.117 90.6235 267.613 90.6235V90.1879C267.613 88.0104 265.877 86.2682 263.706 85.8329C257.629 84.962 251.986 81.9132 248.079 77.5582C244.606 74.0741 242.435 69.2835 241.567 64.0572C241.567 61.8797 239.831 60.1375 237.66 60.1375Z" fill="#F6B545"/>
<path d="M297.567 60.1374C298.001 43.1524 284.109 29.6514 267.614 29.6514V30.087C267.614 32.2645 269.35 34.0067 271.521 34.442C277.598 35.3129 283.241 38.3617 287.148 42.7167C290.621 46.2008 292.792 50.9914 293.66 56.2177C293.66 58.3956 295.396 60.1374 297.567 60.1374Z" fill="#FFE27A"/>
<path d="M264.575 41.4106C276.73 41.4106 286.28 50.9919 286.28 63.1863C286.28 68.4126 284.543 73.2033 281.07 77.1226C286.28 72.7676 289.318 67.1057 289.318 60.1375C289.318 47.9431 279.768 38.3618 267.613 38.3618C260.668 38.3618 255.024 41.4102 251.117 46.2009C254.59 43.1525 259.365 41.4106 264.575 41.4106Z" fill="#F19920"/>
<path d="M254.156 73.2029C254.156 72.7673 254.156 72.332 254.591 71.8964C255.459 71.0254 256.761 71.0254 257.629 71.8964C260.234 74.5095 264.141 75.8161 267.614 75.8161C268.916 75.8161 269.784 76.687 269.784 77.9936C269.784 79.3001 268.916 80.1711 267.614 80.1711C262.839 80.1711 258.063 78.4288 254.591 75.3804C254.156 74.5095 254.156 73.6386 254.156 73.2029Z" fill="#FFCB5B"/>
<path d="M254.59 60.1375C254.59 57.5243 256.327 55.7825 258.931 55.7825L276.295 55.7825C278.9 55.7825 280.636 57.5247 280.636 60.1375C280.636 62.7506 278.9 64.4925 276.295 64.4925H258.931C256.327 64.4928 254.59 62.7506 254.59 60.1375Z" fill="#F19920"/>
<g opacity="0.86">
<path fill-rule="evenodd" clip-rule="evenodd" d="M272.577 51.6725L282.905 62L272.577 72.3275L275.75 75.5L289.25 62L275.75 48.5L272.577 51.6725ZM300.5 75.5H296V48.5H300.5V75.5Z" fill="white"/>
</g>
<defs>
<filter id="filter0_d" x="-17" y="0" width="409" height="214" filterUnits="userSpaceOnUse" color-interpolation-filters="sRGB">
<feFlood flood-opacity="0" result="BackgroundImageFix"/>
<feColorMatrix in="SourceAlpha" type="matrix" values="0 0 0 0 0 0 0 0 0 0 0 0 0 0 0 0 0 0 127 0"/>
<feOffset dy="18"/>
<feGaussianBlur stdDeviation="21"/>
<feColorMatrix type="matrix" values="0 0 0 0 0.2 0 0 0 0 0.789685 0 0 0 0 1 0 0 0 0.2 0"/>
<feBlend mode="normal" in2="BackgroundImageFix" result="effect1_dropShadow"/>
<feBlend mode="normal" in="SourceGraphic" in2="effect1_dropShadow" result="shape"/>
</filter>
</defs>
</svg>
