<svg width="96" height="102" viewBox="0 0 96 102" fill="none" xmlns="http://www.w3.org/2000/svg">
<path d="M26.2722 31.3618C26.2722 48.1988 39.877 61.8479 56.6595 61.8479C73.442 61.8479 87.0469 48.1988 87.0469 31.3618C87.0469 14.5248 73.442 0.875732 56.6595 0.875732C39.877 0.875732 26.2722 14.5248 26.2722 31.3618Z" fill="#FFCA5D"/>
<path d="M34.9543 70.5583C34.9543 87.3953 48.5592 101.044 65.3416 101.044C82.1241 101.044 95.729 87.3953 95.729 70.5583C95.729 53.7213 82.1241 40.0723 65.3416 40.0723C48.5592 40.0723 34.9543 53.7213 34.9543 70.5583Z" fill="#F6B545"/>
<path fill-rule="evenodd" clip-rule="evenodd" d="M65.3416 40.0723C82.2717 40.0723 95.729 53.5733 95.729 70.5583C95.729 87.5434 82.2717 101.044 65.3416 101.044C48.4116 101.044 34.9543 87.5434 34.9543 70.5583C34.9543 53.5733 48.4116 40.0723 65.3416 40.0723ZM65.3416 48.7826C53.1867 48.7826 43.6364 58.3639 43.6364 70.5583C43.6364 82.7528 53.1867 92.3341 65.3416 92.3341C77.4966 92.3341 87.0468 82.7528 87.0468 70.5583C87.0468 58.3639 77.4966 48.7826 65.3416 48.7826Z" fill="#FFCB5B"/>
<path d="M35.3887 70.5583C34.9544 87.5434 48.846 101.044 65.3418 101.044V100.609C65.3418 98.4313 63.6052 96.6891 61.4348 96.2538C55.3573 95.3829 49.7141 92.3341 45.807 87.9791C42.3343 84.495 40.1638 79.7044 39.2957 74.4781C39.2957 72.3002 37.5591 70.5583 35.3887 70.5583Z" fill="#F6B545"/>
<path d="M95.2948 70.5583C95.729 53.5733 81.8375 40.0723 65.3417 40.0723V40.5079C65.3417 42.6854 67.0782 44.4276 69.2487 44.8629C75.3262 45.7338 80.9694 48.7826 84.8764 53.1376C88.3492 56.6217 90.5196 61.4123 91.3881 66.6386C91.3877 68.8161 93.1243 70.5583 95.2948 70.5583Z" fill="#FFE27A"/>
<path d="M62.3031 51.8309C74.4581 51.8309 84.0083 61.4122 84.0083 73.6066C84.0083 78.8329 82.2717 83.6235 78.799 87.5429C84.0083 83.1879 87.0469 77.5263 87.0469 70.5582C87.0469 58.3638 77.4966 48.7825 65.3417 48.7825C58.3961 48.7825 52.7529 51.8309 48.8458 56.6215C52.3186 53.5731 57.0938 51.8309 62.3031 51.8309Z" fill="#F19920"/>
<path d="M51.8845 83.6236C51.8845 83.1879 51.8845 82.7527 52.3187 82.317C53.1868 81.4461 54.4892 81.4461 55.3573 82.317C57.9619 84.9302 61.869 86.2367 65.3418 86.2367C66.6441 86.2367 67.5122 87.1077 67.5122 88.4142C67.5122 89.7208 66.6441 90.5917 65.3418 90.5917C60.5666 90.5917 55.7915 88.8495 52.3187 85.8011C51.8845 84.9302 51.8845 84.0589 51.8845 83.6236Z" fill="#FFCB5B"/>
<path d="M52.3185 70.5584C52.3185 67.9452 54.0551 66.2034 56.6594 66.2034H74.0234C76.6281 66.2034 78.3643 67.9456 78.3643 70.5584C78.3643 73.1711 76.6277 74.9134 74.0234 74.9134H56.6594C54.0551 74.9134 52.3185 73.1715 52.3185 70.5584Z" fill="#F19920"/>
<path d="M39.7298 86.6722C50.5824 83.6237 59.2646 75.7843 63.1712 65.7674C73.1557 64.0251 81.8375 57.4926 87.0469 49.2179C81.4036 43.9916 74.0238 40.5076 65.7759 40.5076C48.8458 40.5076 35.3886 54.0086 35.3886 70.9937C34.9547 76.6556 36.6909 81.8815 39.7298 86.6722Z" fill="#F19920"/>
<path d="M48.8459 56.6217C52.7529 53.5732 57.528 51.3954 62.737 51.3954C68.8145 51.3954 74.4577 54.0085 78.3648 58.3635C79.6671 57.4926 80.5352 56.6213 81.4033 55.7504C77.4963 51.3954 71.8531 48.7822 65.3414 48.7822C58.3961 48.7826 52.7529 51.831 48.8459 56.6217Z" fill="#E78825"/>
<path d="M62.7368 66.2029H56.6593C54.0547 66.2029 52.3185 67.9451 52.3185 70.5579C52.3185 73.1706 54.055 74.9129 56.6593 74.9129H57.5274C59.6983 72.3001 61.4345 69.2517 62.7368 66.2029Z" fill="#E78825"/>
<path d="M39.7297 86.6721C42.7683 85.8012 45.373 84.9299 47.9776 83.1881C45.373 79.704 43.6367 75.349 43.6367 70.5583C43.6367 58.3639 53.187 48.7826 65.3419 48.7826C71.8537 48.7826 77.4969 51.3958 81.4039 55.7508C83.5744 53.5733 85.3109 51.3958 86.6133 48.7826C80.97 43.5563 73.5902 40.0723 65.3423 40.0723C48.4122 40.0723 34.955 53.5733 34.955 70.5583C34.9546 76.6556 36.6908 81.8815 39.7297 86.6721Z" fill="#F6B545"/>
<path d="M43.6362 85.3654C41.4658 82.317 40.1634 78.3973 39.2953 74.4776C38.8611 72.3001 37.1249 70.5579 34.9544 70.5579C34.9544 76.6551 36.691 81.8814 39.7296 86.672C41.0319 86.2367 42.3339 85.8011 43.6362 85.3654Z" fill="#F19920"/>
<path d="M86.6128 48.7826C80.9696 43.5563 73.5897 40.0723 65.3418 40.0723V40.5079C65.3418 42.6854 67.0784 44.4276 69.2489 44.8629C75.3263 45.7338 80.5357 48.7826 84.4423 52.702C84.8766 51.3958 85.7447 50.0892 86.6128 48.7826Z" fill="#FFCB5B"/>
<path d="M26.2722 31.3618C26.2722 48.1988 39.877 61.8479 56.6595 61.8479C73.442 61.8479 87.0469 48.1988 87.0469 31.3618C87.0469 14.5248 73.442 0.875732 56.6595 0.875732C39.877 0.875732 26.2722 14.5248 26.2722 31.3618Z" fill="#F6B545"/>
<path d="M34.9544 27.0068C31.9159 27.0068 29.3112 27.4425 26.2723 28.3134C26.2723 29.1843 26.2723 30.4909 26.2723 31.3618C26.2723 48.3469 39.7296 61.8479 56.6596 61.8479C59.6982 61.8479 62.3029 61.4123 65.3418 60.5413C65.3418 59.6704 65.3418 58.3638 65.3418 57.4929C65.3414 40.5078 51.8841 27.0068 34.9544 27.0068Z" fill="#F19920"/>
<path fill-rule="evenodd" clip-rule="evenodd" d="M56.6595 0.875732C73.5896 0.875732 87.0469 14.3767 87.0469 31.3618C87.0469 48.3469 73.5892 61.8479 56.6595 61.8479C39.7298 61.8479 26.2722 48.3469 26.2722 31.3618C26.2722 14.3767 39.7294 0.875732 56.6595 0.875732ZM56.6599 9.58609C44.5049 9.58609 34.9547 19.1674 34.9547 31.3618C34.9547 43.5562 44.5049 53.1375 56.6599 53.1375C68.8148 53.1375 78.3651 43.5562 78.3651 31.3618C78.3651 19.1674 68.8148 9.58609 56.6599 9.58609Z" fill="#FFCB5B"/>
<path d="M26.7069 31.3618C26.2727 48.3469 40.1638 61.8479 56.6597 61.8479V61.4122C56.6597 59.2348 54.9231 57.4925 52.7526 57.0573C46.6752 56.1863 41.0319 53.1375 37.1249 48.7825C33.6521 45.2985 31.4817 40.5078 30.6132 35.2815C30.6136 33.104 28.8774 31.3618 26.7069 31.3618Z" fill="#F6B545"/>
<path d="M86.6126 31.3618C87.0469 14.3767 73.1554 0.875732 56.6595 0.875732V1.31138C56.6595 3.48888 58.3961 5.2311 60.5666 5.66638C66.644 6.5373 72.2873 9.58609 76.1943 13.9411C79.6671 17.4252 81.8375 22.2158 82.706 27.4421C82.706 29.62 84.4422 31.3618 86.6126 31.3618Z" fill="#FFE27A"/>
<path d="M53.621 12.635C65.7759 12.635 75.3262 22.2163 75.3262 34.4107C75.3262 39.637 73.5896 44.4276 70.1168 48.347C75.3262 43.992 78.3647 38.33 78.3647 31.3619C78.3647 19.1675 68.8145 9.58618 56.6595 9.58618C49.714 9.58618 44.0707 12.6346 40.1637 17.4252C43.6365 14.3772 48.4116 12.635 53.621 12.635Z" fill="#F19920"/>
<path d="M43.2023 44.4275C43.2023 43.9919 43.2023 43.5566 43.6366 43.121C44.5047 42.25 45.807 42.25 46.6751 43.121C49.2798 45.7341 53.1868 47.0407 56.6596 47.0407C57.962 47.0407 58.8301 47.9116 58.8301 49.2182C58.8301 50.5248 57.962 51.3957 56.6596 51.3957C51.8845 51.3957 47.1094 49.6535 43.6366 46.605C43.2023 45.7337 43.2023 44.8628 43.2023 44.4275Z" fill="#FFCB5B"/>
<path d="M43.6364 31.3618C43.6364 28.7487 45.373 27.0068 47.9773 27.0068L65.3412 27.0068C67.9459 27.0068 69.6821 28.7491 69.6821 31.3618C69.6821 33.975 67.9455 35.7168 65.3412 35.7168H47.9773C45.373 35.7172 43.6364 33.975 43.6364 31.3618Z" fill="#F19920"/>
<path d="M64.9076 51.3956C62.3029 52.2665 59.6982 53.1378 56.6596 53.1378C44.5047 53.1378 34.9544 43.5565 34.9544 31.3621C34.9544 30.0555 34.9544 28.3137 35.3887 27.0071H34.9544C31.9159 27.0071 29.3112 27.4427 26.2723 28.3137C26.2723 29.1846 26.2723 30.4912 26.2723 31.3621C26.2723 48.3472 39.7296 61.8482 56.6596 61.8482C59.6982 61.8482 62.3029 61.4125 65.3418 60.5416C65.3418 59.6707 65.3418 58.3641 65.3418 57.4932C65.3414 55.3149 65.3414 53.5731 64.9076 51.3956Z" fill="#F6B545"/>
<path d="M0.225773 53.1374C0.225773 69.9744 13.8307 83.6235 30.6131 83.6235C47.3956 83.6235 61.0005 69.9744 61.0005 53.1374C61.0005 36.3005 47.3956 22.6514 30.6131 22.6514C13.8307 22.6514 0.225773 36.3005 0.225773 53.1374Z" fill="#F6B545"/>
<path fill-rule="evenodd" clip-rule="evenodd" d="M30.6136 22.6514C47.5437 22.6514 61.001 36.1524 61.001 53.1374C61.001 70.1225 47.5437 83.6235 30.6136 83.6235C13.6835 83.6235 0.226261 70.1225 0.226261 53.1374C0.226261 36.1524 13.6835 22.6514 30.6136 22.6514ZM30.6136 31.3617C18.4587 31.3617 8.90842 40.943 8.90842 53.1374C8.90842 65.3319 18.4587 74.9132 30.6136 74.9132C42.7686 74.9132 52.3188 65.3319 52.3188 53.1374C52.3188 40.943 42.7686 31.3617 30.6136 31.3617Z" fill="#FFCB5B"/>
<path d="M0.660162 53.1375C0.225924 70.1225 14.1174 83.6235 30.6133 83.6235V83.1879C30.6133 81.0104 28.8767 79.2682 26.7063 78.8329C20.6288 77.962 14.9856 74.9132 11.0785 70.5582C7.60574 67.0741 5.43529 62.2835 4.56681 57.0572C4.56719 54.8797 2.83098 53.1375 0.660162 53.1375Z" fill="#F6B545"/>
<path d="M60.5667 53.1374C61.001 36.1524 47.1095 22.6514 30.6136 22.6514V23.087C30.6136 25.2645 32.3502 27.0067 34.5207 27.442C40.5981 28.3129 46.2414 31.3617 50.1484 35.7167C53.6212 39.2008 55.7916 43.9914 56.6601 49.2177C56.6597 51.3956 58.3963 53.1374 60.5667 53.1374Z" fill="#FFE27A"/>
<path d="M27.5746 34.4106C39.7296 34.4106 49.2798 43.9919 49.2798 56.1863C49.2798 61.4126 47.5432 66.2033 44.0704 70.1226C49.2798 65.7676 52.3184 60.1057 52.3184 53.1375C52.3184 40.9431 42.7681 31.3618 30.6132 31.3618C23.6676 31.3618 18.0243 34.4102 14.1173 39.2009C17.5901 36.1525 22.3652 34.4106 27.5746 34.4106Z" fill="#F19920"/>
<path d="M17.1564 66.2029C17.1564 65.7673 17.1564 65.332 17.5907 64.8964C18.4588 64.0254 19.7611 64.0254 20.6292 64.8964C23.2339 67.5095 27.1409 68.8161 30.6137 68.8161C31.9161 68.8161 32.7842 69.687 32.7842 70.9936C32.7842 72.3001 31.9161 73.1711 30.6137 73.1711C25.8386 73.1711 21.0635 71.4288 17.5907 68.3804C17.1564 67.5095 17.1564 66.6386 17.1564 66.2029Z" fill="#FFCB5B"/>
<path d="M17.5901 53.1375C17.5901 50.5243 19.3267 48.7825 21.931 48.7825L39.2953 48.7825C41.9 48.7825 43.6362 50.5247 43.6362 53.1375C43.6362 55.7506 41.8997 57.4925 39.2953 57.4925H21.9314C19.3267 57.4928 17.5901 55.7506 17.5901 53.1375Z" fill="#F19920"/>
</svg>
